M48
;GenerationSoftware,Autodesk,EAGLE,9.7.0*%
;CreationDate,2025-11-29T12:55:51Z*%
FMAT,2
ICI,OFF
METRIC,TZ,000.000
T9C0.200
T8C0.300
T7C0.700
T6C0.800
T5C1.000
T4C1.016
T3C1.050
T2C1.650
T1C4.000
%
G90
M71
T1
X92710Y3810
X92710Y59690
X3810Y59690
X3810Y3810
T2
X6350Y54915
X6350Y8585
T3
X80843Y5286
X58708Y11888
X56168Y11888
X53628Y11888
X51088Y11888
X48548Y11888
T4
X45037Y11883
X42497Y11883
T5
X85181Y23090
X91181Y23090
X88181Y27790
T6
G00X94120Y52500
M15
G01X92380Y52500
M16
X93250Y52500
G00X94120Y45200
M15
G01X92380Y45200
M16
X93250Y45200
T7
G05
X88300Y47250
X89550Y48050
X88300Y48850
X89550Y49650
X88300Y50450
T8
X40186Y39901
T9
X42857Y30130
X46729Y25977
X79680Y47789
X53636Y46461
X37967Y40662
X47161Y40584
X61054Y24478
X59882Y39750
X58284Y24466
X58126Y46374
X69050Y42075
X68742Y43569
X71487Y43604
X71423Y32257
X71330Y37176
X66935Y38359
X65815Y42051
X65815Y43512
X66940Y43507
X65638Y58433
X73583Y43820
X59406Y46380
X62567Y48313
X59545Y22262
X80003Y43093
X65940Y33006
X65940Y37823
X87078Y44079
X89536Y43692
X88300Y42523
X60416Y46503
X61671Y41495
X62240Y40729
X57716Y52557
X78231Y46454
X37465Y52368
X57823Y53990
X62602Y53997
X62345Y52895
X38100Y52868
X76226Y50735
X59334Y41977
X55030Y17234
X30480Y25543
X30480Y36610
X30480Y41275
X50165Y41275
X48260Y54651
X29845Y26356
X46990Y42231
X46990Y54450
X29149Y36914
X29149Y42247
X29210Y27144
X28575Y46355
X49048Y46243
X48792Y53950
X28575Y27956
X27998Y47625
X47597Y47625
X47622Y53450
X24266Y28744
X26042Y52705
X24266Y48249
X26042Y48260
X21879Y53959
X21879Y31750
X22663Y31750
X22663Y54610
X22663Y50147
X23488Y31750
X23488Y55142
X23488Y38375
X76935Y35140
X42548Y34490
X42545Y59950
X76935Y47935
X25079Y31750
X25079Y35152
X41910Y60450
X41910Y35152
X76176Y47703
X76319Y35695
X25867Y31750
X25867Y38726
X52698Y60570
X56718Y39463
X26660Y31750
X41275Y37450
X41275Y60960
X26664Y37157
X27467Y55450
X27467Y49530
X27467Y33020
X55385Y54157
X55385Y58390
X46355Y46880
X57881Y47144
X54053Y24756
X45087Y25569
X53340Y54667
X53340Y56685
X45720Y48895
X56718Y49226
X46151Y27141
X57198Y55189
X57198Y56280
X63668Y52272
X63586Y32406
X53289Y32406
X62981Y51651
X62981Y31301
X52673Y31301
X47512Y32423
X45629Y32423
X45629Y27956
X52107Y29093
X64118Y29094
X64118Y50989
X51009Y56987
X51009Y51285
X47512Y31459
X33884Y28980
X29845Y50903
X49334Y58310
X49334Y51024
X46822Y32005
X33080Y31764
X29210Y50372
X50087Y50672
X50087Y58862
X67509Y51397
X67509Y30639
X50348Y30732
X66918Y49839
X66495Y29816
X51474Y30113
X68158Y49308
X68158Y29284
X50349Y29584
X46990Y29844
X69850Y31874
X69850Y52070
X50160Y28512
X71120Y28575
X71120Y47625
X72468Y27420
X72468Y47625
X52070Y27420
X71755Y26661
X71755Y46990
X52053Y26661
X54779Y23943
X54640Y53646
X54640Y59075
X65268Y26038
X65268Y50989
X51091Y26038
X50154Y25400
X64735Y25400
X64735Y50216
X70485Y27920
X70485Y46990
X52705Y27920
X31750Y23943
X31731Y44922
X50793Y48656
X55559Y33544
X50625Y61065
X59860Y33544
X55973Y48675
X44450Y49297
X44450Y57950
X44450Y33711
X46990Y37165
X44450Y37165
X58420Y52103
X58420Y33655
X29845Y31750
X29845Y45572
X31115Y24754
X31077Y45342
X32385Y23156
X32385Y44503
X24765Y59450
X24765Y37778
X75714Y36238
X43565Y58950
X43565Y35684
X75714Y46508
X77617Y34570
X30702Y55950
X77617Y49309
X34925Y34143
X40640Y44105
X40640Y58446
X40005Y56950
X40005Y43667
X35560Y43180
X31333Y56450
X50173Y37132
X58952Y42903
X58952Y36648
X55236Y39807
X51739Y40424
X51638Y58719
X70868Y55245
X70868Y59690
X55264Y41567
X67027Y26038
X67027Y37423
X30667Y13335
X15875Y43808
X15875Y6985
X30667Y6985
X19050Y33653
X19050Y3810
X33080Y3810
X33080Y13335
X10795Y24765
X10795Y11430
X40005Y11430
X40005Y21559
X19685Y32397
X19685Y3175
X33868Y3175
X33868Y13335
X13970Y31135
X13970Y7620
X35495Y15875
X35560Y7620
X13335Y29845
X13335Y8255
X36830Y8255
X36830Y17541
X12700Y28575
X37465Y18348
X37465Y8890
X12700Y8890
X12065Y27305
X12065Y9525
X38100Y9525
X38100Y19143
X11430Y26036
X34969Y57450
X38717Y10160
X38735Y20743
X18415Y37465
X18415Y4445
X27483Y13335
X27483Y4445
X20955Y47625
X20955Y1905
X29880Y1905
X29880Y13353
X20320Y46355
X20320Y2540
X31480Y2540
X31480Y13335
X16510Y45101
X32267Y13335
X32267Y6350
X16510Y6375
X15240Y42550
X15240Y24765
X14605Y41284
X14605Y24130
X25857Y13335
X17145Y34926
X17145Y5715
X25857Y5715
X17780Y5080
X26670Y5080
X26670Y13335
X17780Y36195
X13335Y38735
X53340Y57500
X13335Y61595
X53340Y61595
X12065Y40005
X12065Y62181
X67268Y62181
X67268Y58420
X90509Y44583
X86369Y44874
X85725Y45303
X85030Y57785
X84455Y48260
X83820Y48895
X11430Y10160
X82550Y50165
X78840Y45835
X36830Y51868
X56782Y52153
X58531Y54563
X62006Y54564
X38735Y53368
X61124Y53427
X61124Y36914
X56066Y40253
X56060Y41435
X51221Y60156
X75441Y2392
X87681Y7457
X80645Y33655
X80645Y51303
X39370Y10795
X39370Y32307
X19685Y38735
X19685Y48895
X17145Y39370
X17145Y50165
X17780Y38100
X17780Y51435
X50081Y59653
X43132Y22350
X81915Y46865
X81915Y54176
X81915Y61099
X32171Y57453
X68864Y55407
X68864Y61076
X81915Y38324
X77882Y2453
X79718Y2423
X79711Y3345
X33664Y55885
X36811Y53964
X35552Y55885
X29202Y54615
X33558Y27611
X79679Y41500
X59016Y48579
X38377Y29837
X83185Y49530
M30