G04 EAGLE Gerber RS-274X export*
G75*
%MOMM*%
%FSLAX34Y34*%
%LPD*%
%INSilkscreen Bottom*%
%IPPOS*%
%AMOC8*
5,1,8,0,0,1.08239X$1,22.5*%
G01*
G04 Define Apertures*
%ADD10C,0.152400*%
%ADD11C,0.127000*%
%ADD12C,0.200000*%
G36*
X519783Y476747D02*
X512050Y476747D01*
X512050Y478087D01*
X515054Y478087D01*
X515054Y489088D01*
X516508Y489088D01*
X519424Y487082D01*
X519424Y485593D01*
X516639Y487582D01*
X516639Y478087D01*
X519783Y478087D01*
X519783Y476747D01*
G37*
G36*
X526116Y476572D02*
X525704Y476588D01*
X525316Y476636D01*
X524949Y476717D01*
X524605Y476829D01*
X524283Y476974D01*
X523984Y477151D01*
X523708Y477360D01*
X523453Y477601D01*
X523225Y477870D01*
X523028Y478164D01*
X522861Y478481D01*
X522724Y478822D01*
X522618Y479187D01*
X522542Y479576D01*
X522496Y479989D01*
X522481Y480426D01*
X522481Y489088D01*
X526519Y489088D01*
X526519Y487722D01*
X524145Y487722D01*
X524145Y480391D01*
X524153Y480098D01*
X524178Y479823D01*
X524219Y479566D01*
X524277Y479328D01*
X524350Y479107D01*
X524441Y478905D01*
X524548Y478722D01*
X524671Y478556D01*
X524808Y478409D01*
X524958Y478282D01*
X525119Y478174D01*
X525293Y478086D01*
X525478Y478018D01*
X525676Y477969D01*
X525885Y477939D01*
X526107Y477930D01*
X526311Y477939D01*
X526506Y477965D01*
X526692Y478010D01*
X526869Y478072D01*
X527038Y478152D01*
X527198Y478250D01*
X527349Y478366D01*
X527491Y478499D01*
X527623Y478648D01*
X527742Y478812D01*
X527849Y478989D01*
X527944Y479180D01*
X528027Y479385D01*
X528097Y479604D01*
X528155Y479837D01*
X528200Y480084D01*
X529838Y479813D01*
X529755Y479420D01*
X529652Y479053D01*
X529529Y478711D01*
X529386Y478395D01*
X529223Y478104D01*
X529040Y477838D01*
X528837Y477597D01*
X528614Y477382D01*
X528372Y477192D01*
X528109Y477028D01*
X527827Y476889D01*
X527524Y476775D01*
X527202Y476686D01*
X526860Y476623D01*
X526498Y476585D01*
X526116Y476572D01*
G37*
G36*
X335058Y466415D02*
X326886Y466415D01*
X326886Y467755D01*
X333324Y467755D01*
X333171Y468065D01*
X332978Y468380D01*
X332742Y468702D01*
X332465Y469030D01*
X332142Y469370D01*
X331767Y469731D01*
X331340Y470113D01*
X330863Y470514D01*
X330021Y471210D01*
X329328Y471808D01*
X328782Y472309D01*
X328384Y472713D01*
X328080Y473067D01*
X327816Y473422D01*
X327591Y473777D01*
X327407Y474131D01*
X327264Y474487D01*
X327161Y474843D01*
X327099Y475200D01*
X327079Y475559D01*
X327095Y475953D01*
X327142Y476323D01*
X327220Y476670D01*
X327330Y476994D01*
X327471Y477295D01*
X327643Y477573D01*
X327847Y477828D01*
X328082Y478060D01*
X328346Y478266D01*
X328637Y478445D01*
X328955Y478596D01*
X329300Y478720D01*
X329672Y478816D01*
X330071Y478885D01*
X330497Y478926D01*
X330950Y478940D01*
X331365Y478926D01*
X331761Y478885D01*
X332138Y478817D01*
X332495Y478721D01*
X332833Y478598D01*
X333152Y478447D01*
X333451Y478269D01*
X333731Y478064D01*
X333987Y477836D01*
X334215Y477588D01*
X334415Y477322D01*
X334586Y477037D01*
X334729Y476733D01*
X334844Y476410D01*
X334930Y476069D01*
X334988Y475708D01*
X333376Y475559D01*
X333339Y475800D01*
X333286Y476026D01*
X333215Y476239D01*
X333128Y476438D01*
X333023Y476623D01*
X332902Y476795D01*
X332765Y476952D01*
X332610Y477096D01*
X332441Y477224D01*
X332261Y477336D01*
X332071Y477430D01*
X331869Y477507D01*
X331656Y477567D01*
X331432Y477609D01*
X331196Y477635D01*
X330950Y477644D01*
X330692Y477635D01*
X330449Y477609D01*
X330221Y477565D01*
X330006Y477503D01*
X329807Y477425D01*
X329622Y477328D01*
X329451Y477214D01*
X329295Y477083D01*
X329155Y476936D01*
X329034Y476774D01*
X328932Y476599D01*
X328848Y476409D01*
X328783Y476204D01*
X328736Y475986D01*
X328708Y475753D01*
X328699Y475506D01*
X328721Y475140D01*
X328786Y474793D01*
X328894Y474465D01*
X329045Y474158D01*
X329232Y473863D01*
X329445Y473575D01*
X329685Y473294D01*
X329952Y473019D01*
X330546Y472476D01*
X331208Y471933D01*
X331908Y471367D01*
X332614Y470755D01*
X332965Y470428D01*
X333307Y470083D01*
X333641Y469719D01*
X333967Y469336D01*
X334277Y468929D01*
X334562Y468492D01*
X334822Y468025D01*
X335058Y467527D01*
X335058Y466415D01*
G37*
G36*
X340926Y466240D02*
X340515Y466256D01*
X340126Y466304D01*
X339759Y466385D01*
X339415Y466497D01*
X339094Y466642D01*
X338794Y466819D01*
X338518Y467028D01*
X338263Y467269D01*
X338036Y467538D01*
X337838Y467832D01*
X337671Y468149D01*
X337534Y468490D01*
X337428Y468855D01*
X337352Y469244D01*
X337306Y469657D01*
X337291Y470094D01*
X337291Y478756D01*
X341329Y478756D01*
X341329Y477390D01*
X338955Y477390D01*
X338955Y470059D01*
X338964Y469766D01*
X338988Y469491D01*
X339029Y469234D01*
X339087Y468996D01*
X339161Y468775D01*
X339251Y468573D01*
X339358Y468389D01*
X339481Y468224D01*
X339618Y468077D01*
X339768Y467950D01*
X339929Y467842D01*
X340103Y467754D01*
X340288Y467686D01*
X340486Y467637D01*
X340696Y467607D01*
X340917Y467598D01*
X341121Y467606D01*
X341316Y467633D01*
X341502Y467678D01*
X341679Y467740D01*
X341848Y467820D01*
X342008Y467918D01*
X342159Y468033D01*
X342301Y468167D01*
X342433Y468316D01*
X342552Y468479D01*
X342660Y468657D01*
X342754Y468848D01*
X342837Y469053D01*
X342907Y469272D01*
X342965Y469505D01*
X343011Y469752D01*
X344648Y469481D01*
X344565Y469088D01*
X344462Y468721D01*
X344339Y468379D01*
X344196Y468063D01*
X344033Y467772D01*
X343850Y467506D01*
X343647Y467265D01*
X343424Y467050D01*
X343182Y466860D01*
X342919Y466696D01*
X342637Y466556D01*
X342335Y466442D01*
X342012Y466354D01*
X341670Y466291D01*
X341308Y466253D01*
X340926Y466240D01*
G37*
D10*
X487666Y444178D02*
X487666Y458432D01*
X487666Y174968D02*
X503515Y174968D01*
X487666Y174968D02*
X487666Y189222D01*
X487666Y458432D02*
X503515Y458432D01*
X546948Y458432D02*
X561834Y458432D01*
X561834Y174968D01*
X546948Y174968D01*
D11*
X473474Y182734D02*
X473476Y182865D01*
X473482Y182997D01*
X473492Y183128D01*
X473506Y183258D01*
X473524Y183388D01*
X473546Y183518D01*
X473571Y183647D01*
X473601Y183775D01*
X473635Y183902D01*
X473672Y184028D01*
X473713Y184153D01*
X473758Y184276D01*
X473807Y184398D01*
X473859Y184519D01*
X473915Y184638D01*
X473975Y184755D01*
X474038Y184870D01*
X474104Y184983D01*
X474174Y185094D01*
X474247Y185204D01*
X474324Y185310D01*
X474404Y185415D01*
X474487Y185517D01*
X474573Y185616D01*
X474662Y185713D01*
X474754Y185807D01*
X474848Y185898D01*
X474946Y185986D01*
X475046Y186071D01*
X475148Y186153D01*
X475253Y186232D01*
X475361Y186308D01*
X475470Y186381D01*
X475582Y186450D01*
X475696Y186515D01*
X475811Y186578D01*
X475929Y186636D01*
X476048Y186691D01*
X476169Y186743D01*
X476292Y186791D01*
X476415Y186835D01*
X476540Y186875D01*
X476667Y186911D01*
X476794Y186944D01*
X476922Y186972D01*
X477051Y186997D01*
X477181Y187018D01*
X477311Y187035D01*
X477442Y187048D01*
X477573Y187057D01*
X477704Y187062D01*
X477836Y187063D01*
X477967Y187060D01*
X478098Y187053D01*
X478229Y187042D01*
X478360Y187027D01*
X478490Y187008D01*
X478619Y186985D01*
X478748Y186959D01*
X478876Y186928D01*
X479003Y186893D01*
X479128Y186855D01*
X479253Y186813D01*
X479376Y186767D01*
X479497Y186718D01*
X479618Y186664D01*
X479736Y186607D01*
X479853Y186547D01*
X479967Y186483D01*
X480080Y186416D01*
X480191Y186345D01*
X480299Y186271D01*
X480406Y186193D01*
X480509Y186113D01*
X480611Y186029D01*
X480709Y185942D01*
X480805Y185853D01*
X480899Y185760D01*
X480989Y185665D01*
X481077Y185567D01*
X481161Y185466D01*
X481242Y185363D01*
X481321Y185257D01*
X481396Y185149D01*
X481467Y185039D01*
X481535Y184927D01*
X481600Y184813D01*
X481662Y184696D01*
X481719Y184578D01*
X481774Y184459D01*
X481824Y184337D01*
X481871Y184215D01*
X481914Y184090D01*
X481953Y183965D01*
X481989Y183839D01*
X482020Y183711D01*
X482048Y183583D01*
X482072Y183453D01*
X482092Y183323D01*
X482108Y183193D01*
X482120Y183062D01*
X482128Y182931D01*
X482132Y182800D01*
X482132Y182668D01*
X482128Y182537D01*
X482120Y182406D01*
X482108Y182275D01*
X482092Y182145D01*
X482072Y182015D01*
X482048Y181885D01*
X482020Y181757D01*
X481989Y181629D01*
X481953Y181503D01*
X481914Y181378D01*
X481871Y181253D01*
X481824Y181131D01*
X481774Y181009D01*
X481719Y180890D01*
X481662Y180772D01*
X481600Y180655D01*
X481535Y180541D01*
X481467Y180429D01*
X481396Y180319D01*
X481321Y180211D01*
X481242Y180105D01*
X481161Y180002D01*
X481077Y179901D01*
X480989Y179803D01*
X480899Y179708D01*
X480805Y179615D01*
X480709Y179526D01*
X480611Y179439D01*
X480509Y179355D01*
X480406Y179275D01*
X480299Y179197D01*
X480191Y179123D01*
X480080Y179052D01*
X479968Y178985D01*
X479853Y178921D01*
X479736Y178861D01*
X479618Y178804D01*
X479497Y178750D01*
X479376Y178701D01*
X479253Y178655D01*
X479128Y178613D01*
X479003Y178575D01*
X478876Y178540D01*
X478748Y178509D01*
X478619Y178483D01*
X478490Y178460D01*
X478360Y178441D01*
X478229Y178426D01*
X478098Y178415D01*
X477967Y178408D01*
X477836Y178405D01*
X477704Y178406D01*
X477573Y178411D01*
X477442Y178420D01*
X477311Y178433D01*
X477181Y178450D01*
X477051Y178471D01*
X476922Y178496D01*
X476794Y178524D01*
X476667Y178557D01*
X476540Y178593D01*
X476415Y178633D01*
X476292Y178677D01*
X476169Y178725D01*
X476048Y178777D01*
X475929Y178832D01*
X475811Y178890D01*
X475696Y178953D01*
X475582Y179018D01*
X475470Y179087D01*
X475361Y179160D01*
X475253Y179236D01*
X475148Y179315D01*
X475046Y179397D01*
X474946Y179482D01*
X474848Y179570D01*
X474754Y179661D01*
X474662Y179755D01*
X474573Y179852D01*
X474487Y179951D01*
X474404Y180053D01*
X474324Y180158D01*
X474247Y180264D01*
X474174Y180374D01*
X474104Y180485D01*
X474038Y180598D01*
X473975Y180713D01*
X473915Y180830D01*
X473859Y180949D01*
X473807Y181070D01*
X473758Y181192D01*
X473713Y181315D01*
X473672Y181440D01*
X473635Y181566D01*
X473601Y181693D01*
X473571Y181821D01*
X473546Y181950D01*
X473524Y182080D01*
X473506Y182210D01*
X473492Y182340D01*
X473482Y182471D01*
X473476Y182603D01*
X473474Y182734D01*
D12*
X362824Y479678D02*
X353574Y479678D01*
X353574Y497178D01*
X353574Y545178D02*
X353574Y562678D01*
X362824Y562678D01*
X392824Y562678D02*
X402074Y562678D01*
X402074Y479678D01*
X392824Y479678D01*
X346524Y496768D02*
X346522Y496724D01*
X346516Y496681D01*
X346507Y496639D01*
X346494Y496597D01*
X346477Y496557D01*
X346457Y496518D01*
X346434Y496481D01*
X346407Y496447D01*
X346378Y496414D01*
X346345Y496385D01*
X346311Y496358D01*
X346274Y496335D01*
X346235Y496315D01*
X346195Y496298D01*
X346153Y496285D01*
X346111Y496276D01*
X346068Y496270D01*
X346024Y496268D01*
X345980Y496270D01*
X345937Y496276D01*
X345895Y496285D01*
X345853Y496298D01*
X345813Y496315D01*
X345774Y496335D01*
X345737Y496358D01*
X345703Y496385D01*
X345670Y496414D01*
X345641Y496447D01*
X345614Y496481D01*
X345591Y496518D01*
X345571Y496557D01*
X345554Y496597D01*
X345541Y496639D01*
X345532Y496681D01*
X345526Y496724D01*
X345524Y496768D01*
X345526Y496812D01*
X345532Y496855D01*
X345541Y496897D01*
X345554Y496939D01*
X345571Y496979D01*
X345591Y497018D01*
X345614Y497055D01*
X345641Y497089D01*
X345670Y497122D01*
X345703Y497151D01*
X345737Y497178D01*
X345774Y497201D01*
X345813Y497221D01*
X345853Y497238D01*
X345895Y497251D01*
X345937Y497260D01*
X345980Y497266D01*
X346024Y497268D01*
X346068Y497266D01*
X346111Y497260D01*
X346153Y497251D01*
X346195Y497238D01*
X346235Y497221D01*
X346274Y497201D01*
X346311Y497178D01*
X346345Y497151D01*
X346378Y497122D01*
X346407Y497089D01*
X346434Y497055D01*
X346457Y497018D01*
X346477Y496979D01*
X346494Y496939D01*
X346507Y496897D01*
X346516Y496855D01*
X346522Y496812D01*
X346524Y496768D01*
X346522Y496724D01*
X346516Y496681D01*
X346507Y496639D01*
X346494Y496597D01*
X346477Y496557D01*
X346457Y496518D01*
X346434Y496481D01*
X346407Y496447D01*
X346378Y496414D01*
X346345Y496385D01*
X346311Y496358D01*
X346274Y496335D01*
X346235Y496315D01*
X346195Y496298D01*
X346153Y496285D01*
X346111Y496276D01*
X346068Y496270D01*
X346024Y496268D01*
X345980Y496270D01*
X345937Y496276D01*
X345895Y496285D01*
X345853Y496298D01*
X345813Y496315D01*
X345774Y496335D01*
X345737Y496358D01*
X345703Y496385D01*
X345670Y496414D01*
X345641Y496447D01*
X345614Y496481D01*
X345591Y496518D01*
X345571Y496557D01*
X345554Y496597D01*
X345541Y496639D01*
X345532Y496681D01*
X345526Y496724D01*
X345524Y496768D01*
D10*
X512790Y70485D02*
X512790Y64235D01*
X512790Y83880D02*
X529330Y83880D01*
X529330Y73735D01*
X529330Y50840D02*
X512790Y50840D01*
X529330Y50840D02*
X529330Y60985D01*
X938049Y417110D02*
X944853Y417110D01*
X944853Y432096D02*
X938049Y432096D01*
X938049Y292789D02*
X944853Y292789D01*
X944853Y307775D02*
X938049Y307775D01*
X938049Y310549D02*
X944853Y310549D01*
X944853Y325535D02*
X938049Y325535D01*
X938049Y328310D02*
X944853Y328310D01*
X944853Y343296D02*
X938049Y343296D01*
X938049Y346070D02*
X944853Y346070D01*
X944853Y361056D02*
X938049Y361056D01*
X938049Y363830D02*
X944853Y363830D01*
X944853Y378816D02*
X938049Y378816D01*
X938049Y381590D02*
X944853Y381590D01*
X944853Y396576D02*
X938049Y396576D01*
X938049Y399350D02*
X944853Y399350D01*
X944853Y414336D02*
X938049Y414336D01*
D11*
X915774Y417987D02*
X904774Y417987D01*
X904774Y430707D02*
X915774Y430707D01*
X916291Y400483D02*
X905291Y400483D01*
X905291Y413203D02*
X916291Y413203D01*
X916048Y382723D02*
X905048Y382723D01*
X905048Y395443D02*
X916048Y395443D01*
X916125Y364963D02*
X905125Y364963D01*
X905125Y377683D02*
X916125Y377683D01*
X916283Y347203D02*
X905283Y347203D01*
X905283Y359923D02*
X916283Y359923D01*
X915682Y329443D02*
X904682Y329443D01*
X904682Y342163D02*
X915682Y342163D01*
X915419Y311682D02*
X904419Y311682D01*
X904419Y324402D02*
X915419Y324402D01*
X915551Y293922D02*
X904551Y293922D01*
X904551Y306642D02*
X915551Y306642D01*
X323699Y513085D02*
X323699Y524085D01*
X336419Y524085D02*
X336419Y513085D01*
M02*
