G04 EAGLE Gerber RS-274X export*
G75*
%MOMM*%
%FSLAX34Y34*%
%LPD*%
%INSilkscreen Top*%
%IPPOS*%
%AMOC8*
5,1,8,0,0,1.08239X$1,22.5*%
G01*
G04 Define Apertures*
%ADD10C,0.152400*%
%ADD11C,0.304800*%
%ADD12C,0.254000*%
%ADD13C,0.127000*%
%ADD14C,0.200000*%
%ADD15R,0.762000X0.508000*%
%ADD16R,0.762000X1.016000*%
G36*
X277739Y62853D02*
X262692Y62853D01*
X262692Y99918D01*
X276161Y99918D01*
X276964Y99909D01*
X277741Y99883D01*
X278493Y99839D01*
X279219Y99777D01*
X279920Y99698D01*
X280595Y99602D01*
X281245Y99487D01*
X281869Y99356D01*
X282468Y99206D01*
X283042Y99039D01*
X283589Y98855D01*
X284112Y98653D01*
X284609Y98433D01*
X285080Y98196D01*
X285526Y97941D01*
X285947Y97669D01*
X286342Y97379D01*
X286711Y97071D01*
X287055Y96746D01*
X287374Y96404D01*
X287667Y96043D01*
X287934Y95666D01*
X288177Y95270D01*
X288393Y94857D01*
X288584Y94427D01*
X288750Y93979D01*
X288890Y93513D01*
X289005Y93030D01*
X289094Y92529D01*
X289158Y92011D01*
X289196Y91475D01*
X289209Y90921D01*
X289201Y90514D01*
X289180Y90116D01*
X289144Y89725D01*
X289094Y89343D01*
X289029Y88969D01*
X288950Y88603D01*
X288856Y88245D01*
X288748Y87896D01*
X288626Y87555D01*
X288489Y87222D01*
X288338Y86897D01*
X288173Y86581D01*
X287993Y86272D01*
X287799Y85972D01*
X287590Y85681D01*
X287367Y85397D01*
X287131Y85123D01*
X286883Y84861D01*
X286585Y84586D01*
X286351Y84371D01*
X285772Y83927D01*
X285144Y83529D01*
X284469Y83177D01*
X283747Y82872D01*
X282977Y82612D01*
X282159Y82398D01*
X282703Y82325D01*
X283232Y82237D01*
X283745Y82134D01*
X284242Y82016D01*
X284723Y81883D01*
X285188Y81735D01*
X285638Y81573D01*
X286072Y81395D01*
X286490Y81203D01*
X286892Y80995D01*
X287278Y80773D01*
X287648Y80536D01*
X288003Y80284D01*
X288342Y80017D01*
X288624Y79771D01*
X288665Y79735D01*
X288972Y79439D01*
X289262Y79129D01*
X289533Y78810D01*
X289785Y78481D01*
X290019Y78142D01*
X290234Y77793D01*
X290431Y77434D01*
X290608Y77065D01*
X290767Y76686D01*
X290908Y76297D01*
X291029Y75899D01*
X291132Y75490D01*
X291216Y75071D01*
X291282Y74642D01*
X291328Y74203D01*
X291356Y73755D01*
X291366Y73296D01*
X291352Y72686D01*
X291309Y72094D01*
X291239Y71519D01*
X291141Y70961D01*
X291014Y70420D01*
X290859Y69896D01*
X290676Y69389D01*
X290465Y68900D01*
X290225Y68427D01*
X289958Y67972D01*
X289662Y67534D01*
X289339Y67113D01*
X288987Y66710D01*
X288607Y66323D01*
X288198Y65954D01*
X287762Y65602D01*
X287300Y65269D01*
X286817Y64957D01*
X286311Y64667D01*
X285784Y64399D01*
X285235Y64152D01*
X284663Y63926D01*
X284070Y63722D01*
X283454Y63540D01*
X282817Y63379D01*
X282157Y63239D01*
X281476Y63121D01*
X280773Y63024D01*
X280047Y62949D01*
X279300Y62895D01*
X278531Y62863D01*
X277739Y62853D01*
G37*
%LPC*%
G36*
X277476Y66877D02*
X278042Y66884D01*
X278588Y66904D01*
X279115Y66937D01*
X279622Y66984D01*
X280109Y67044D01*
X280577Y67118D01*
X281026Y67205D01*
X281455Y67305D01*
X281864Y67418D01*
X282254Y67545D01*
X282625Y67686D01*
X282976Y67839D01*
X283307Y68006D01*
X283619Y68187D01*
X283911Y68380D01*
X284184Y68587D01*
X284439Y68808D01*
X284677Y69041D01*
X284899Y69288D01*
X285105Y69547D01*
X285294Y69820D01*
X285467Y70106D01*
X285623Y70406D01*
X285763Y70718D01*
X285886Y71044D01*
X285993Y71382D01*
X286083Y71734D01*
X286157Y72099D01*
X286215Y72477D01*
X286256Y72869D01*
X286280Y73273D01*
X286289Y73691D01*
X286280Y74094D01*
X286253Y74484D01*
X286208Y74861D01*
X286145Y75226D01*
X286064Y75578D01*
X285965Y75917D01*
X285848Y76243D01*
X285713Y76556D01*
X285560Y76857D01*
X285390Y77145D01*
X285201Y77420D01*
X284994Y77682D01*
X284769Y77932D01*
X284526Y78168D01*
X284266Y78392D01*
X283987Y78603D01*
X283690Y78802D01*
X283376Y78987D01*
X283043Y79160D01*
X282692Y79320D01*
X282324Y79467D01*
X281937Y79601D01*
X281532Y79723D01*
X281110Y79832D01*
X280669Y79927D01*
X280211Y80011D01*
X279734Y80081D01*
X279239Y80139D01*
X278727Y80183D01*
X278196Y80215D01*
X277648Y80235D01*
X277082Y80241D01*
X267717Y80241D01*
X267717Y66877D01*
X277476Y66877D01*
G37*
G36*
X276161Y84161D02*
X276656Y84166D01*
X277135Y84184D01*
X277598Y84214D01*
X278046Y84255D01*
X278477Y84308D01*
X278893Y84373D01*
X279292Y84450D01*
X279676Y84539D01*
X280044Y84639D01*
X280396Y84751D01*
X280731Y84875D01*
X281051Y85011D01*
X281355Y85159D01*
X281643Y85319D01*
X281916Y85490D01*
X282172Y85673D01*
X282412Y85869D01*
X282637Y86077D01*
X282847Y86297D01*
X283041Y86531D01*
X283219Y86776D01*
X283382Y87035D01*
X283529Y87306D01*
X283661Y87590D01*
X283778Y87887D01*
X283879Y88196D01*
X283964Y88518D01*
X284034Y88852D01*
X284088Y89199D01*
X284127Y89559D01*
X284150Y89931D01*
X284158Y90316D01*
X284150Y90684D01*
X284126Y91039D01*
X284086Y91381D01*
X284030Y91709D01*
X283958Y92023D01*
X283869Y92325D01*
X283765Y92613D01*
X283645Y92888D01*
X283509Y93149D01*
X283356Y93397D01*
X283188Y93631D01*
X283004Y93853D01*
X282803Y94061D01*
X282587Y94255D01*
X282354Y94436D01*
X282106Y94604D01*
X281564Y94906D01*
X280965Y95168D01*
X280308Y95390D01*
X279594Y95571D01*
X278822Y95712D01*
X277992Y95812D01*
X277105Y95873D01*
X276161Y95893D01*
X267717Y95893D01*
X267717Y84161D01*
X276161Y84161D01*
G37*
%LPD*%
G36*
X150414Y62853D02*
X145942Y62853D01*
X145942Y99918D01*
X152545Y99918D01*
X162410Y74217D01*
X162926Y72609D01*
X163423Y70889D01*
X163827Y69360D01*
X164067Y68324D01*
X164201Y68919D01*
X164393Y69649D01*
X164642Y70517D01*
X164948Y71520D01*
X165511Y73266D01*
X165710Y73841D01*
X165856Y74217D01*
X175537Y99918D01*
X181982Y99918D01*
X181982Y62853D01*
X177457Y62853D01*
X177457Y87580D01*
X177472Y89612D01*
X177516Y91605D01*
X177590Y93558D01*
X177694Y95472D01*
X177066Y93246D01*
X176470Y91276D01*
X175908Y89563D01*
X175379Y88106D01*
X165803Y62853D01*
X162278Y62853D01*
X152571Y88106D01*
X151098Y92578D01*
X150230Y95472D01*
X150309Y92552D01*
X150414Y87580D01*
X150414Y62853D01*
G37*
G36*
X197288Y62326D02*
X196761Y62335D01*
X196250Y62362D01*
X195755Y62406D01*
X195278Y62468D01*
X194817Y62547D01*
X194372Y62645D01*
X193944Y62759D01*
X193533Y62892D01*
X193139Y63042D01*
X192761Y63210D01*
X192400Y63396D01*
X192055Y63599D01*
X191727Y63820D01*
X191416Y64059D01*
X191121Y64315D01*
X190843Y64589D01*
X190582Y64878D01*
X190338Y65181D01*
X190110Y65496D01*
X189900Y65825D01*
X189706Y66167D01*
X189529Y66522D01*
X189369Y66891D01*
X189226Y67272D01*
X189099Y67667D01*
X188990Y68074D01*
X188897Y68495D01*
X188821Y68929D01*
X188762Y69376D01*
X188720Y69837D01*
X188695Y70310D01*
X188686Y70797D01*
X188698Y71341D01*
X188732Y71870D01*
X188788Y72382D01*
X188868Y72878D01*
X188970Y73359D01*
X189095Y73823D01*
X189243Y74271D01*
X189413Y74703D01*
X189606Y75120D01*
X189822Y75520D01*
X190060Y75904D01*
X190321Y76272D01*
X190605Y76624D01*
X190912Y76960D01*
X191241Y77280D01*
X191593Y77584D01*
X191970Y77871D01*
X192376Y78141D01*
X192808Y78394D01*
X193269Y78630D01*
X193758Y78848D01*
X194274Y79049D01*
X194819Y79233D01*
X195391Y79399D01*
X195991Y79548D01*
X196619Y79680D01*
X197275Y79795D01*
X197958Y79892D01*
X198670Y79972D01*
X199409Y80035D01*
X200176Y80081D01*
X200971Y80109D01*
X207364Y80215D01*
X207364Y81767D01*
X207341Y82604D01*
X207312Y82999D01*
X207272Y83380D01*
X207220Y83744D01*
X207156Y84094D01*
X207082Y84427D01*
X206995Y84746D01*
X206898Y85049D01*
X206788Y85336D01*
X206667Y85609D01*
X206535Y85865D01*
X206391Y86107D01*
X206236Y86333D01*
X206069Y86543D01*
X205891Y86739D01*
X205700Y86920D01*
X205496Y87090D01*
X205279Y87248D01*
X205049Y87395D01*
X204805Y87529D01*
X204549Y87652D01*
X204279Y87764D01*
X203996Y87863D01*
X203701Y87951D01*
X203391Y88027D01*
X203069Y88092D01*
X202734Y88144D01*
X202385Y88185D01*
X202024Y88215D01*
X201649Y88232D01*
X201261Y88238D01*
X200492Y88221D01*
X199778Y88171D01*
X199118Y88086D01*
X198512Y87968D01*
X197960Y87817D01*
X197463Y87631D01*
X197020Y87412D01*
X196631Y87159D01*
X196287Y86870D01*
X195980Y86540D01*
X195708Y86169D01*
X195473Y85759D01*
X195274Y85308D01*
X195112Y84817D01*
X194985Y84285D01*
X194895Y83713D01*
X189949Y84161D01*
X190033Y84633D01*
X190135Y85091D01*
X190255Y85533D01*
X190392Y85961D01*
X190547Y86373D01*
X190719Y86771D01*
X190909Y87154D01*
X191116Y87521D01*
X191341Y87874D01*
X191584Y88211D01*
X191844Y88534D01*
X192122Y88841D01*
X192417Y89134D01*
X192730Y89411D01*
X193060Y89674D01*
X193408Y89922D01*
X193774Y90154D01*
X194157Y90372D01*
X194558Y90574D01*
X194976Y90762D01*
X195412Y90934D01*
X195865Y91092D01*
X196336Y91234D01*
X196825Y91362D01*
X197331Y91474D01*
X197855Y91572D01*
X198396Y91654D01*
X198955Y91722D01*
X199531Y91774D01*
X200125Y91812D01*
X200737Y91834D01*
X201366Y91842D01*
X202026Y91832D01*
X202666Y91803D01*
X203285Y91755D01*
X203883Y91688D01*
X204460Y91602D01*
X205017Y91496D01*
X205553Y91371D01*
X206068Y91227D01*
X206562Y91064D01*
X207036Y90881D01*
X207489Y90679D01*
X207921Y90458D01*
X208332Y90218D01*
X208723Y89959D01*
X209093Y89680D01*
X209442Y89382D01*
X209770Y89066D01*
X210077Y88733D01*
X210363Y88383D01*
X210627Y88015D01*
X210871Y87631D01*
X211093Y87229D01*
X211294Y86810D01*
X211474Y86374D01*
X211633Y85920D01*
X211770Y85450D01*
X211887Y84962D01*
X211982Y84457D01*
X212056Y83935D01*
X212109Y83396D01*
X212141Y82840D01*
X212151Y82266D01*
X212151Y70008D01*
X212160Y69498D01*
X212186Y69021D01*
X212229Y68576D01*
X212289Y68163D01*
X212367Y67783D01*
X212462Y67436D01*
X212574Y67120D01*
X212704Y66838D01*
X212858Y66588D01*
X213043Y66372D01*
X213259Y66189D01*
X213506Y66039D01*
X213785Y65922D01*
X214095Y65839D01*
X214436Y65789D01*
X214808Y65773D01*
X215162Y65784D01*
X215538Y65819D01*
X215938Y65876D01*
X216360Y65957D01*
X216360Y63010D01*
X215461Y62826D01*
X215008Y62754D01*
X214552Y62695D01*
X214094Y62649D01*
X213633Y62616D01*
X213170Y62596D01*
X212704Y62590D01*
X212069Y62611D01*
X211478Y62676D01*
X210932Y62784D01*
X210432Y62935D01*
X209976Y63129D01*
X209564Y63366D01*
X209198Y63647D01*
X208876Y63971D01*
X208593Y64340D01*
X208343Y64759D01*
X208125Y65226D01*
X207939Y65743D01*
X207786Y66308D01*
X207665Y66923D01*
X207577Y67586D01*
X207521Y68298D01*
X207364Y68298D01*
X206901Y67512D01*
X206419Y66786D01*
X205919Y66120D01*
X205401Y65513D01*
X204864Y64965D01*
X204308Y64478D01*
X203734Y64050D01*
X203142Y63681D01*
X202524Y63364D01*
X201873Y63088D01*
X201190Y62856D01*
X200475Y62665D01*
X199727Y62517D01*
X198947Y62411D01*
X198134Y62348D01*
X197288Y62326D01*
G37*
%LPC*%
G36*
X198367Y65878D02*
X199009Y65896D01*
X199633Y65952D01*
X200239Y66044D01*
X200827Y66174D01*
X201396Y66340D01*
X201948Y66544D01*
X202481Y66784D01*
X202997Y67062D01*
X203490Y67371D01*
X203956Y67708D01*
X204396Y68073D01*
X204809Y68466D01*
X205195Y68885D01*
X205554Y69333D01*
X205887Y69808D01*
X206193Y70310D01*
X206467Y70828D01*
X206705Y71350D01*
X206906Y71876D01*
X207071Y72405D01*
X207199Y72938D01*
X207290Y73474D01*
X207345Y74015D01*
X207364Y74559D01*
X207364Y76900D01*
X202181Y76795D01*
X201371Y76773D01*
X200612Y76732D01*
X199903Y76674D01*
X199245Y76597D01*
X198637Y76503D01*
X198080Y76390D01*
X197573Y76260D01*
X197117Y76111D01*
X196699Y75942D01*
X196306Y75752D01*
X195938Y75541D01*
X195595Y75308D01*
X195277Y75054D01*
X194984Y74779D01*
X194716Y74482D01*
X194474Y74164D01*
X194258Y73823D01*
X194071Y73456D01*
X193913Y73063D01*
X193783Y72645D01*
X193682Y72201D01*
X193610Y71733D01*
X193567Y71238D01*
X193553Y70718D01*
X193572Y70156D01*
X193631Y69626D01*
X193729Y69130D01*
X193865Y68666D01*
X194041Y68235D01*
X194256Y67838D01*
X194510Y67473D01*
X194802Y67140D01*
X195132Y66844D01*
X195494Y66588D01*
X195889Y66371D01*
X196318Y66193D01*
X196781Y66055D01*
X197276Y65957D01*
X197805Y65897D01*
X198367Y65878D01*
G37*
%LPD*%
G36*
X323038Y62326D02*
X322511Y62335D01*
X322000Y62362D01*
X321505Y62406D01*
X321028Y62468D01*
X320567Y62547D01*
X320122Y62645D01*
X319694Y62759D01*
X319283Y62892D01*
X318889Y63042D01*
X318511Y63210D01*
X318150Y63396D01*
X317805Y63599D01*
X317477Y63820D01*
X317166Y64059D01*
X316871Y64315D01*
X316593Y64589D01*
X316332Y64878D01*
X316088Y65181D01*
X315860Y65496D01*
X315650Y65825D01*
X315456Y66167D01*
X315279Y66522D01*
X315119Y66891D01*
X314976Y67272D01*
X314849Y67667D01*
X314740Y68074D01*
X314647Y68495D01*
X314571Y68929D01*
X314512Y69376D01*
X314470Y69837D01*
X314445Y70310D01*
X314436Y70797D01*
X314448Y71341D01*
X314482Y71870D01*
X314538Y72382D01*
X314618Y72878D01*
X314720Y73359D01*
X314845Y73823D01*
X314993Y74271D01*
X315163Y74703D01*
X315356Y75120D01*
X315572Y75520D01*
X315810Y75904D01*
X316071Y76272D01*
X316355Y76624D01*
X316662Y76960D01*
X316991Y77280D01*
X317343Y77584D01*
X317720Y77871D01*
X318126Y78141D01*
X318558Y78394D01*
X319019Y78630D01*
X319508Y78848D01*
X320024Y79049D01*
X320569Y79233D01*
X321141Y79399D01*
X321741Y79548D01*
X322369Y79680D01*
X323025Y79795D01*
X323708Y79892D01*
X324420Y79972D01*
X325159Y80035D01*
X325926Y80081D01*
X326721Y80109D01*
X333114Y80215D01*
X333114Y81767D01*
X333091Y82604D01*
X333062Y82999D01*
X333022Y83380D01*
X332970Y83744D01*
X332906Y84094D01*
X332832Y84427D01*
X332745Y84746D01*
X332648Y85049D01*
X332538Y85336D01*
X332417Y85609D01*
X332285Y85865D01*
X332141Y86107D01*
X331986Y86333D01*
X331819Y86543D01*
X331641Y86739D01*
X331450Y86920D01*
X331246Y87090D01*
X331029Y87248D01*
X330799Y87395D01*
X330555Y87529D01*
X330299Y87652D01*
X330029Y87764D01*
X329746Y87863D01*
X329451Y87951D01*
X329141Y88027D01*
X328819Y88092D01*
X328484Y88144D01*
X328135Y88185D01*
X327774Y88215D01*
X327399Y88232D01*
X327011Y88238D01*
X326242Y88221D01*
X325528Y88171D01*
X324868Y88086D01*
X324262Y87968D01*
X323710Y87817D01*
X323213Y87631D01*
X322770Y87412D01*
X322381Y87159D01*
X322037Y86870D01*
X321730Y86540D01*
X321458Y86169D01*
X321223Y85759D01*
X321024Y85308D01*
X320862Y84817D01*
X320735Y84285D01*
X320645Y83713D01*
X315699Y84161D01*
X315783Y84633D01*
X315885Y85091D01*
X316005Y85533D01*
X316142Y85961D01*
X316297Y86373D01*
X316469Y86771D01*
X316659Y87154D01*
X316866Y87521D01*
X317091Y87874D01*
X317334Y88211D01*
X317594Y88534D01*
X317872Y88841D01*
X318167Y89134D01*
X318480Y89411D01*
X318810Y89674D01*
X319158Y89922D01*
X319524Y90154D01*
X319907Y90372D01*
X320308Y90574D01*
X320726Y90762D01*
X321162Y90934D01*
X321615Y91092D01*
X322086Y91234D01*
X322575Y91362D01*
X323081Y91474D01*
X323605Y91572D01*
X324146Y91654D01*
X324705Y91722D01*
X325281Y91774D01*
X325875Y91812D01*
X326487Y91834D01*
X327116Y91842D01*
X327776Y91832D01*
X328416Y91803D01*
X329035Y91755D01*
X329633Y91688D01*
X330210Y91602D01*
X330767Y91496D01*
X331303Y91371D01*
X331818Y91227D01*
X332312Y91064D01*
X332786Y90881D01*
X333239Y90679D01*
X333671Y90458D01*
X334082Y90218D01*
X334473Y89959D01*
X334843Y89680D01*
X335192Y89382D01*
X335520Y89066D01*
X335827Y88733D01*
X336113Y88383D01*
X336377Y88015D01*
X336621Y87631D01*
X336843Y87229D01*
X337044Y86810D01*
X337224Y86374D01*
X337383Y85920D01*
X337520Y85450D01*
X337637Y84962D01*
X337732Y84457D01*
X337806Y83935D01*
X337859Y83396D01*
X337891Y82840D01*
X337901Y82266D01*
X337901Y70008D01*
X337910Y69498D01*
X337936Y69021D01*
X337979Y68576D01*
X338039Y68163D01*
X338117Y67783D01*
X338212Y67436D01*
X338324Y67120D01*
X338454Y66838D01*
X338608Y66588D01*
X338793Y66372D01*
X339009Y66189D01*
X339256Y66039D01*
X339535Y65922D01*
X339845Y65839D01*
X340186Y65789D01*
X340558Y65773D01*
X340912Y65784D01*
X341288Y65819D01*
X341688Y65876D01*
X342110Y65957D01*
X342110Y63010D01*
X341211Y62826D01*
X340758Y62754D01*
X340302Y62695D01*
X339844Y62649D01*
X339383Y62616D01*
X338920Y62596D01*
X338454Y62590D01*
X337819Y62611D01*
X337228Y62676D01*
X336682Y62784D01*
X336182Y62935D01*
X335726Y63129D01*
X335314Y63366D01*
X334948Y63647D01*
X334626Y63971D01*
X334343Y64340D01*
X334093Y64759D01*
X333875Y65226D01*
X333689Y65743D01*
X333536Y66308D01*
X333415Y66923D01*
X333327Y67586D01*
X333271Y68298D01*
X333114Y68298D01*
X332651Y67512D01*
X332169Y66786D01*
X331669Y66120D01*
X331151Y65513D01*
X330614Y64965D01*
X330058Y64478D01*
X329484Y64050D01*
X328892Y63681D01*
X328274Y63364D01*
X327623Y63088D01*
X326940Y62856D01*
X326225Y62665D01*
X325477Y62517D01*
X324697Y62411D01*
X323884Y62348D01*
X323038Y62326D01*
G37*
%LPC*%
G36*
X324117Y65878D02*
X324759Y65896D01*
X325383Y65952D01*
X325989Y66044D01*
X326577Y66174D01*
X327146Y66340D01*
X327698Y66544D01*
X328231Y66784D01*
X328747Y67062D01*
X329240Y67371D01*
X329706Y67708D01*
X330146Y68073D01*
X330559Y68466D01*
X330945Y68885D01*
X331304Y69333D01*
X331637Y69808D01*
X331943Y70310D01*
X332217Y70828D01*
X332455Y71350D01*
X332656Y71876D01*
X332821Y72405D01*
X332949Y72938D01*
X333040Y73474D01*
X333095Y74015D01*
X333114Y74559D01*
X333114Y76900D01*
X327931Y76795D01*
X327121Y76773D01*
X326362Y76732D01*
X325653Y76674D01*
X324995Y76597D01*
X324387Y76503D01*
X323830Y76390D01*
X323323Y76260D01*
X322867Y76111D01*
X322449Y75942D01*
X322056Y75752D01*
X321688Y75541D01*
X321345Y75308D01*
X321027Y75054D01*
X320734Y74779D01*
X320466Y74482D01*
X320224Y74164D01*
X320008Y73823D01*
X319821Y73456D01*
X319663Y73063D01*
X319533Y72645D01*
X319432Y72201D01*
X319360Y71733D01*
X319317Y71238D01*
X319303Y70718D01*
X319322Y70156D01*
X319381Y69626D01*
X319479Y69130D01*
X319615Y68666D01*
X319791Y68235D01*
X320006Y67838D01*
X320260Y67473D01*
X320552Y67140D01*
X320882Y66844D01*
X321244Y66588D01*
X321639Y66371D01*
X322068Y66193D01*
X322531Y66055D01*
X323026Y65957D01*
X323555Y65897D01*
X324117Y65878D01*
G37*
%LPD*%
G36*
X236774Y62853D02*
X232039Y62853D01*
X232039Y85239D01*
X232030Y87483D01*
X232000Y89244D01*
X231951Y90522D01*
X231919Y90979D01*
X231882Y91316D01*
X236354Y91316D01*
X236380Y91072D01*
X236406Y90606D01*
X236472Y89277D01*
X236515Y88195D01*
X236564Y86449D01*
X236643Y86449D01*
X237059Y87159D01*
X237491Y87815D01*
X237938Y88417D01*
X238402Y88965D01*
X238882Y89459D01*
X239378Y89899D01*
X239890Y90286D01*
X240418Y90619D01*
X240970Y90905D01*
X241555Y91154D01*
X242172Y91364D01*
X242822Y91536D01*
X243504Y91670D01*
X244218Y91765D01*
X244965Y91823D01*
X245745Y91842D01*
X246320Y91833D01*
X246876Y91806D01*
X247412Y91760D01*
X247929Y91696D01*
X248426Y91615D01*
X248903Y91515D01*
X249361Y91396D01*
X249799Y91260D01*
X250218Y91105D01*
X250617Y90932D01*
X250996Y90742D01*
X251355Y90532D01*
X251695Y90305D01*
X252016Y90059D01*
X252317Y89796D01*
X252598Y89514D01*
X252860Y89211D01*
X253106Y88884D01*
X253335Y88534D01*
X253547Y88160D01*
X253742Y87762D01*
X253920Y87340D01*
X254081Y86895D01*
X254225Y86426D01*
X254352Y85933D01*
X254463Y85417D01*
X254556Y84877D01*
X254632Y84313D01*
X254692Y83725D01*
X254734Y83113D01*
X254759Y82478D01*
X254768Y81819D01*
X254768Y62853D01*
X250006Y62853D01*
X250006Y80899D01*
X249998Y81583D01*
X249972Y82227D01*
X249929Y82832D01*
X249868Y83398D01*
X249791Y83924D01*
X249696Y84410D01*
X249584Y84858D01*
X249454Y85265D01*
X249306Y85640D01*
X249137Y85987D01*
X248947Y86307D01*
X248737Y86600D01*
X248507Y86866D01*
X248255Y87105D01*
X247984Y87317D01*
X247692Y87501D01*
X247371Y87662D01*
X247016Y87801D01*
X246625Y87918D01*
X246199Y88014D01*
X245737Y88089D01*
X245240Y88143D01*
X244708Y88175D01*
X244140Y88185D01*
X243718Y88176D01*
X243308Y88149D01*
X242909Y88103D01*
X242521Y88039D01*
X242144Y87957D01*
X241779Y87856D01*
X241425Y87737D01*
X241082Y87600D01*
X240751Y87445D01*
X240431Y87271D01*
X240122Y87079D01*
X239824Y86868D01*
X239538Y86640D01*
X239263Y86393D01*
X239000Y86128D01*
X238747Y85844D01*
X238509Y85544D01*
X238285Y85230D01*
X238077Y84902D01*
X237884Y84560D01*
X237707Y84204D01*
X237545Y83833D01*
X237399Y83448D01*
X237268Y83049D01*
X237152Y82636D01*
X237052Y82209D01*
X236967Y81767D01*
X236898Y81311D01*
X236844Y80841D01*
X236805Y80357D01*
X236782Y79859D01*
X236774Y79346D01*
X236774Y62853D01*
G37*
G36*
X362556Y62853D02*
X357821Y62853D01*
X357821Y85239D01*
X357811Y87483D01*
X357781Y89244D01*
X357732Y90522D01*
X357700Y90979D01*
X357663Y91316D01*
X362135Y91316D01*
X362161Y91072D01*
X362187Y90606D01*
X362253Y89277D01*
X362296Y88195D01*
X362345Y86449D01*
X362424Y86449D01*
X362840Y87159D01*
X363272Y87815D01*
X363720Y88417D01*
X364183Y88965D01*
X364663Y89459D01*
X365159Y89899D01*
X365671Y90286D01*
X366199Y90619D01*
X366751Y90905D01*
X367336Y91154D01*
X367953Y91364D01*
X368603Y91536D01*
X369285Y91670D01*
X370000Y91765D01*
X370747Y91823D01*
X371526Y91842D01*
X372102Y91833D01*
X372658Y91806D01*
X373194Y91760D01*
X373710Y91696D01*
X374207Y91615D01*
X374685Y91515D01*
X375142Y91396D01*
X375581Y91260D01*
X375999Y91105D01*
X376398Y90932D01*
X376777Y90742D01*
X377137Y90532D01*
X377477Y90305D01*
X377797Y90059D01*
X378098Y89796D01*
X378379Y89514D01*
X378642Y89211D01*
X378888Y88884D01*
X379116Y88534D01*
X379328Y88160D01*
X379523Y87762D01*
X379701Y87340D01*
X379862Y86895D01*
X380007Y86426D01*
X380134Y85933D01*
X380244Y85417D01*
X380337Y84877D01*
X380414Y84313D01*
X380473Y83725D01*
X380515Y83113D01*
X380541Y82478D01*
X380549Y81819D01*
X380549Y62853D01*
X375788Y62853D01*
X375788Y80899D01*
X375779Y81583D01*
X375753Y82227D01*
X375710Y82832D01*
X375650Y83398D01*
X375572Y83924D01*
X375477Y84410D01*
X375365Y84858D01*
X375235Y85265D01*
X375087Y85640D01*
X374918Y85987D01*
X374728Y86307D01*
X374518Y86600D01*
X374288Y86866D01*
X374037Y87105D01*
X373765Y87317D01*
X373473Y87501D01*
X373153Y87662D01*
X372797Y87801D01*
X372406Y87918D01*
X371980Y88014D01*
X371518Y88089D01*
X371021Y88143D01*
X370489Y88175D01*
X369921Y88185D01*
X369500Y88176D01*
X369089Y88149D01*
X368690Y88103D01*
X368302Y88039D01*
X367925Y87957D01*
X367560Y87856D01*
X367206Y87737D01*
X366863Y87600D01*
X366532Y87445D01*
X366212Y87271D01*
X365903Y87079D01*
X365606Y86868D01*
X365319Y86640D01*
X365045Y86393D01*
X364781Y86128D01*
X364529Y85844D01*
X364290Y85544D01*
X364066Y85230D01*
X363858Y84902D01*
X363666Y84560D01*
X363488Y84204D01*
X363326Y83833D01*
X363180Y83448D01*
X363049Y83049D01*
X362933Y82636D01*
X362833Y82209D01*
X362748Y81767D01*
X362679Y81311D01*
X362625Y80841D01*
X362587Y80357D01*
X362563Y79859D01*
X362556Y79346D01*
X362556Y62853D01*
G37*
G36*
X302681Y62853D02*
X297946Y62853D01*
X297946Y84687D01*
X297936Y86226D01*
X297906Y87843D01*
X297857Y89540D01*
X297788Y91316D01*
X302260Y91316D01*
X302418Y87442D01*
X302457Y86230D01*
X302470Y85502D01*
X302576Y85502D01*
X302864Y86380D01*
X303162Y87186D01*
X303472Y87919D01*
X303792Y88580D01*
X304123Y89169D01*
X304465Y89685D01*
X304817Y90129D01*
X305180Y90500D01*
X305567Y90815D01*
X305992Y91087D01*
X306455Y91318D01*
X306955Y91507D01*
X307494Y91653D01*
X308070Y91758D01*
X308684Y91821D01*
X309336Y91842D01*
X309811Y91825D01*
X310290Y91776D01*
X310772Y91694D01*
X311257Y91579D01*
X311257Y87238D01*
X310744Y87353D01*
X310152Y87436D01*
X309481Y87485D01*
X308731Y87501D01*
X308368Y87491D01*
X308016Y87462D01*
X307675Y87412D01*
X307345Y87343D01*
X307026Y87253D01*
X306717Y87144D01*
X306420Y87016D01*
X306133Y86867D01*
X305858Y86698D01*
X305593Y86510D01*
X305339Y86302D01*
X305096Y86073D01*
X304864Y85826D01*
X304643Y85558D01*
X304432Y85270D01*
X304233Y84963D01*
X304045Y84637D01*
X303869Y84294D01*
X303705Y83934D01*
X303554Y83556D01*
X303414Y83162D01*
X303287Y82750D01*
X303172Y82321D01*
X303069Y81875D01*
X302978Y81412D01*
X302899Y80932D01*
X302832Y80434D01*
X302778Y79919D01*
X302735Y79388D01*
X302705Y78839D01*
X302687Y78273D01*
X302681Y77689D01*
X302681Y62853D01*
G37*
G36*
X224674Y62853D02*
X219939Y62853D01*
X219939Y91316D01*
X224674Y91316D01*
X224674Y62853D01*
G37*
G36*
X350455Y62853D02*
X345720Y62853D01*
X345720Y91316D01*
X350455Y91316D01*
X350455Y62853D01*
G37*
G36*
X224674Y97366D02*
X219939Y97366D01*
X219939Y101891D01*
X224674Y101891D01*
X224674Y97366D01*
G37*
G36*
X350455Y97366D02*
X345720Y97366D01*
X345720Y101891D01*
X350455Y101891D01*
X350455Y97366D01*
G37*
G36*
X141800Y32641D02*
X138665Y32641D01*
X134097Y48953D01*
X136780Y48953D01*
X139539Y37872D01*
X139754Y36945D01*
X140187Y34887D01*
X140444Y36003D01*
X143851Y48953D01*
X146760Y48953D01*
X149610Y37751D01*
X150303Y34887D01*
X150770Y36982D01*
X153861Y48953D01*
X159061Y48953D01*
X161820Y37872D01*
X162035Y36945D01*
X162469Y34887D01*
X162725Y36003D01*
X166132Y48953D01*
X169042Y48953D01*
X171891Y37751D01*
X172584Y34887D01*
X173052Y36982D01*
X176142Y48953D01*
X181374Y48953D01*
X184133Y37872D01*
X184348Y36945D01*
X184781Y34887D01*
X185037Y36003D01*
X188444Y48953D01*
X191354Y48953D01*
X194203Y37751D01*
X194897Y34887D01*
X195364Y36982D01*
X198455Y48953D01*
X201108Y48953D01*
X196435Y32641D01*
X193284Y32641D01*
X190434Y44174D01*
X189892Y46721D01*
X189470Y44769D01*
X189170Y43533D01*
X188557Y41100D01*
X186394Y32641D01*
X183258Y32641D01*
X178742Y48767D01*
X174122Y32641D01*
X170971Y32641D01*
X168122Y44174D01*
X167579Y46721D01*
X167157Y44769D01*
X166857Y43533D01*
X166245Y41100D01*
X164082Y32641D01*
X160946Y32641D01*
X156445Y48712D01*
X151841Y32641D01*
X148690Y32641D01*
X145841Y44174D01*
X145298Y46721D01*
X144876Y44769D01*
X144576Y43533D01*
X143964Y41100D01*
X141800Y32641D01*
G37*
G36*
X214133Y32339D02*
X213538Y32359D01*
X212981Y32420D01*
X212462Y32522D01*
X211981Y32663D01*
X211539Y32846D01*
X211134Y33068D01*
X210768Y33332D01*
X210440Y33636D01*
X210150Y33975D01*
X209899Y34344D01*
X209686Y34744D01*
X209513Y35173D01*
X209377Y35633D01*
X209281Y36123D01*
X209223Y36643D01*
X209203Y37194D01*
X209210Y37506D01*
X209230Y37808D01*
X209262Y38102D01*
X209308Y38386D01*
X209366Y38662D01*
X209438Y38928D01*
X209522Y39185D01*
X209620Y39432D01*
X209731Y39671D01*
X209854Y39900D01*
X210141Y40331D01*
X210479Y40725D01*
X210869Y41083D01*
X211086Y41248D01*
X211318Y41402D01*
X211566Y41547D01*
X211830Y41682D01*
X212406Y41923D01*
X213046Y42123D01*
X213750Y42284D01*
X214517Y42406D01*
X215349Y42488D01*
X216244Y42530D01*
X219907Y42591D01*
X219907Y43480D01*
X219894Y43960D01*
X219854Y44404D01*
X219789Y44814D01*
X219696Y45187D01*
X219577Y45526D01*
X219432Y45829D01*
X219261Y46097D01*
X219063Y46329D01*
X218837Y46531D01*
X218581Y46705D01*
X218294Y46853D01*
X217978Y46974D01*
X217631Y47068D01*
X217254Y47135D01*
X216847Y47175D01*
X216410Y47189D01*
X215969Y47179D01*
X215560Y47150D01*
X215181Y47102D01*
X214834Y47034D01*
X214518Y46947D01*
X214233Y46841D01*
X213979Y46715D01*
X213756Y46571D01*
X213559Y46405D01*
X213383Y46215D01*
X213228Y46003D01*
X213093Y45768D01*
X212979Y45509D01*
X212886Y45228D01*
X212813Y44923D01*
X212761Y44596D01*
X209927Y44852D01*
X210034Y45385D01*
X210181Y45884D01*
X210368Y46348D01*
X210596Y46778D01*
X210864Y47173D01*
X211172Y47535D01*
X211521Y47861D01*
X211910Y48154D01*
X212339Y48412D01*
X212808Y48635D01*
X213318Y48824D01*
X213868Y48979D01*
X214458Y49099D01*
X215088Y49185D01*
X215759Y49237D01*
X216470Y49254D01*
X217215Y49232D01*
X217913Y49166D01*
X218562Y49056D01*
X219165Y48902D01*
X219719Y48703D01*
X220227Y48461D01*
X220686Y48175D01*
X221098Y47845D01*
X221462Y47472D01*
X221778Y47061D01*
X222044Y46610D01*
X222263Y46120D01*
X222433Y45591D01*
X222499Y45311D01*
X222554Y45022D01*
X222596Y44723D01*
X222627Y44414D01*
X222645Y44095D01*
X222651Y43767D01*
X222651Y36741D01*
X222671Y36175D01*
X222730Y35684D01*
X222829Y35267D01*
X222893Y35087D01*
X222968Y34925D01*
X223056Y34782D01*
X223162Y34658D01*
X223286Y34553D01*
X223427Y34467D01*
X223587Y34400D01*
X223765Y34352D01*
X223960Y34324D01*
X224174Y34314D01*
X224592Y34340D01*
X225063Y34420D01*
X225063Y32731D01*
X224548Y32626D01*
X224027Y32550D01*
X223500Y32505D01*
X222968Y32490D01*
X222604Y32502D01*
X222265Y32539D01*
X221952Y32601D01*
X221665Y32688D01*
X221404Y32799D01*
X221168Y32935D01*
X220958Y33096D01*
X220774Y33281D01*
X220612Y33493D01*
X220468Y33733D01*
X220343Y34001D01*
X220237Y34297D01*
X220149Y34621D01*
X220080Y34973D01*
X220030Y35353D01*
X219998Y35761D01*
X219907Y35761D01*
X219642Y35311D01*
X219366Y34895D01*
X219079Y34513D01*
X218782Y34165D01*
X218474Y33852D01*
X218156Y33572D01*
X217827Y33327D01*
X217488Y33116D01*
X217133Y32934D01*
X216761Y32776D01*
X216369Y32642D01*
X215959Y32533D01*
X215531Y32448D01*
X215083Y32388D01*
X214618Y32351D01*
X214133Y32339D01*
G37*
%LPC*%
G36*
X214751Y34374D02*
X215119Y34385D01*
X215477Y34417D01*
X215824Y34470D01*
X216161Y34544D01*
X216487Y34639D01*
X216804Y34756D01*
X217109Y34894D01*
X217405Y35053D01*
X217687Y35230D01*
X217954Y35424D01*
X218206Y35633D01*
X218443Y35857D01*
X218664Y36098D01*
X218870Y36354D01*
X219061Y36627D01*
X219236Y36915D01*
X219394Y37212D01*
X219530Y37511D01*
X219645Y37812D01*
X219740Y38115D01*
X219813Y38420D01*
X219865Y38728D01*
X219897Y39038D01*
X219907Y39349D01*
X219907Y40691D01*
X216937Y40631D01*
X216038Y40595D01*
X215632Y40562D01*
X215254Y40518D01*
X214906Y40464D01*
X214587Y40399D01*
X214297Y40324D01*
X214035Y40239D01*
X213796Y40142D01*
X213570Y40033D01*
X213359Y39912D01*
X213163Y39779D01*
X212981Y39633D01*
X212813Y39476D01*
X212659Y39306D01*
X212520Y39123D01*
X212396Y38927D01*
X212289Y38717D01*
X212199Y38492D01*
X212124Y38253D01*
X212067Y37998D01*
X212025Y37730D01*
X212001Y37446D01*
X211992Y37148D01*
X212004Y36826D01*
X212037Y36523D01*
X212093Y36238D01*
X212172Y35972D01*
X212272Y35726D01*
X212395Y35498D01*
X212541Y35288D01*
X212709Y35098D01*
X212897Y34928D01*
X213105Y34781D01*
X213332Y34657D01*
X213577Y34555D01*
X213842Y34476D01*
X214126Y34420D01*
X214429Y34386D01*
X214751Y34374D01*
G37*
%LPD*%
G36*
X289633Y32339D02*
X289038Y32359D01*
X288481Y32420D01*
X287962Y32522D01*
X287481Y32663D01*
X287039Y32846D01*
X286634Y33068D01*
X286268Y33332D01*
X285940Y33636D01*
X285650Y33975D01*
X285399Y34344D01*
X285186Y34744D01*
X285013Y35173D01*
X284877Y35633D01*
X284781Y36123D01*
X284723Y36643D01*
X284703Y37194D01*
X284710Y37506D01*
X284730Y37808D01*
X284762Y38102D01*
X284808Y38386D01*
X284866Y38662D01*
X284938Y38928D01*
X285022Y39185D01*
X285120Y39432D01*
X285231Y39671D01*
X285354Y39900D01*
X285641Y40331D01*
X285979Y40725D01*
X286369Y41083D01*
X286586Y41248D01*
X286818Y41402D01*
X287066Y41547D01*
X287330Y41682D01*
X287906Y41923D01*
X288546Y42123D01*
X289250Y42284D01*
X290017Y42406D01*
X290849Y42488D01*
X291744Y42530D01*
X295407Y42591D01*
X295407Y43480D01*
X295394Y43960D01*
X295354Y44404D01*
X295289Y44814D01*
X295196Y45187D01*
X295077Y45526D01*
X294932Y45829D01*
X294761Y46097D01*
X294563Y46329D01*
X294337Y46531D01*
X294081Y46705D01*
X293794Y46853D01*
X293478Y46974D01*
X293131Y47068D01*
X292754Y47135D01*
X292347Y47175D01*
X291910Y47189D01*
X291469Y47179D01*
X291060Y47150D01*
X290681Y47102D01*
X290334Y47034D01*
X290018Y46947D01*
X289733Y46841D01*
X289479Y46715D01*
X289256Y46571D01*
X289059Y46405D01*
X288883Y46215D01*
X288728Y46003D01*
X288593Y45768D01*
X288479Y45509D01*
X288386Y45228D01*
X288313Y44923D01*
X288261Y44596D01*
X285427Y44852D01*
X285534Y45385D01*
X285681Y45884D01*
X285868Y46348D01*
X286096Y46778D01*
X286364Y47173D01*
X286672Y47535D01*
X287021Y47861D01*
X287410Y48154D01*
X287839Y48412D01*
X288308Y48635D01*
X288818Y48824D01*
X289368Y48979D01*
X289958Y49099D01*
X290588Y49185D01*
X291259Y49237D01*
X291970Y49254D01*
X292715Y49232D01*
X293413Y49166D01*
X294062Y49056D01*
X294665Y48902D01*
X295219Y48703D01*
X295727Y48461D01*
X296186Y48175D01*
X296598Y47845D01*
X296962Y47472D01*
X297278Y47061D01*
X297544Y46610D01*
X297763Y46120D01*
X297933Y45591D01*
X297999Y45311D01*
X298054Y45022D01*
X298096Y44723D01*
X298127Y44414D01*
X298145Y44095D01*
X298151Y43767D01*
X298151Y36741D01*
X298171Y36175D01*
X298230Y35684D01*
X298329Y35267D01*
X298393Y35087D01*
X298468Y34925D01*
X298556Y34782D01*
X298662Y34658D01*
X298786Y34553D01*
X298927Y34467D01*
X299087Y34400D01*
X299265Y34352D01*
X299460Y34324D01*
X299674Y34314D01*
X300092Y34340D01*
X300563Y34420D01*
X300563Y32731D01*
X300048Y32626D01*
X299527Y32550D01*
X299000Y32505D01*
X298468Y32490D01*
X298104Y32502D01*
X297765Y32539D01*
X297452Y32601D01*
X297165Y32688D01*
X296904Y32799D01*
X296668Y32935D01*
X296458Y33096D01*
X296274Y33281D01*
X296112Y33493D01*
X295968Y33733D01*
X295843Y34001D01*
X295737Y34297D01*
X295649Y34621D01*
X295580Y34973D01*
X295530Y35353D01*
X295498Y35761D01*
X295407Y35761D01*
X295142Y35311D01*
X294866Y34895D01*
X294579Y34513D01*
X294282Y34165D01*
X293974Y33852D01*
X293656Y33572D01*
X293327Y33327D01*
X292988Y33116D01*
X292633Y32934D01*
X292261Y32776D01*
X291869Y32642D01*
X291459Y32533D01*
X291031Y32448D01*
X290583Y32388D01*
X290118Y32351D01*
X289633Y32339D01*
G37*
%LPC*%
G36*
X290251Y34374D02*
X290619Y34385D01*
X290977Y34417D01*
X291324Y34470D01*
X291661Y34544D01*
X291987Y34639D01*
X292304Y34756D01*
X292609Y34894D01*
X292905Y35053D01*
X293187Y35230D01*
X293454Y35424D01*
X293706Y35633D01*
X293943Y35857D01*
X294164Y36098D01*
X294370Y36354D01*
X294561Y36627D01*
X294736Y36915D01*
X294894Y37212D01*
X295030Y37511D01*
X295145Y37812D01*
X295240Y38115D01*
X295313Y38420D01*
X295365Y38728D01*
X295397Y39038D01*
X295407Y39349D01*
X295407Y40691D01*
X292437Y40631D01*
X291538Y40595D01*
X291132Y40562D01*
X290754Y40518D01*
X290406Y40464D01*
X290087Y40399D01*
X289797Y40324D01*
X289535Y40239D01*
X289296Y40142D01*
X289070Y40033D01*
X288859Y39912D01*
X288663Y39779D01*
X288481Y39633D01*
X288313Y39476D01*
X288159Y39306D01*
X288020Y39123D01*
X287896Y38927D01*
X287789Y38717D01*
X287699Y38492D01*
X287624Y38253D01*
X287567Y37998D01*
X287525Y37730D01*
X287501Y37446D01*
X287492Y37148D01*
X287504Y36826D01*
X287537Y36523D01*
X287593Y36238D01*
X287672Y35972D01*
X287772Y35726D01*
X287895Y35498D01*
X288041Y35288D01*
X288209Y35098D01*
X288397Y34928D01*
X288605Y34781D01*
X288832Y34657D01*
X289077Y34555D01*
X289342Y34476D01*
X289626Y34420D01*
X289929Y34386D01*
X290251Y34374D01*
G37*
%LPD*%
G36*
X262512Y32641D02*
X259814Y32641D01*
X259814Y45470D01*
X259808Y46756D01*
X259791Y47765D01*
X259763Y48497D01*
X259723Y48953D01*
X262286Y48953D01*
X262316Y48546D01*
X262354Y47784D01*
X262407Y46164D01*
X262452Y46164D01*
X262675Y46581D01*
X262905Y46964D01*
X263144Y47315D01*
X263391Y47633D01*
X263645Y47918D01*
X263908Y48171D01*
X264179Y48390D01*
X264457Y48576D01*
X264748Y48735D01*
X265054Y48872D01*
X265375Y48989D01*
X265712Y49084D01*
X266065Y49159D01*
X266433Y49212D01*
X266817Y49243D01*
X267216Y49254D01*
X267668Y49243D01*
X268095Y49208D01*
X268498Y49150D01*
X268876Y49069D01*
X269231Y48966D01*
X269561Y48839D01*
X269867Y48689D01*
X270148Y48515D01*
X270408Y48317D01*
X270646Y48091D01*
X270864Y47838D01*
X271062Y47558D01*
X271240Y47250D01*
X271396Y46915D01*
X271533Y46553D01*
X271648Y46164D01*
X271694Y46164D01*
X271910Y46560D01*
X272138Y46928D01*
X272377Y47267D01*
X272626Y47577D01*
X272887Y47858D01*
X273159Y48111D01*
X273442Y48335D01*
X273736Y48530D01*
X274044Y48700D01*
X274367Y48847D01*
X274706Y48971D01*
X275061Y49073D01*
X275432Y49152D01*
X275818Y49209D01*
X276220Y49243D01*
X276638Y49254D01*
X277235Y49233D01*
X277790Y49170D01*
X278303Y49065D01*
X278773Y48919D01*
X279202Y48730D01*
X279588Y48499D01*
X279932Y48227D01*
X280234Y47912D01*
X280497Y47550D01*
X280725Y47134D01*
X280918Y46664D01*
X281076Y46141D01*
X281199Y45564D01*
X281287Y44933D01*
X281340Y44248D01*
X281357Y43510D01*
X281357Y32641D01*
X278674Y32641D01*
X278674Y42983D01*
X278663Y43551D01*
X278633Y44075D01*
X278582Y44552D01*
X278512Y44984D01*
X278420Y45370D01*
X278309Y45710D01*
X278177Y46005D01*
X278025Y46254D01*
X277847Y46466D01*
X277636Y46650D01*
X277393Y46805D01*
X277117Y46932D01*
X276809Y47031D01*
X276468Y47102D01*
X276094Y47144D01*
X275689Y47159D01*
X275256Y47138D01*
X274849Y47076D01*
X274466Y46973D01*
X274108Y46829D01*
X273774Y46643D01*
X273465Y46417D01*
X273181Y46149D01*
X272922Y45839D01*
X272691Y45492D01*
X272490Y45111D01*
X272320Y44694D01*
X272182Y44243D01*
X272074Y43758D01*
X271996Y43237D01*
X271950Y42683D01*
X271935Y42093D01*
X271935Y32641D01*
X269251Y32641D01*
X269251Y42983D01*
X269241Y43551D01*
X269211Y44075D01*
X269160Y44552D01*
X269089Y44984D01*
X268998Y45370D01*
X268887Y45710D01*
X268755Y46005D01*
X268603Y46254D01*
X268425Y46466D01*
X268214Y46650D01*
X267971Y46805D01*
X267695Y46932D01*
X267386Y47031D01*
X267046Y47102D01*
X266672Y47144D01*
X266266Y47159D01*
X265844Y47138D01*
X265445Y47076D01*
X265068Y46972D01*
X264714Y46827D01*
X264382Y46640D01*
X264073Y46412D01*
X263786Y46143D01*
X263523Y45832D01*
X263286Y45483D01*
X263081Y45101D01*
X262907Y44684D01*
X262765Y44234D01*
X262654Y43750D01*
X262576Y43231D01*
X262528Y42679D01*
X262512Y42093D01*
X262512Y32641D01*
G37*
G36*
X356887Y32641D02*
X354189Y32641D01*
X354189Y45470D01*
X354183Y46756D01*
X354166Y47765D01*
X354138Y48497D01*
X354098Y48953D01*
X356661Y48953D01*
X356691Y48546D01*
X356729Y47784D01*
X356782Y46164D01*
X356827Y46164D01*
X357050Y46581D01*
X357280Y46964D01*
X357519Y47315D01*
X357766Y47633D01*
X358020Y47918D01*
X358283Y48171D01*
X358554Y48390D01*
X358832Y48576D01*
X359123Y48735D01*
X359429Y48872D01*
X359750Y48989D01*
X360087Y49084D01*
X360440Y49159D01*
X360808Y49212D01*
X361192Y49243D01*
X361591Y49254D01*
X362043Y49243D01*
X362470Y49208D01*
X362873Y49150D01*
X363251Y49069D01*
X363606Y48966D01*
X363936Y48839D01*
X364242Y48689D01*
X364523Y48515D01*
X364783Y48317D01*
X365021Y48091D01*
X365239Y47838D01*
X365437Y47558D01*
X365615Y47250D01*
X365771Y46915D01*
X365908Y46553D01*
X366023Y46164D01*
X366069Y46164D01*
X366285Y46560D01*
X366513Y46928D01*
X366752Y47267D01*
X367001Y47577D01*
X367262Y47858D01*
X367534Y48111D01*
X367817Y48335D01*
X368111Y48530D01*
X368419Y48700D01*
X368742Y48847D01*
X369081Y48971D01*
X369436Y49073D01*
X369807Y49152D01*
X370193Y49209D01*
X370595Y49243D01*
X371013Y49254D01*
X371610Y49233D01*
X372165Y49170D01*
X372678Y49065D01*
X373148Y48919D01*
X373577Y48730D01*
X373963Y48499D01*
X374307Y48227D01*
X374609Y47912D01*
X374872Y47550D01*
X375100Y47134D01*
X375293Y46664D01*
X375451Y46141D01*
X375574Y45564D01*
X375662Y44933D01*
X375715Y44248D01*
X375732Y43510D01*
X375732Y32641D01*
X373049Y32641D01*
X373049Y42983D01*
X373038Y43551D01*
X373008Y44075D01*
X372957Y44552D01*
X372887Y44984D01*
X372795Y45370D01*
X372684Y45710D01*
X372552Y46005D01*
X372400Y46254D01*
X372222Y46466D01*
X372011Y46650D01*
X371768Y46805D01*
X371492Y46932D01*
X371184Y47031D01*
X370843Y47102D01*
X370469Y47144D01*
X370064Y47159D01*
X369631Y47138D01*
X369224Y47076D01*
X368841Y46973D01*
X368483Y46829D01*
X368149Y46643D01*
X367840Y46417D01*
X367556Y46149D01*
X367297Y45839D01*
X367066Y45492D01*
X366865Y45111D01*
X366695Y44694D01*
X366557Y44243D01*
X366449Y43758D01*
X366371Y43237D01*
X366325Y42683D01*
X366310Y42093D01*
X366310Y32641D01*
X363626Y32641D01*
X363626Y42983D01*
X363616Y43551D01*
X363586Y44075D01*
X363535Y44552D01*
X363464Y44984D01*
X363373Y45370D01*
X363262Y45710D01*
X363130Y46005D01*
X362978Y46254D01*
X362800Y46466D01*
X362589Y46650D01*
X362346Y46805D01*
X362070Y46932D01*
X361761Y47031D01*
X361421Y47102D01*
X361047Y47144D01*
X360641Y47159D01*
X360219Y47138D01*
X359820Y47076D01*
X359443Y46972D01*
X359089Y46827D01*
X358757Y46640D01*
X358448Y46412D01*
X358161Y46143D01*
X357898Y45832D01*
X357661Y45483D01*
X357456Y45101D01*
X357282Y44684D01*
X357140Y44234D01*
X357029Y43750D01*
X356951Y43231D01*
X356903Y42679D01*
X356887Y42093D01*
X356887Y32641D01*
G37*
G36*
X326418Y32339D02*
X325973Y32348D01*
X325541Y32373D01*
X325122Y32415D01*
X324717Y32474D01*
X324325Y32550D01*
X323947Y32642D01*
X323583Y32752D01*
X323232Y32878D01*
X322894Y33021D01*
X322570Y33181D01*
X322259Y33358D01*
X321962Y33552D01*
X321678Y33762D01*
X321408Y33990D01*
X321151Y34234D01*
X320908Y34495D01*
X320679Y34773D01*
X320465Y35067D01*
X320265Y35377D01*
X320080Y35704D01*
X319910Y36047D01*
X319755Y36407D01*
X319615Y36782D01*
X319489Y37175D01*
X319378Y37583D01*
X319282Y38008D01*
X319201Y38450D01*
X319134Y38907D01*
X319083Y39382D01*
X319046Y39872D01*
X319023Y40379D01*
X319016Y40902D01*
X319023Y41400D01*
X319046Y41883D01*
X319083Y42351D01*
X319134Y42805D01*
X319201Y43243D01*
X319282Y43667D01*
X319378Y44077D01*
X319489Y44471D01*
X319615Y44851D01*
X319755Y45216D01*
X319910Y45567D01*
X320080Y45903D01*
X320265Y46224D01*
X320465Y46530D01*
X320679Y46821D01*
X320908Y47098D01*
X321151Y47359D01*
X321406Y47604D01*
X321674Y47831D01*
X321955Y48041D01*
X322249Y48235D01*
X322555Y48412D01*
X322874Y48572D01*
X323205Y48715D01*
X323549Y48841D01*
X323906Y48951D01*
X324275Y49044D01*
X324658Y49119D01*
X325052Y49178D01*
X325460Y49220D01*
X325880Y49246D01*
X326313Y49254D01*
X326755Y49246D01*
X327183Y49220D01*
X327598Y49178D01*
X327998Y49119D01*
X328384Y49042D01*
X328756Y48949D01*
X329115Y48839D01*
X329459Y48712D01*
X329789Y48568D01*
X330105Y48408D01*
X330407Y48230D01*
X330695Y48035D01*
X330969Y47823D01*
X331228Y47595D01*
X331474Y47349D01*
X331706Y47087D01*
X331924Y46808D01*
X332127Y46511D01*
X332317Y46198D01*
X332492Y45868D01*
X332654Y45521D01*
X332801Y45157D01*
X332935Y44776D01*
X333054Y44378D01*
X333160Y43963D01*
X333251Y43532D01*
X333328Y43083D01*
X333391Y42617D01*
X333441Y42135D01*
X333476Y41635D01*
X333497Y41119D01*
X333504Y40586D01*
X333504Y40224D01*
X321865Y40224D01*
X321883Y39543D01*
X321938Y38902D01*
X322029Y38301D01*
X322156Y37740D01*
X322319Y37219D01*
X322518Y36738D01*
X322754Y36298D01*
X323026Y35897D01*
X323333Y35540D01*
X323673Y35231D01*
X324047Y34969D01*
X324455Y34755D01*
X324895Y34589D01*
X325369Y34470D01*
X325877Y34398D01*
X326143Y34380D01*
X326418Y34374D01*
X326848Y34385D01*
X327256Y34419D01*
X327642Y34474D01*
X328007Y34552D01*
X328349Y34651D01*
X328670Y34773D01*
X328968Y34917D01*
X329245Y35083D01*
X329500Y35266D01*
X329733Y35461D01*
X329946Y35667D01*
X330136Y35886D01*
X330305Y36116D01*
X330453Y36358D01*
X330580Y36611D01*
X330685Y36877D01*
X333067Y36199D01*
X332869Y35731D01*
X332643Y35294D01*
X332387Y34887D01*
X332103Y34510D01*
X331789Y34163D01*
X331446Y33847D01*
X331074Y33560D01*
X330673Y33304D01*
X330243Y33078D01*
X329784Y32882D01*
X329296Y32716D01*
X328778Y32580D01*
X328232Y32475D01*
X327656Y32400D01*
X327052Y32354D01*
X326418Y32339D01*
G37*
%LPC*%
G36*
X330700Y42304D02*
X330630Y42927D01*
X330533Y43506D01*
X330409Y44042D01*
X330259Y44534D01*
X330081Y44982D01*
X329877Y45387D01*
X329646Y45748D01*
X329388Y46066D01*
X329102Y46343D01*
X328786Y46583D01*
X328440Y46787D01*
X328065Y46953D01*
X327660Y47083D01*
X327226Y47175D01*
X326761Y47231D01*
X326267Y47249D01*
X325787Y47228D01*
X325331Y47167D01*
X324902Y47064D01*
X324498Y46919D01*
X324120Y46734D01*
X323767Y46507D01*
X323440Y46239D01*
X323139Y45930D01*
X322867Y45585D01*
X322629Y45209D01*
X322424Y44802D01*
X322252Y44364D01*
X322113Y43895D01*
X322007Y43396D01*
X321935Y42865D01*
X321895Y42304D01*
X330700Y42304D01*
G37*
%LPD*%
G36*
X386481Y32339D02*
X386035Y32348D01*
X385603Y32373D01*
X385185Y32415D01*
X384779Y32474D01*
X384388Y32550D01*
X384010Y32642D01*
X383645Y32752D01*
X383294Y32878D01*
X382956Y33021D01*
X382632Y33181D01*
X382322Y33358D01*
X382024Y33552D01*
X381741Y33762D01*
X381470Y33990D01*
X381214Y34234D01*
X380970Y34495D01*
X380741Y34773D01*
X380527Y35067D01*
X380328Y35377D01*
X380143Y35704D01*
X379973Y36047D01*
X379818Y36407D01*
X379677Y36782D01*
X379551Y37175D01*
X379441Y37583D01*
X379345Y38008D01*
X379263Y38450D01*
X379197Y38907D01*
X379145Y39382D01*
X379108Y39872D01*
X379086Y40379D01*
X379078Y40902D01*
X379086Y41400D01*
X379108Y41883D01*
X379145Y42351D01*
X379197Y42805D01*
X379263Y43243D01*
X379345Y43667D01*
X379441Y44077D01*
X379551Y44471D01*
X379677Y44851D01*
X379818Y45216D01*
X379973Y45567D01*
X380143Y45903D01*
X380328Y46224D01*
X380527Y46530D01*
X380741Y46821D01*
X380970Y47098D01*
X381213Y47359D01*
X381469Y47604D01*
X381737Y47831D01*
X382018Y48041D01*
X382311Y48235D01*
X382617Y48412D01*
X382936Y48572D01*
X383268Y48715D01*
X383612Y48841D01*
X383969Y48951D01*
X384338Y49044D01*
X384720Y49119D01*
X385115Y49178D01*
X385522Y49220D01*
X385942Y49246D01*
X386375Y49254D01*
X386818Y49246D01*
X387246Y49220D01*
X387660Y49178D01*
X388061Y49119D01*
X388447Y49042D01*
X388819Y48949D01*
X389177Y48839D01*
X389521Y48712D01*
X389851Y48568D01*
X390167Y48408D01*
X390469Y48230D01*
X390757Y48035D01*
X391031Y47823D01*
X391291Y47595D01*
X391537Y47349D01*
X391768Y47087D01*
X391986Y46808D01*
X392190Y46511D01*
X392379Y46198D01*
X392555Y45868D01*
X392716Y45521D01*
X392864Y45157D01*
X392997Y44776D01*
X393117Y44378D01*
X393222Y43963D01*
X393313Y43532D01*
X393391Y43083D01*
X393454Y42617D01*
X393503Y42135D01*
X393538Y41635D01*
X393559Y41119D01*
X393566Y40586D01*
X393566Y40224D01*
X381928Y40224D01*
X381946Y39543D01*
X382000Y38902D01*
X382091Y38301D01*
X382218Y37740D01*
X382381Y37219D01*
X382581Y36738D01*
X382817Y36298D01*
X383089Y35897D01*
X383396Y35540D01*
X383736Y35231D01*
X384110Y34969D01*
X384517Y34755D01*
X384958Y34589D01*
X385432Y34470D01*
X385940Y34398D01*
X386206Y34380D01*
X386481Y34374D01*
X386911Y34385D01*
X387319Y34419D01*
X387705Y34474D01*
X388069Y34552D01*
X388412Y34651D01*
X388732Y34773D01*
X389031Y34917D01*
X389307Y35083D01*
X389562Y35266D01*
X389796Y35461D01*
X390008Y35667D01*
X390199Y35886D01*
X390368Y36116D01*
X390516Y36358D01*
X390642Y36611D01*
X390747Y36877D01*
X393129Y36199D01*
X392932Y35731D01*
X392705Y35294D01*
X392450Y34887D01*
X392165Y34510D01*
X391851Y34163D01*
X391509Y33847D01*
X391137Y33560D01*
X390736Y33304D01*
X390306Y33078D01*
X389847Y32882D01*
X389358Y32716D01*
X388841Y32580D01*
X388295Y32475D01*
X387719Y32400D01*
X387114Y32354D01*
X386481Y32339D01*
G37*
%LPC*%
G36*
X390762Y42304D02*
X390692Y42927D01*
X390595Y43506D01*
X390472Y44042D01*
X390321Y44534D01*
X390144Y44982D01*
X389940Y45387D01*
X389708Y45748D01*
X389451Y46066D01*
X389164Y46343D01*
X388848Y46583D01*
X388503Y46787D01*
X388128Y46953D01*
X387723Y47083D01*
X387288Y47175D01*
X386824Y47231D01*
X386330Y47249D01*
X385849Y47228D01*
X385394Y47167D01*
X384964Y47064D01*
X384560Y46919D01*
X384182Y46734D01*
X383830Y46507D01*
X383503Y46239D01*
X383202Y45930D01*
X382930Y45585D01*
X382691Y45209D01*
X382486Y44802D01*
X382314Y44364D01*
X382175Y43895D01*
X382070Y43396D01*
X381997Y42865D01*
X381958Y42304D01*
X390762Y42304D01*
G37*
%LPD*%
G36*
X229903Y32641D02*
X227189Y32641D01*
X227189Y45470D01*
X227183Y46756D01*
X227166Y47765D01*
X227138Y48497D01*
X227098Y48953D01*
X229661Y48953D01*
X229691Y48546D01*
X229729Y47784D01*
X229782Y46164D01*
X229827Y46164D01*
X230065Y46570D01*
X230313Y46946D01*
X230570Y47291D01*
X230835Y47605D01*
X231110Y47888D01*
X231395Y48141D01*
X231688Y48362D01*
X231991Y48553D01*
X232307Y48717D01*
X232642Y48860D01*
X232996Y48980D01*
X233368Y49079D01*
X233759Y49156D01*
X234168Y49210D01*
X234597Y49243D01*
X235043Y49254D01*
X235692Y49233D01*
X236295Y49171D01*
X236853Y49066D01*
X237367Y48921D01*
X237835Y48733D01*
X238259Y48504D01*
X238637Y48233D01*
X238971Y47920D01*
X239262Y47559D01*
X239515Y47144D01*
X239728Y46674D01*
X239903Y46150D01*
X240039Y45572D01*
X240137Y44939D01*
X240195Y44252D01*
X240214Y43510D01*
X240214Y32641D01*
X237486Y32641D01*
X237486Y42983D01*
X237466Y43744D01*
X237406Y44415D01*
X237362Y44716D01*
X237308Y44995D01*
X237243Y45251D01*
X237169Y45485D01*
X237084Y45700D01*
X236987Y45899D01*
X236879Y46082D01*
X236758Y46250D01*
X236626Y46403D01*
X236482Y46540D01*
X236326Y46661D01*
X236159Y46767D01*
X235975Y46858D01*
X235772Y46938D01*
X235548Y47005D01*
X235303Y47061D01*
X235039Y47103D01*
X234754Y47134D01*
X234449Y47152D01*
X234124Y47159D01*
X233647Y47138D01*
X233196Y47075D01*
X232770Y46970D01*
X232371Y46823D01*
X231998Y46634D01*
X231650Y46404D01*
X231329Y46131D01*
X231033Y45817D01*
X230768Y45465D01*
X230539Y45081D01*
X230344Y44664D01*
X230185Y44215D01*
X230062Y43733D01*
X229973Y43219D01*
X229920Y42672D01*
X229903Y42093D01*
X229903Y32641D01*
G37*
G36*
X247844Y32400D02*
X247449Y32414D01*
X247081Y32457D01*
X246737Y32529D01*
X246419Y32630D01*
X246127Y32760D01*
X245859Y32919D01*
X245618Y33106D01*
X245402Y33323D01*
X245211Y33568D01*
X245045Y33842D01*
X244905Y34145D01*
X244791Y34477D01*
X244702Y34838D01*
X244638Y35227D01*
X244600Y35646D01*
X244587Y36093D01*
X244587Y46978D01*
X242703Y46978D01*
X242703Y48953D01*
X244693Y48953D01*
X245492Y52601D01*
X247301Y52601D01*
X247301Y48953D01*
X250316Y48953D01*
X250316Y46978D01*
X247301Y46978D01*
X247301Y36681D01*
X247307Y36398D01*
X247325Y36137D01*
X247355Y35898D01*
X247397Y35680D01*
X247451Y35485D01*
X247517Y35311D01*
X247595Y35160D01*
X247686Y35030D01*
X247790Y34919D01*
X247913Y34822D01*
X248053Y34741D01*
X248211Y34674D01*
X248387Y34622D01*
X248580Y34585D01*
X248791Y34563D01*
X249020Y34555D01*
X249321Y34568D01*
X249683Y34608D01*
X250105Y34674D01*
X250588Y34766D01*
X250588Y32761D01*
X249913Y32603D01*
X249231Y32490D01*
X248541Y32422D01*
X247844Y32400D01*
G37*
G36*
X306156Y32400D02*
X305762Y32414D01*
X305393Y32457D01*
X305050Y32529D01*
X304732Y32630D01*
X304439Y32760D01*
X304172Y32919D01*
X303930Y33106D01*
X303714Y33323D01*
X303523Y33568D01*
X303358Y33842D01*
X303218Y34145D01*
X303103Y34477D01*
X303014Y34838D01*
X302951Y35227D01*
X302913Y35646D01*
X302900Y36093D01*
X302900Y46978D01*
X301016Y46978D01*
X301016Y48953D01*
X303005Y48953D01*
X303805Y52601D01*
X305614Y52601D01*
X305614Y48953D01*
X308629Y48953D01*
X308629Y46978D01*
X305614Y46978D01*
X305614Y36681D01*
X305620Y36398D01*
X305638Y36137D01*
X305668Y35898D01*
X305710Y35680D01*
X305764Y35485D01*
X305830Y35311D01*
X305908Y35160D01*
X305998Y35030D01*
X306103Y34919D01*
X306226Y34822D01*
X306366Y34741D01*
X306524Y34674D01*
X306699Y34622D01*
X306893Y34585D01*
X307104Y34563D01*
X307332Y34555D01*
X307634Y34568D01*
X307996Y34608D01*
X308418Y34674D01*
X308900Y34766D01*
X308900Y32761D01*
X308225Y32603D01*
X307543Y32490D01*
X306854Y32422D01*
X306156Y32400D01*
G37*
G36*
X314750Y32400D02*
X314356Y32414D01*
X313987Y32457D01*
X313643Y32529D01*
X313325Y32630D01*
X313033Y32760D01*
X312766Y32919D01*
X312524Y33106D01*
X312308Y33323D01*
X312117Y33568D01*
X311952Y33842D01*
X311812Y34145D01*
X311697Y34477D01*
X311608Y34838D01*
X311545Y35227D01*
X311506Y35646D01*
X311494Y36093D01*
X311494Y46978D01*
X309609Y46978D01*
X309609Y48953D01*
X311599Y48953D01*
X312398Y52601D01*
X314207Y52601D01*
X314207Y48953D01*
X317222Y48953D01*
X317222Y46978D01*
X314207Y46978D01*
X314207Y36681D01*
X314213Y36398D01*
X314231Y36137D01*
X314261Y35898D01*
X314303Y35680D01*
X314358Y35485D01*
X314424Y35311D01*
X314502Y35160D01*
X314592Y35030D01*
X314697Y34919D01*
X314819Y34822D01*
X314960Y34741D01*
X315118Y34674D01*
X315293Y34622D01*
X315486Y34585D01*
X315697Y34563D01*
X315926Y34555D01*
X316227Y34568D01*
X316589Y34608D01*
X317011Y34674D01*
X317494Y34766D01*
X317494Y32761D01*
X316819Y32603D01*
X316137Y32490D01*
X315447Y32422D01*
X314750Y32400D01*
G37*
G36*
X339746Y32641D02*
X337033Y32641D01*
X337033Y45154D01*
X337010Y46963D01*
X336942Y48953D01*
X339505Y48953D01*
X339596Y46733D01*
X339626Y45621D01*
X339686Y45621D01*
X339851Y46124D01*
X340022Y46586D01*
X340200Y47006D01*
X340383Y47385D01*
X340573Y47722D01*
X340769Y48018D01*
X340970Y48272D01*
X341178Y48485D01*
X341400Y48665D01*
X341644Y48822D01*
X341909Y48954D01*
X342196Y49062D01*
X342505Y49146D01*
X342835Y49206D01*
X343187Y49242D01*
X343560Y49254D01*
X343833Y49245D01*
X344107Y49216D01*
X344383Y49169D01*
X344661Y49103D01*
X344661Y46616D01*
X344367Y46682D01*
X344028Y46729D01*
X343643Y46757D01*
X343214Y46767D01*
X342804Y46744D01*
X342419Y46676D01*
X342060Y46562D01*
X341725Y46403D01*
X341415Y46198D01*
X341130Y45948D01*
X340871Y45653D01*
X340636Y45312D01*
X340427Y44928D01*
X340247Y44506D01*
X340094Y44044D01*
X339969Y43542D01*
X339871Y43002D01*
X339802Y42422D01*
X339760Y41802D01*
X339746Y41143D01*
X339746Y32641D01*
G37*
G36*
X255577Y32641D02*
X252864Y32641D01*
X252864Y48953D01*
X255577Y48953D01*
X255577Y32641D01*
G37*
G36*
X205057Y32641D02*
X202117Y32641D01*
X202117Y35942D01*
X205057Y35942D01*
X205057Y32641D01*
G37*
G36*
X349213Y32641D02*
X346274Y32641D01*
X346274Y35942D01*
X349213Y35942D01*
X349213Y32641D01*
G37*
G36*
X255577Y52420D02*
X252864Y52420D01*
X252864Y55013D01*
X255577Y55013D01*
X255577Y52420D01*
G37*
G36*
X570678Y135323D02*
X568134Y135323D01*
X568134Y154092D01*
X576033Y154092D01*
X576800Y154069D01*
X577523Y154000D01*
X578201Y153884D01*
X578834Y153723D01*
X579423Y153515D01*
X579967Y153261D01*
X580467Y152960D01*
X580922Y152614D01*
X581328Y152225D01*
X581680Y151799D01*
X581835Y151571D01*
X581977Y151334D01*
X582106Y151088D01*
X582221Y150832D01*
X582322Y150567D01*
X582410Y150292D01*
X582485Y150008D01*
X582546Y149714D01*
X582593Y149411D01*
X582627Y149098D01*
X582647Y148776D01*
X582654Y148444D01*
X582647Y148115D01*
X582627Y147795D01*
X582593Y147484D01*
X582545Y147180D01*
X582484Y146886D01*
X582409Y146600D01*
X582321Y146322D01*
X582219Y146053D01*
X582104Y145793D01*
X581975Y145541D01*
X581676Y145062D01*
X581323Y144618D01*
X580915Y144208D01*
X580461Y143840D01*
X579968Y143520D01*
X579436Y143250D01*
X578866Y143029D01*
X578566Y142937D01*
X578256Y142857D01*
X577936Y142790D01*
X577607Y142735D01*
X577268Y142692D01*
X576920Y142661D01*
X576561Y142642D01*
X576193Y142636D01*
X570678Y142636D01*
X570678Y135323D01*
G37*
%LPC*%
G36*
X575833Y144648D02*
X576350Y144662D01*
X576833Y144707D01*
X577282Y144780D01*
X577698Y144883D01*
X578081Y145016D01*
X578431Y145178D01*
X578747Y145369D01*
X579030Y145590D01*
X579280Y145841D01*
X579497Y146120D01*
X579680Y146430D01*
X579830Y146768D01*
X579946Y147136D01*
X580030Y147534D01*
X580080Y147961D01*
X580096Y148418D01*
X580079Y148858D01*
X580028Y149270D01*
X579943Y149653D01*
X579823Y150009D01*
X579669Y150335D01*
X579482Y150634D01*
X579260Y150904D01*
X579004Y151145D01*
X578714Y151358D01*
X578389Y151543D01*
X578031Y151699D01*
X577638Y151827D01*
X577212Y151926D01*
X576751Y151997D01*
X576256Y152040D01*
X575727Y152054D01*
X570678Y152054D01*
X570678Y144648D01*
X575833Y144648D01*
G37*
%LPD*%
G36*
X556869Y135057D02*
X556034Y135075D01*
X555244Y135131D01*
X554499Y135224D01*
X553799Y135355D01*
X553144Y135522D01*
X552535Y135727D01*
X551970Y135969D01*
X551450Y136249D01*
X550976Y136566D01*
X550547Y136920D01*
X550162Y137311D01*
X549823Y137739D01*
X549529Y138205D01*
X549279Y138708D01*
X549075Y139248D01*
X548916Y139826D01*
X551381Y140318D01*
X551502Y139910D01*
X551654Y139529D01*
X551835Y139176D01*
X552047Y138851D01*
X552288Y138555D01*
X552559Y138287D01*
X552861Y138046D01*
X553192Y137834D01*
X553554Y137648D01*
X553947Y137487D01*
X554372Y137351D01*
X554827Y137240D01*
X555314Y137153D01*
X555832Y137091D01*
X556381Y137054D01*
X556962Y137041D01*
X557561Y137055D01*
X558124Y137094D01*
X558652Y137160D01*
X559145Y137253D01*
X559603Y137372D01*
X560025Y137517D01*
X560413Y137689D01*
X560765Y137887D01*
X561079Y138111D01*
X561351Y138360D01*
X561581Y138633D01*
X561769Y138931D01*
X561916Y139254D01*
X562020Y139602D01*
X562083Y139974D01*
X562104Y140372D01*
X562097Y140596D01*
X562078Y140810D01*
X562045Y141012D01*
X561999Y141204D01*
X561940Y141385D01*
X561868Y141556D01*
X561783Y141715D01*
X561684Y141864D01*
X561453Y142138D01*
X561180Y142387D01*
X560864Y142610D01*
X560505Y142809D01*
X560107Y142988D01*
X559673Y143152D01*
X559202Y143301D01*
X558694Y143436D01*
X556363Y143982D01*
X555317Y144228D01*
X554406Y144475D01*
X553629Y144721D01*
X552986Y144967D01*
X552440Y145221D01*
X551955Y145489D01*
X551531Y145770D01*
X551167Y146066D01*
X550854Y146382D01*
X550580Y146724D01*
X550344Y147092D01*
X550148Y147485D01*
X549994Y147906D01*
X549884Y148358D01*
X549817Y148839D01*
X549795Y149350D01*
X549803Y149647D01*
X549824Y149936D01*
X549860Y150215D01*
X549911Y150486D01*
X549976Y150749D01*
X550055Y151003D01*
X550148Y151248D01*
X550257Y151485D01*
X550379Y151713D01*
X550516Y151932D01*
X550667Y152143D01*
X550833Y152345D01*
X551208Y152723D01*
X551640Y153067D01*
X552126Y153373D01*
X552662Y153638D01*
X553248Y153862D01*
X553883Y154046D01*
X554568Y154188D01*
X555303Y154290D01*
X556088Y154352D01*
X556922Y154372D01*
X557698Y154357D01*
X558426Y154311D01*
X559108Y154234D01*
X559743Y154127D01*
X560330Y153990D01*
X560871Y153821D01*
X561364Y153622D01*
X561811Y153393D01*
X562218Y153127D01*
X562593Y152817D01*
X562937Y152465D01*
X563249Y152069D01*
X563530Y151631D01*
X563779Y151149D01*
X563996Y150624D01*
X564182Y150056D01*
X561678Y149616D01*
X561563Y149977D01*
X561425Y150311D01*
X561263Y150620D01*
X561078Y150904D01*
X560870Y151161D01*
X560639Y151394D01*
X560384Y151600D01*
X560106Y151781D01*
X559802Y151939D01*
X559470Y152075D01*
X559111Y152191D01*
X558724Y152286D01*
X558308Y152359D01*
X557865Y152412D01*
X557394Y152443D01*
X556895Y152454D01*
X556349Y152442D01*
X555836Y152407D01*
X555357Y152349D01*
X554911Y152267D01*
X554498Y152162D01*
X554118Y152034D01*
X553772Y151883D01*
X553459Y151708D01*
X553181Y151510D01*
X552940Y151289D01*
X552736Y151045D01*
X552569Y150779D01*
X552440Y150489D01*
X552347Y150177D01*
X552292Y149841D01*
X552273Y149483D01*
X552280Y149271D01*
X552302Y149069D01*
X552338Y148876D01*
X552388Y148692D01*
X552453Y148518D01*
X552532Y148353D01*
X552625Y148197D01*
X552733Y148051D01*
X552988Y147779D01*
X553294Y147528D01*
X553650Y147299D01*
X554058Y147092D01*
X554598Y146884D01*
X555353Y146654D01*
X556323Y146402D01*
X557508Y146126D01*
X559233Y145720D01*
X560074Y145494D01*
X560878Y145227D01*
X561265Y145078D01*
X561639Y144916D01*
X562001Y144741D01*
X562350Y144554D01*
X562682Y144351D01*
X562991Y144125D01*
X563278Y143878D01*
X563543Y143609D01*
X563782Y143316D01*
X563994Y142999D01*
X564178Y142657D01*
X564335Y142290D01*
X564460Y141894D01*
X564550Y141464D01*
X564604Y141001D01*
X564622Y140505D01*
X564614Y140185D01*
X564590Y139874D01*
X564550Y139572D01*
X564495Y139279D01*
X564423Y138996D01*
X564336Y138722D01*
X564233Y138456D01*
X564114Y138200D01*
X563979Y137954D01*
X563828Y137716D01*
X563661Y137487D01*
X563479Y137268D01*
X563280Y137058D01*
X563066Y136857D01*
X562836Y136665D01*
X562590Y136482D01*
X562330Y136309D01*
X562056Y136148D01*
X561770Y135998D01*
X561471Y135858D01*
X560833Y135613D01*
X560144Y135413D01*
X559403Y135257D01*
X558610Y135146D01*
X557765Y135079D01*
X556869Y135057D01*
G37*
G36*
X538527Y135057D02*
X537829Y135075D01*
X537156Y135130D01*
X536506Y135222D01*
X535881Y135351D01*
X535279Y135517D01*
X534701Y135720D01*
X534148Y135959D01*
X533618Y136236D01*
X533115Y136546D01*
X532644Y136888D01*
X532203Y137262D01*
X531793Y137668D01*
X531414Y138105D01*
X531065Y138573D01*
X530748Y139074D01*
X530461Y139606D01*
X530206Y140166D01*
X529986Y140752D01*
X529799Y141363D01*
X529647Y141999D01*
X529528Y142660D01*
X529443Y143346D01*
X529392Y144058D01*
X529375Y144794D01*
X529385Y145348D01*
X529413Y145886D01*
X529460Y146409D01*
X529527Y146917D01*
X529612Y147410D01*
X529716Y147888D01*
X529839Y148350D01*
X529981Y148797D01*
X530142Y149229D01*
X530322Y149646D01*
X530521Y150048D01*
X530739Y150434D01*
X530976Y150805D01*
X531231Y151161D01*
X531506Y151502D01*
X531800Y151828D01*
X532110Y152136D01*
X532435Y152424D01*
X532774Y152692D01*
X533128Y152941D01*
X533497Y153169D01*
X533880Y153378D01*
X534278Y153567D01*
X534690Y153736D01*
X535117Y153885D01*
X535559Y154014D01*
X536015Y154124D01*
X536485Y154213D01*
X536970Y154283D01*
X537470Y154332D01*
X537984Y154362D01*
X538513Y154372D01*
X539247Y154354D01*
X539950Y154299D01*
X540623Y154207D01*
X541264Y154079D01*
X541875Y153914D01*
X542455Y153713D01*
X543004Y153475D01*
X543522Y153200D01*
X544008Y152889D01*
X544461Y152543D01*
X544881Y152161D01*
X545267Y151744D01*
X545620Y151292D01*
X545940Y150805D01*
X546226Y150281D01*
X546479Y149723D01*
X544068Y148924D01*
X543893Y149321D01*
X543692Y149695D01*
X543467Y150044D01*
X543217Y150369D01*
X542943Y150670D01*
X542643Y150947D01*
X542319Y151200D01*
X541970Y151428D01*
X541600Y151631D01*
X541214Y151807D01*
X540810Y151956D01*
X540390Y152077D01*
X539953Y152172D01*
X539499Y152240D01*
X539028Y152280D01*
X538540Y152294D01*
X538156Y152286D01*
X537782Y152263D01*
X537420Y152223D01*
X537068Y152169D01*
X536727Y152098D01*
X536397Y152012D01*
X536078Y151910D01*
X535769Y151793D01*
X535472Y151660D01*
X535185Y151511D01*
X534909Y151346D01*
X534644Y151166D01*
X534389Y150970D01*
X534146Y150759D01*
X533913Y150532D01*
X533691Y150289D01*
X533481Y150033D01*
X533285Y149765D01*
X533103Y149485D01*
X532934Y149194D01*
X532778Y148891D01*
X532636Y148577D01*
X532507Y148251D01*
X532392Y147913D01*
X532291Y147564D01*
X532203Y147203D01*
X532129Y146831D01*
X532068Y146446D01*
X532020Y146051D01*
X531987Y145644D01*
X531966Y145225D01*
X531959Y144794D01*
X531966Y144368D01*
X531988Y143953D01*
X532023Y143548D01*
X532072Y143154D01*
X532136Y142770D01*
X532213Y142397D01*
X532305Y142034D01*
X532411Y141682D01*
X532531Y141341D01*
X532665Y141010D01*
X532813Y140689D01*
X532975Y140380D01*
X533151Y140080D01*
X533341Y139792D01*
X533546Y139514D01*
X533764Y139246D01*
X533995Y138992D01*
X534236Y138754D01*
X534486Y138533D01*
X534746Y138328D01*
X535017Y138140D01*
X535297Y137968D01*
X535587Y137812D01*
X535887Y137673D01*
X536198Y137550D01*
X536518Y137443D01*
X536848Y137353D01*
X537187Y137279D01*
X537537Y137222D01*
X537897Y137181D01*
X538267Y137156D01*
X538647Y137148D01*
X539132Y137163D01*
X539602Y137209D01*
X540056Y137285D01*
X540496Y137392D01*
X540920Y137529D01*
X541328Y137697D01*
X541722Y137895D01*
X542100Y138124D01*
X542463Y138383D01*
X542810Y138673D01*
X543143Y138993D01*
X543460Y139344D01*
X543761Y139725D01*
X544048Y140136D01*
X544319Y140578D01*
X544574Y141051D01*
X546652Y140012D01*
X546348Y139424D01*
X546014Y138872D01*
X545651Y138357D01*
X545259Y137877D01*
X544837Y137434D01*
X544386Y137027D01*
X543905Y136657D01*
X543395Y136322D01*
X542860Y136026D01*
X542304Y135769D01*
X541727Y135551D01*
X541129Y135373D01*
X540510Y135235D01*
X539870Y135136D01*
X539209Y135076D01*
X538527Y135057D01*
G37*
G36*
X525489Y135323D02*
X522945Y135323D01*
X522945Y154092D01*
X525489Y154092D01*
X525489Y135323D01*
G37*
G36*
X397335Y176216D02*
X396866Y176238D01*
X396428Y176304D01*
X396021Y176415D01*
X395644Y176569D01*
X395303Y176765D01*
X395003Y177002D01*
X394743Y177278D01*
X394524Y177594D01*
X394350Y177946D01*
X394226Y178330D01*
X394183Y178534D01*
X394152Y178747D01*
X394133Y178967D01*
X394127Y179195D01*
X394127Y184218D01*
X395196Y184218D01*
X395196Y179285D01*
X395205Y179023D01*
X395231Y178777D01*
X395273Y178548D01*
X395333Y178334D01*
X395411Y178137D01*
X395505Y177957D01*
X395616Y177792D01*
X395745Y177644D01*
X395890Y177513D01*
X396050Y177399D01*
X396225Y177303D01*
X396416Y177224D01*
X396621Y177163D01*
X396842Y177119D01*
X397079Y177093D01*
X397330Y177084D01*
X397588Y177093D01*
X397832Y177120D01*
X398061Y177166D01*
X398276Y177229D01*
X398475Y177311D01*
X398660Y177410D01*
X398830Y177528D01*
X398985Y177664D01*
X399123Y177817D01*
X399243Y177987D01*
X399345Y178174D01*
X399428Y178377D01*
X399492Y178597D01*
X399539Y178834D01*
X399566Y179087D01*
X399575Y179358D01*
X399575Y184218D01*
X400639Y184218D01*
X400639Y179296D01*
X400633Y179061D01*
X400614Y178834D01*
X400582Y178615D01*
X400538Y178404D01*
X400411Y178008D01*
X400233Y177644D01*
X400009Y177317D01*
X399743Y177032D01*
X399435Y176787D01*
X399085Y176583D01*
X398698Y176422D01*
X398277Y176308D01*
X397823Y176239D01*
X397335Y176216D01*
G37*
G36*
X404620Y176216D02*
X404351Y176224D01*
X404095Y176246D01*
X403852Y176284D01*
X403623Y176337D01*
X403407Y176404D01*
X403205Y176487D01*
X403015Y176585D01*
X402839Y176698D01*
X402678Y176825D01*
X402532Y176965D01*
X402401Y177120D01*
X402286Y177287D01*
X402187Y177468D01*
X402103Y177663D01*
X402035Y177871D01*
X401982Y178092D01*
X403002Y178210D01*
X403097Y177935D01*
X403224Y177698D01*
X403382Y177497D01*
X403571Y177332D01*
X403792Y177204D01*
X404044Y177112D01*
X404328Y177058D01*
X404642Y177039D01*
X404840Y177047D01*
X405026Y177070D01*
X405202Y177108D01*
X405366Y177162D01*
X405520Y177231D01*
X405662Y177315D01*
X405793Y177414D01*
X405914Y177529D01*
X406021Y177658D01*
X406114Y177797D01*
X406193Y177948D01*
X406258Y178111D01*
X406308Y178285D01*
X406344Y178471D01*
X406366Y178668D01*
X406373Y178876D01*
X406366Y179058D01*
X406344Y179231D01*
X406308Y179395D01*
X406257Y179550D01*
X406192Y179696D01*
X406113Y179833D01*
X406019Y179961D01*
X405911Y180080D01*
X405790Y180188D01*
X405660Y180281D01*
X405519Y180360D01*
X405368Y180425D01*
X405207Y180475D01*
X405037Y180511D01*
X404856Y180532D01*
X404665Y180539D01*
X404464Y180531D01*
X404270Y180507D01*
X404083Y180467D01*
X403903Y180411D01*
X403727Y180335D01*
X403550Y180237D01*
X403374Y180117D01*
X403198Y179974D01*
X402212Y179974D01*
X402475Y184218D01*
X406961Y184218D01*
X406961Y183362D01*
X403394Y183362D01*
X403242Y180859D01*
X403411Y180977D01*
X403590Y181079D01*
X403779Y181166D01*
X403977Y181237D01*
X404186Y181292D01*
X404405Y181331D01*
X404633Y181355D01*
X404872Y181363D01*
X405156Y181352D01*
X405425Y181320D01*
X405679Y181266D01*
X405918Y181192D01*
X406143Y181096D01*
X406353Y180978D01*
X406548Y180839D01*
X406728Y180679D01*
X406890Y180502D01*
X407031Y180312D01*
X407150Y180109D01*
X407247Y179893D01*
X407323Y179663D01*
X407377Y179421D01*
X407409Y179166D01*
X407420Y178899D01*
X407408Y178595D01*
X407374Y178307D01*
X407316Y178037D01*
X407234Y177783D01*
X407130Y177545D01*
X407003Y177325D01*
X406852Y177120D01*
X406678Y176933D01*
X406483Y176765D01*
X406271Y176619D01*
X406041Y176496D01*
X405792Y176395D01*
X405526Y176317D01*
X405242Y176261D01*
X404940Y176227D01*
X404620Y176216D01*
G37*
G36*
X449742Y573281D02*
X448958Y573281D01*
X443638Y576893D01*
X443638Y577951D01*
X448947Y577951D01*
X448947Y579060D01*
X449742Y579060D01*
X449742Y577951D01*
X451528Y577951D01*
X451528Y576999D01*
X449742Y576999D01*
X449742Y573281D01*
G37*
%LPC*%
G36*
X448947Y574210D02*
X448947Y576999D01*
X444775Y576999D01*
X445072Y576842D01*
X445441Y576624D01*
X448420Y574602D01*
X448835Y574300D01*
X448947Y574210D01*
G37*
%LPD*%
G36*
X451528Y580266D02*
X450672Y580266D01*
X450672Y582277D01*
X444601Y582277D01*
X445872Y580496D01*
X444920Y580496D01*
X443638Y582361D01*
X443638Y583290D01*
X450672Y583290D01*
X450672Y585211D01*
X451528Y585211D01*
X451528Y580266D01*
G37*
G36*
X596403Y190500D02*
X589386Y190500D01*
X589386Y207786D01*
X595667Y207786D01*
X596404Y207769D01*
X597093Y207720D01*
X597735Y207638D01*
X598329Y207523D01*
X598876Y207376D01*
X599375Y207196D01*
X599827Y206983D01*
X600231Y206737D01*
X600588Y206458D01*
X600897Y206147D01*
X601158Y205803D01*
X601372Y205426D01*
X601538Y205016D01*
X601657Y204573D01*
X601728Y204098D01*
X601746Y203848D01*
X601752Y203590D01*
X601739Y203214D01*
X601699Y202854D01*
X601631Y202509D01*
X601538Y202179D01*
X601417Y201865D01*
X601269Y201566D01*
X601095Y201282D01*
X600893Y201014D01*
X600668Y200764D01*
X600528Y200636D01*
X600420Y200535D01*
X600149Y200328D01*
X599857Y200143D01*
X599542Y199979D01*
X599205Y199836D01*
X598846Y199715D01*
X598464Y199615D01*
X598965Y199540D01*
X599436Y199437D01*
X599877Y199306D01*
X600289Y199147D01*
X600672Y198961D01*
X601025Y198747D01*
X601348Y198505D01*
X601484Y198380D01*
X601642Y198235D01*
X601903Y197942D01*
X602130Y197630D01*
X602322Y197300D01*
X602479Y196951D01*
X602601Y196584D01*
X602688Y196198D01*
X602741Y195794D01*
X602758Y195370D01*
X602752Y195086D01*
X602732Y194810D01*
X602699Y194542D01*
X602653Y194281D01*
X602594Y194029D01*
X602522Y193785D01*
X602338Y193320D01*
X602102Y192888D01*
X601813Y192487D01*
X601471Y192119D01*
X601078Y191782D01*
X600637Y191482D01*
X600155Y191221D01*
X599632Y191001D01*
X599069Y190821D01*
X598464Y190680D01*
X597818Y190580D01*
X597131Y190520D01*
X596403Y190500D01*
G37*
%LPC*%
G36*
X596281Y192377D02*
X596799Y192389D01*
X597281Y192427D01*
X597727Y192489D01*
X598136Y192576D01*
X598509Y192689D01*
X598845Y192826D01*
X599145Y192988D01*
X599409Y193174D01*
X599639Y193386D01*
X599838Y193622D01*
X600007Y193883D01*
X600145Y194168D01*
X600252Y194478D01*
X600329Y194812D01*
X600375Y195171D01*
X600390Y195554D01*
X600374Y195924D01*
X600323Y196270D01*
X600240Y196593D01*
X600122Y196891D01*
X599971Y197165D01*
X599787Y197416D01*
X599569Y197643D01*
X599317Y197846D01*
X599032Y198024D01*
X598713Y198180D01*
X598361Y198311D01*
X597975Y198418D01*
X597556Y198502D01*
X597103Y198561D01*
X596617Y198597D01*
X596097Y198609D01*
X591729Y198609D01*
X591729Y192377D01*
X596281Y192377D01*
G37*
G36*
X595667Y200437D02*
X596122Y200448D01*
X596546Y200481D01*
X596941Y200536D01*
X597307Y200613D01*
X597642Y200713D01*
X597948Y200834D01*
X598224Y200977D01*
X598471Y201143D01*
X598688Y201331D01*
X598876Y201542D01*
X599035Y201778D01*
X599165Y202037D01*
X599267Y202319D01*
X599339Y202625D01*
X599382Y202955D01*
X599397Y203308D01*
X599382Y203645D01*
X599337Y203957D01*
X599262Y204245D01*
X599158Y204507D01*
X599023Y204745D01*
X598859Y204957D01*
X598664Y205145D01*
X598440Y205308D01*
X598187Y205448D01*
X597908Y205571D01*
X597601Y205674D01*
X597268Y205758D01*
X596908Y205824D01*
X596521Y205871D01*
X596108Y205899D01*
X595667Y205909D01*
X591729Y205909D01*
X591729Y200437D01*
X595667Y200437D01*
G37*
%LPD*%
G36*
X556854Y190500D02*
X554511Y190500D01*
X554511Y207786D01*
X561786Y207786D01*
X562492Y207764D01*
X563158Y207701D01*
X563782Y207594D01*
X564365Y207445D01*
X564908Y207254D01*
X565409Y207020D01*
X565869Y206743D01*
X566288Y206424D01*
X566662Y206066D01*
X566986Y205673D01*
X567260Y205246D01*
X567485Y204783D01*
X567659Y204286D01*
X567727Y204024D01*
X567784Y203753D01*
X567827Y203474D01*
X567858Y203186D01*
X567877Y202889D01*
X567883Y202584D01*
X567877Y202281D01*
X567858Y201986D01*
X567827Y201699D01*
X567783Y201420D01*
X567658Y200885D01*
X567483Y200382D01*
X567258Y199910D01*
X566983Y199469D01*
X566657Y199060D01*
X566282Y198683D01*
X565864Y198344D01*
X565410Y198049D01*
X564920Y197801D01*
X564394Y197597D01*
X563833Y197439D01*
X563236Y197326D01*
X562602Y197258D01*
X561933Y197235D01*
X556854Y197235D01*
X556854Y190500D01*
G37*
%LPC*%
G36*
X561602Y199088D02*
X562077Y199101D01*
X562522Y199142D01*
X562936Y199210D01*
X563320Y199305D01*
X563672Y199427D01*
X563994Y199576D01*
X564286Y199752D01*
X564546Y199956D01*
X564776Y200186D01*
X564976Y200444D01*
X565144Y200729D01*
X565282Y201041D01*
X565390Y201380D01*
X565466Y201746D01*
X565512Y202139D01*
X565528Y202560D01*
X565512Y202965D01*
X565465Y203344D01*
X565386Y203698D01*
X565276Y204025D01*
X565135Y204326D01*
X564962Y204600D01*
X564758Y204849D01*
X564522Y205071D01*
X564255Y205268D01*
X563956Y205438D01*
X563626Y205582D01*
X563264Y205699D01*
X562871Y205791D01*
X562447Y205856D01*
X561991Y205896D01*
X561504Y205909D01*
X556854Y205909D01*
X556854Y199088D01*
X561602Y199088D01*
G37*
%LPD*%
G36*
X690321Y190500D02*
X688235Y190500D01*
X688235Y194414D01*
X680089Y194414D01*
X680089Y196131D01*
X688002Y207786D01*
X690321Y207786D01*
X690321Y196156D01*
X692750Y196156D01*
X692750Y194414D01*
X690321Y194414D01*
X690321Y190500D01*
G37*
%LPC*%
G36*
X688235Y196156D02*
X688235Y205295D01*
X687892Y204645D01*
X687612Y204154D01*
X687413Y203835D01*
X682984Y197309D01*
X682322Y196401D01*
X682126Y196156D01*
X688235Y196156D01*
G37*
%LPD*%
G36*
X578904Y190255D02*
X578262Y190272D01*
X577642Y190323D01*
X577043Y190407D01*
X576467Y190526D01*
X575913Y190679D01*
X575381Y190865D01*
X574871Y191086D01*
X574383Y191340D01*
X573921Y191626D01*
X573486Y191941D01*
X573080Y192286D01*
X572703Y192659D01*
X572353Y193062D01*
X572032Y193493D01*
X571740Y193954D01*
X571476Y194444D01*
X571241Y194960D01*
X571038Y195500D01*
X570866Y196062D01*
X570726Y196648D01*
X570616Y197257D01*
X570538Y197889D01*
X570492Y198544D01*
X570476Y199223D01*
X570485Y199732D01*
X570511Y200228D01*
X570554Y200710D01*
X570615Y201178D01*
X570694Y201632D01*
X570790Y202071D01*
X570903Y202497D01*
X571034Y202909D01*
X571182Y203307D01*
X571348Y203691D01*
X571531Y204061D01*
X571732Y204417D01*
X571950Y204758D01*
X572185Y205086D01*
X572438Y205400D01*
X572709Y205700D01*
X572994Y205984D01*
X573294Y206249D01*
X573606Y206496D01*
X573932Y206725D01*
X574272Y206936D01*
X574625Y207128D01*
X574991Y207302D01*
X575371Y207458D01*
X575764Y207595D01*
X576171Y207714D01*
X576591Y207815D01*
X577024Y207897D01*
X577471Y207961D01*
X577931Y208007D01*
X578405Y208034D01*
X578892Y208043D01*
X579568Y208026D01*
X580215Y207976D01*
X580834Y207892D01*
X581425Y207773D01*
X581988Y207622D01*
X582522Y207436D01*
X583027Y207217D01*
X583505Y206964D01*
X583952Y206678D01*
X584369Y206359D01*
X584756Y206007D01*
X585112Y205623D01*
X585437Y205207D01*
X585731Y204758D01*
X585995Y204276D01*
X586228Y203762D01*
X584008Y203026D01*
X583846Y203392D01*
X583661Y203736D01*
X583454Y204057D01*
X583224Y204357D01*
X582971Y204634D01*
X582695Y204889D01*
X582397Y205122D01*
X582075Y205332D01*
X581735Y205519D01*
X581379Y205681D01*
X581007Y205818D01*
X580620Y205930D01*
X580217Y206017D01*
X579799Y206080D01*
X579366Y206117D01*
X578916Y206130D01*
X578562Y206122D01*
X578219Y206101D01*
X577885Y206065D01*
X577561Y206014D01*
X577247Y205949D01*
X576943Y205870D01*
X576649Y205776D01*
X576365Y205668D01*
X576090Y205545D01*
X575826Y205408D01*
X575572Y205257D01*
X575328Y205091D01*
X575094Y204911D01*
X574869Y204716D01*
X574655Y204507D01*
X574451Y204283D01*
X574077Y203800D01*
X573909Y203543D01*
X573753Y203275D01*
X573610Y202996D01*
X573479Y202706D01*
X573361Y202406D01*
X573255Y202095D01*
X573161Y201773D01*
X573080Y201441D01*
X573012Y201098D01*
X572956Y200744D01*
X572912Y200380D01*
X572881Y200005D01*
X572862Y199619D01*
X572856Y199223D01*
X572862Y198830D01*
X572882Y198448D01*
X572914Y198075D01*
X572960Y197712D01*
X573018Y197358D01*
X573090Y197015D01*
X573174Y196681D01*
X573271Y196356D01*
X573382Y196042D01*
X573505Y195737D01*
X573642Y195442D01*
X573791Y195157D01*
X573953Y194881D01*
X574129Y194615D01*
X574518Y194113D01*
X574731Y193879D01*
X574952Y193660D01*
X575183Y193456D01*
X575423Y193268D01*
X575672Y193094D01*
X575930Y192935D01*
X576197Y192792D01*
X576473Y192664D01*
X576759Y192551D01*
X577054Y192452D01*
X577358Y192369D01*
X577671Y192301D01*
X577993Y192249D01*
X578324Y192211D01*
X578665Y192188D01*
X579014Y192181D01*
X579461Y192195D01*
X579894Y192237D01*
X580313Y192307D01*
X580717Y192405D01*
X581108Y192532D01*
X581484Y192686D01*
X581847Y192869D01*
X582195Y193079D01*
X582529Y193318D01*
X582849Y193585D01*
X583155Y193880D01*
X583447Y194203D01*
X583725Y194554D01*
X583989Y194933D01*
X584238Y195340D01*
X584474Y195775D01*
X586388Y194818D01*
X586107Y194277D01*
X585800Y193769D01*
X585465Y193294D01*
X585104Y192852D01*
X584716Y192444D01*
X584300Y192070D01*
X583858Y191728D01*
X583388Y191420D01*
X582895Y191147D01*
X582383Y190910D01*
X581852Y190710D01*
X581301Y190546D01*
X580731Y190419D01*
X580141Y190328D01*
X579532Y190273D01*
X578904Y190255D01*
G37*
G36*
X672328Y190255D02*
X671738Y190271D01*
X671178Y190321D01*
X670646Y190403D01*
X670144Y190518D01*
X669671Y190667D01*
X669227Y190848D01*
X668812Y191062D01*
X668427Y191310D01*
X668073Y191588D01*
X667753Y191896D01*
X667467Y192234D01*
X667215Y192601D01*
X666998Y192998D01*
X666814Y193424D01*
X666665Y193879D01*
X666550Y194364D01*
X668783Y194622D01*
X668879Y194312D01*
X668992Y194021D01*
X669122Y193751D01*
X669269Y193500D01*
X669434Y193270D01*
X669616Y193060D01*
X669815Y192869D01*
X670031Y192699D01*
X670264Y192549D01*
X670514Y192419D01*
X670782Y192308D01*
X671067Y192218D01*
X671369Y192148D01*
X671688Y192098D01*
X672024Y192068D01*
X672377Y192058D01*
X672810Y192075D01*
X673218Y192125D01*
X673603Y192209D01*
X673963Y192326D01*
X674299Y192477D01*
X674611Y192662D01*
X674898Y192880D01*
X675162Y193132D01*
X675398Y193412D01*
X675602Y193718D01*
X675775Y194050D01*
X675916Y194406D01*
X676026Y194787D01*
X676105Y195194D01*
X676152Y195625D01*
X676168Y196082D01*
X676152Y196480D01*
X676105Y196859D01*
X676026Y197218D01*
X675915Y197557D01*
X675773Y197877D01*
X675599Y198178D01*
X675393Y198458D01*
X675156Y198720D01*
X674892Y198955D01*
X674606Y199160D01*
X674297Y199333D01*
X673967Y199474D01*
X673615Y199584D01*
X673241Y199663D01*
X672844Y199710D01*
X672426Y199726D01*
X671986Y199708D01*
X671561Y199655D01*
X671152Y199567D01*
X670758Y199443D01*
X670371Y199278D01*
X669985Y199063D01*
X669598Y198799D01*
X669212Y198487D01*
X667053Y198487D01*
X667629Y207786D01*
X677456Y207786D01*
X677456Y205909D01*
X669641Y205909D01*
X669310Y200425D01*
X669680Y200684D01*
X670071Y200908D01*
X670485Y201098D01*
X670920Y201253D01*
X671377Y201374D01*
X671856Y201460D01*
X672357Y201512D01*
X672880Y201529D01*
X673502Y201506D01*
X674091Y201435D01*
X674648Y201319D01*
X675173Y201155D01*
X675665Y200944D01*
X676125Y200687D01*
X676552Y200383D01*
X676947Y200032D01*
X677302Y199644D01*
X677610Y199227D01*
X677870Y198782D01*
X678083Y198309D01*
X678249Y197807D01*
X678367Y197277D01*
X678438Y196718D01*
X678462Y196131D01*
X678456Y195794D01*
X678437Y195465D01*
X678405Y195146D01*
X678360Y194836D01*
X678303Y194535D01*
X678233Y194243D01*
X678151Y193960D01*
X678056Y193687D01*
X677827Y193167D01*
X677548Y192683D01*
X677217Y192236D01*
X676837Y191825D01*
X676410Y191457D01*
X675945Y191138D01*
X675441Y190868D01*
X674897Y190647D01*
X674313Y190475D01*
X674007Y190408D01*
X673691Y190353D01*
X673365Y190310D01*
X673029Y190279D01*
X672683Y190261D01*
X672328Y190255D01*
G37*
G36*
X700265Y190255D02*
X699676Y190271D01*
X699115Y190321D01*
X698584Y190403D01*
X698082Y190518D01*
X697609Y190667D01*
X697165Y190848D01*
X696750Y191062D01*
X696364Y191310D01*
X696010Y191588D01*
X695690Y191896D01*
X695404Y192234D01*
X695153Y192601D01*
X694935Y192998D01*
X694752Y193424D01*
X694602Y193879D01*
X694487Y194364D01*
X696720Y194622D01*
X696816Y194312D01*
X696929Y194021D01*
X697059Y193751D01*
X697207Y193500D01*
X697372Y193270D01*
X697553Y193060D01*
X697752Y192869D01*
X697968Y192699D01*
X698202Y192549D01*
X698452Y192419D01*
X698719Y192308D01*
X699004Y192218D01*
X699306Y192148D01*
X699625Y192098D01*
X699961Y192068D01*
X700315Y192058D01*
X700747Y192075D01*
X701156Y192125D01*
X701540Y192209D01*
X701900Y192326D01*
X702236Y192477D01*
X702548Y192662D01*
X702836Y192880D01*
X703099Y193132D01*
X703335Y193412D01*
X703540Y193718D01*
X703712Y194050D01*
X703854Y194406D01*
X703964Y194787D01*
X704043Y195194D01*
X704090Y195625D01*
X704105Y196082D01*
X704090Y196480D01*
X704042Y196859D01*
X703963Y197218D01*
X703852Y197557D01*
X703710Y197877D01*
X703536Y198178D01*
X703330Y198458D01*
X703093Y198720D01*
X702829Y198955D01*
X702543Y199160D01*
X702235Y199333D01*
X701905Y199474D01*
X701553Y199584D01*
X701178Y199663D01*
X700782Y199710D01*
X700364Y199726D01*
X699924Y199708D01*
X699499Y199655D01*
X699089Y199567D01*
X698695Y199443D01*
X698309Y199278D01*
X697922Y199063D01*
X697536Y198799D01*
X697149Y198487D01*
X694990Y198487D01*
X695567Y207786D01*
X705394Y207786D01*
X705394Y205909D01*
X697579Y205909D01*
X697248Y200425D01*
X697617Y200684D01*
X698009Y200908D01*
X698422Y201098D01*
X698858Y201253D01*
X699315Y201374D01*
X699794Y201460D01*
X700295Y201512D01*
X700818Y201529D01*
X701439Y201506D01*
X702029Y201435D01*
X702586Y201319D01*
X703110Y201155D01*
X703602Y200944D01*
X704062Y200687D01*
X704489Y200383D01*
X704884Y200032D01*
X705240Y199644D01*
X705547Y199227D01*
X705808Y198782D01*
X706021Y198309D01*
X706186Y197807D01*
X706305Y197277D01*
X706376Y196718D01*
X706400Y196131D01*
X706393Y195794D01*
X706374Y195465D01*
X706342Y195146D01*
X706298Y194836D01*
X706241Y194535D01*
X706171Y194243D01*
X706088Y193960D01*
X705993Y193687D01*
X705765Y193167D01*
X705485Y192683D01*
X705155Y192236D01*
X704774Y191825D01*
X704348Y191457D01*
X703883Y191138D01*
X703378Y190868D01*
X702834Y190647D01*
X702251Y190475D01*
X701945Y190408D01*
X701628Y190353D01*
X701302Y190310D01*
X700967Y190279D01*
X700621Y190261D01*
X700265Y190255D01*
G37*
G36*
X657316Y190500D02*
X645870Y190500D01*
X645870Y192058D01*
X646200Y192755D01*
X646565Y193409D01*
X646964Y194021D01*
X647397Y194591D01*
X647854Y195127D01*
X648322Y195637D01*
X648802Y196121D01*
X649293Y196579D01*
X650282Y197436D01*
X651262Y198229D01*
X652189Y198990D01*
X653022Y199750D01*
X653396Y200135D01*
X653732Y200529D01*
X654031Y200932D01*
X654292Y201345D01*
X654405Y201557D01*
X654504Y201776D01*
X654587Y202002D01*
X654655Y202234D01*
X654708Y202474D01*
X654746Y202721D01*
X654769Y202974D01*
X654776Y203234D01*
X654763Y203580D01*
X654724Y203906D01*
X654659Y204212D01*
X654568Y204498D01*
X654451Y204764D01*
X654307Y205010D01*
X654138Y205236D01*
X653942Y205443D01*
X653724Y205627D01*
X653484Y205786D01*
X653225Y205921D01*
X652945Y206031D01*
X652645Y206117D01*
X652325Y206179D01*
X651985Y206215D01*
X651624Y206228D01*
X651279Y206216D01*
X650949Y206180D01*
X650635Y206120D01*
X650337Y206036D01*
X650054Y205928D01*
X649787Y205796D01*
X649535Y205641D01*
X649299Y205461D01*
X649082Y205260D01*
X648889Y205039D01*
X648719Y204799D01*
X648573Y204539D01*
X648451Y204260D01*
X648352Y203962D01*
X648277Y203645D01*
X648225Y203308D01*
X645968Y203516D01*
X646049Y204022D01*
X646170Y204500D01*
X646331Y204952D01*
X646531Y205378D01*
X646771Y205777D01*
X647050Y206150D01*
X647370Y206497D01*
X647728Y206817D01*
X648121Y207104D01*
X648540Y207353D01*
X648986Y207564D01*
X649460Y207737D01*
X649960Y207871D01*
X650488Y207967D01*
X651042Y208024D01*
X651624Y208043D01*
X652258Y208024D01*
X652855Y207966D01*
X653413Y207870D01*
X653935Y207735D01*
X654418Y207562D01*
X654864Y207350D01*
X655271Y207099D01*
X655641Y206810D01*
X655971Y206486D01*
X656256Y206129D01*
X656497Y205740D01*
X656695Y205318D01*
X656849Y204864D01*
X656958Y204378D01*
X657024Y203859D01*
X657046Y203308D01*
X657039Y203057D01*
X657017Y202806D01*
X656981Y202555D01*
X656931Y202305D01*
X656787Y201806D01*
X656586Y201308D01*
X656328Y200811D01*
X656014Y200314D01*
X655644Y199818D01*
X655218Y199321D01*
X654661Y198756D01*
X653896Y198054D01*
X652925Y197216D01*
X651746Y196241D01*
X651077Y195679D01*
X650480Y195145D01*
X649954Y194639D01*
X649501Y194162D01*
X649113Y193703D01*
X648784Y193253D01*
X648512Y192811D01*
X648299Y192377D01*
X657316Y192377D01*
X657316Y190500D01*
G37*
G36*
X636384Y190500D02*
X625551Y190500D01*
X625551Y192377D01*
X629956Y192377D01*
X629956Y205676D01*
X626054Y202891D01*
X626054Y204976D01*
X630140Y207786D01*
X632176Y207786D01*
X632176Y192377D01*
X636384Y192377D01*
X636384Y190500D01*
G37*
G36*
X618595Y190500D02*
X615982Y190500D01*
X611161Y203774D01*
X613516Y203774D01*
X616436Y195137D01*
X616728Y194165D01*
X617283Y192230D01*
X617712Y193665D01*
X618190Y195113D01*
X621208Y203774D01*
X623552Y203774D01*
X618595Y190500D01*
G37*
G36*
X642293Y190500D02*
X639900Y190500D01*
X639900Y193187D01*
X642293Y193187D01*
X642293Y190500D01*
G37*
G36*
X663261Y190500D02*
X660869Y190500D01*
X660869Y193187D01*
X663261Y193187D01*
X663261Y190500D01*
G37*
G36*
X215414Y590375D02*
X215068Y590387D01*
X214744Y590422D01*
X214443Y590481D01*
X214163Y590563D01*
X213906Y590669D01*
X213671Y590799D01*
X213458Y590952D01*
X213268Y591128D01*
X213099Y591325D01*
X212953Y591540D01*
X212830Y591772D01*
X212729Y592021D01*
X212650Y592289D01*
X212594Y592573D01*
X212561Y592875D01*
X212549Y593195D01*
X212565Y593552D01*
X212610Y593888D01*
X212686Y594203D01*
X212791Y594496D01*
X212928Y594768D01*
X213094Y595018D01*
X213290Y595247D01*
X213517Y595455D01*
X213778Y595640D01*
X214075Y595803D01*
X214410Y595943D01*
X214782Y596059D01*
X215191Y596153D01*
X215637Y596223D01*
X216120Y596271D01*
X216640Y596296D01*
X218768Y596331D01*
X218768Y596847D01*
X218760Y597126D01*
X218737Y597384D01*
X218699Y597622D01*
X218645Y597839D01*
X218576Y598036D01*
X218492Y598212D01*
X218393Y598368D01*
X218278Y598503D01*
X218146Y598620D01*
X217997Y598721D01*
X217831Y598807D01*
X217647Y598877D01*
X217446Y598932D01*
X217227Y598971D01*
X216990Y598994D01*
X216736Y599002D01*
X216242Y598980D01*
X216023Y598951D01*
X215821Y598912D01*
X215637Y598862D01*
X215472Y598800D01*
X215324Y598727D01*
X215195Y598643D01*
X215080Y598546D01*
X214978Y598437D01*
X214887Y598313D01*
X214809Y598177D01*
X214743Y598026D01*
X214689Y597863D01*
X214647Y597686D01*
X214617Y597496D01*
X212970Y597644D01*
X213032Y597954D01*
X213117Y598244D01*
X213226Y598514D01*
X213359Y598763D01*
X213514Y598993D01*
X213693Y599203D01*
X213896Y599393D01*
X214122Y599563D01*
X214371Y599712D01*
X214644Y599842D01*
X214940Y599952D01*
X215259Y600042D01*
X215602Y600112D01*
X215968Y600162D01*
X216358Y600192D01*
X216771Y600202D01*
X217204Y600189D01*
X217609Y600151D01*
X217987Y600087D01*
X218337Y599997D01*
X218659Y599882D01*
X218954Y599741D01*
X219221Y599575D01*
X219460Y599383D01*
X219671Y599167D01*
X219855Y598928D01*
X220010Y598666D01*
X220137Y598381D01*
X220235Y598074D01*
X220306Y597743D01*
X220348Y597390D01*
X220362Y597014D01*
X220362Y592932D01*
X220374Y592604D01*
X220408Y592318D01*
X220466Y592076D01*
X220546Y591877D01*
X220659Y591722D01*
X220813Y591611D01*
X221009Y591544D01*
X221247Y591522D01*
X221490Y591538D01*
X221763Y591584D01*
X221763Y590603D01*
X221464Y590541D01*
X221161Y590497D01*
X220855Y590471D01*
X220546Y590462D01*
X220335Y590470D01*
X220138Y590491D01*
X219956Y590527D01*
X219790Y590577D01*
X219638Y590642D01*
X219501Y590721D01*
X219379Y590814D01*
X219272Y590922D01*
X219177Y591045D01*
X219094Y591185D01*
X219021Y591340D01*
X218960Y591512D01*
X218909Y591701D01*
X218869Y591905D01*
X218821Y592363D01*
X218768Y592363D01*
X218454Y591860D01*
X218287Y591638D01*
X218114Y591436D01*
X217936Y591253D01*
X217751Y591091D01*
X217560Y590949D01*
X217362Y590826D01*
X217157Y590720D01*
X216940Y590629D01*
X216713Y590551D01*
X216474Y590488D01*
X216225Y590438D01*
X215966Y590403D01*
X215695Y590382D01*
X215414Y590375D01*
G37*
%LPC*%
G36*
X215773Y591557D02*
X215986Y591563D01*
X216194Y591582D01*
X216592Y591656D01*
X216965Y591779D01*
X217314Y591951D01*
X217634Y592167D01*
X217917Y592419D01*
X218166Y592708D01*
X218378Y593033D01*
X218549Y593379D01*
X218671Y593730D01*
X218744Y594087D01*
X218768Y594448D01*
X218768Y595227D01*
X217043Y595192D01*
X216520Y595171D01*
X216065Y595126D01*
X215677Y595057D01*
X215357Y594964D01*
X215086Y594845D01*
X214850Y594697D01*
X214646Y594521D01*
X214476Y594316D01*
X214342Y594080D01*
X214246Y593810D01*
X214189Y593507D01*
X214170Y593169D01*
X214176Y592982D01*
X214196Y592805D01*
X214228Y592640D01*
X214274Y592486D01*
X214332Y592342D01*
X214404Y592210D01*
X214488Y592088D01*
X214586Y591978D01*
X214695Y591879D01*
X214816Y591794D01*
X214948Y591721D01*
X215091Y591662D01*
X215244Y591616D01*
X215409Y591584D01*
X215585Y591564D01*
X215773Y591557D01*
G37*
%LPD*%
G36*
X233545Y590550D02*
X231969Y590550D01*
X231969Y603548D01*
X233545Y603548D01*
X233545Y600167D01*
X233538Y599624D01*
X233515Y599063D01*
X233475Y598406D01*
X233501Y598406D01*
X233768Y598840D01*
X234061Y599211D01*
X234379Y599521D01*
X234723Y599768D01*
X234908Y599870D01*
X235104Y599958D01*
X235312Y600033D01*
X235532Y600094D01*
X235764Y600141D01*
X236008Y600175D01*
X236264Y600195D01*
X236532Y600202D01*
X236905Y600190D01*
X237252Y600154D01*
X237574Y600094D01*
X237871Y600010D01*
X238142Y599903D01*
X238388Y599771D01*
X238609Y599615D01*
X238805Y599436D01*
X238976Y599228D01*
X239125Y598987D01*
X239250Y598715D01*
X239353Y598410D01*
X239433Y598072D01*
X239490Y597702D01*
X239525Y597300D01*
X239536Y596865D01*
X239536Y590550D01*
X237951Y590550D01*
X237951Y596558D01*
X237939Y597026D01*
X237905Y597429D01*
X237847Y597768D01*
X237767Y598043D01*
X237660Y598270D01*
X237524Y598464D01*
X237358Y598627D01*
X237163Y598757D01*
X236932Y598856D01*
X236661Y598928D01*
X236350Y598970D01*
X235998Y598984D01*
X235726Y598972D01*
X235469Y598936D01*
X235226Y598876D01*
X234996Y598792D01*
X234780Y598683D01*
X234578Y598551D01*
X234390Y598394D01*
X234215Y598214D01*
X234058Y598013D01*
X233922Y597795D01*
X233807Y597561D01*
X233713Y597309D01*
X233639Y597042D01*
X233587Y596757D01*
X233556Y596456D01*
X233545Y596138D01*
X233545Y590550D01*
G37*
G36*
X199994Y590550D02*
X198321Y590550D01*
X198321Y602891D01*
X207089Y602891D01*
X207089Y601524D01*
X199994Y601524D01*
X199994Y596935D01*
X206879Y596935D01*
X206879Y595551D01*
X199994Y595551D01*
X199994Y590550D01*
G37*
G36*
X226232Y590375D02*
X225802Y590384D01*
X225398Y590411D01*
X225019Y590457D01*
X224665Y590520D01*
X224337Y590602D01*
X224034Y590702D01*
X223756Y590821D01*
X223504Y590957D01*
X223274Y591113D01*
X223066Y591289D01*
X222879Y591486D01*
X222712Y591703D01*
X222566Y591940D01*
X222442Y592198D01*
X222338Y592476D01*
X222255Y592775D01*
X223648Y593046D01*
X223705Y592862D01*
X223776Y592691D01*
X223860Y592532D01*
X223957Y592386D01*
X224068Y592253D01*
X224192Y592132D01*
X224329Y592025D01*
X224480Y591929D01*
X224645Y591846D01*
X224826Y591774D01*
X225022Y591713D01*
X225233Y591663D01*
X225702Y591597D01*
X226232Y591575D01*
X226522Y591580D01*
X226792Y591598D01*
X227041Y591626D01*
X227271Y591667D01*
X227480Y591718D01*
X227670Y591782D01*
X227839Y591856D01*
X227988Y591943D01*
X228118Y592040D01*
X228231Y592150D01*
X228327Y592270D01*
X228405Y592402D01*
X228466Y592546D01*
X228509Y592701D01*
X228535Y592868D01*
X228544Y593046D01*
X228520Y593313D01*
X228448Y593554D01*
X228327Y593769D01*
X228159Y593957D01*
X227936Y594125D01*
X227655Y594277D01*
X227315Y594414D01*
X226915Y594535D01*
X225785Y594833D01*
X225155Y595007D01*
X224624Y595180D01*
X224190Y595351D01*
X223854Y595520D01*
X223583Y595698D01*
X223343Y595894D01*
X223134Y596108D01*
X222956Y596339D01*
X222814Y596594D01*
X222713Y596876D01*
X222652Y597185D01*
X222632Y597522D01*
X222647Y597836D01*
X222690Y598131D01*
X222762Y598407D01*
X222863Y598664D01*
X222993Y598901D01*
X223152Y599119D01*
X223340Y599318D01*
X223556Y599497D01*
X223800Y599656D01*
X224071Y599794D01*
X224368Y599910D01*
X224691Y600006D01*
X225041Y600080D01*
X225418Y600133D01*
X225820Y600165D01*
X226249Y600176D01*
X226631Y600167D01*
X226993Y600141D01*
X227335Y600098D01*
X227656Y600038D01*
X227958Y599960D01*
X228239Y599865D01*
X228500Y599753D01*
X228741Y599624D01*
X228962Y599476D01*
X229161Y599306D01*
X229339Y599116D01*
X229496Y598906D01*
X229631Y598674D01*
X229745Y598422D01*
X229839Y598149D01*
X229910Y597855D01*
X228492Y597679D01*
X228452Y597833D01*
X228398Y597976D01*
X228331Y598111D01*
X228250Y598237D01*
X228046Y598460D01*
X227787Y598647D01*
X227475Y598795D01*
X227115Y598900D01*
X226707Y598963D01*
X226249Y598984D01*
X225750Y598964D01*
X225321Y598903D01*
X225133Y598858D01*
X224962Y598802D01*
X224809Y598736D01*
X224673Y598660D01*
X224554Y598574D01*
X224451Y598478D01*
X224363Y598371D01*
X224292Y598253D01*
X224236Y598125D01*
X224197Y597987D01*
X224173Y597838D01*
X224165Y597679D01*
X224178Y597487D01*
X224217Y597312D01*
X224283Y597154D01*
X224375Y597014D01*
X224493Y596887D01*
X224636Y596771D01*
X224804Y596664D01*
X224997Y596567D01*
X225260Y596466D01*
X225636Y596348D01*
X226731Y596059D01*
X227314Y595904D01*
X227808Y595756D01*
X228216Y595613D01*
X228535Y595477D01*
X228797Y595340D01*
X229029Y595195D01*
X229232Y595044D01*
X229407Y594885D01*
X229558Y594717D01*
X229690Y594536D01*
X229805Y594343D01*
X229902Y594137D01*
X229978Y593917D01*
X230033Y593682D01*
X230066Y593433D01*
X230077Y593169D01*
X230061Y592843D01*
X230014Y592537D01*
X229935Y592250D01*
X229824Y591982D01*
X229682Y591733D01*
X229508Y591504D01*
X229302Y591293D01*
X229065Y591102D01*
X228800Y590931D01*
X228509Y590784D01*
X228193Y590659D01*
X227851Y590557D01*
X227484Y590477D01*
X227092Y590420D01*
X226675Y590386D01*
X226232Y590375D01*
G37*
G36*
X210573Y590550D02*
X208996Y590550D01*
X208996Y603548D01*
X210573Y603548D01*
X210573Y590550D01*
G37*
G36*
X173832Y304800D02*
X172159Y304800D01*
X172159Y317141D01*
X177966Y317141D01*
X178472Y317126D01*
X178949Y317082D01*
X179396Y317010D01*
X179813Y316908D01*
X180200Y316776D01*
X180558Y316616D01*
X180886Y316427D01*
X181185Y316208D01*
X181450Y315963D01*
X181681Y315696D01*
X181876Y315406D01*
X182035Y315092D01*
X182159Y314756D01*
X182248Y314397D01*
X182301Y314016D01*
X182319Y313611D01*
X182306Y313274D01*
X182269Y312951D01*
X182206Y312641D01*
X182118Y312345D01*
X182006Y312063D01*
X181868Y311795D01*
X181705Y311540D01*
X181517Y311299D01*
X181308Y311075D01*
X181079Y310874D01*
X180831Y310693D01*
X180720Y310627D01*
X180564Y310535D01*
X180278Y310398D01*
X179973Y310282D01*
X179649Y310189D01*
X179306Y310116D01*
X180797Y307853D01*
X182809Y304800D01*
X180882Y304800D01*
X177677Y309924D01*
X173832Y309924D01*
X173832Y304800D01*
G37*
%LPC*%
G36*
X177870Y311246D02*
X178191Y311256D01*
X178493Y311285D01*
X178777Y311333D01*
X179042Y311401D01*
X179288Y311487D01*
X179516Y311594D01*
X179725Y311719D01*
X179915Y311864D01*
X180084Y312026D01*
X180231Y312203D01*
X180355Y312396D01*
X180457Y312605D01*
X180536Y312829D01*
X180592Y313068D01*
X180626Y313323D01*
X180637Y313594D01*
X180626Y313855D01*
X180591Y314100D01*
X180534Y314330D01*
X180454Y314543D01*
X180352Y314740D01*
X180226Y314921D01*
X180077Y315087D01*
X179906Y315236D01*
X179713Y315368D01*
X179500Y315483D01*
X179267Y315580D01*
X179014Y315660D01*
X178740Y315721D01*
X178447Y315765D01*
X178133Y315792D01*
X177799Y315801D01*
X173832Y315801D01*
X173832Y311246D01*
X177870Y311246D01*
G37*
%LPD*%
G36*
X198585Y304800D02*
X197096Y304800D01*
X197096Y317141D01*
X199295Y317141D01*
X202579Y308584D01*
X202751Y308048D01*
X202916Y307476D01*
X203131Y306622D01*
X203239Y307063D01*
X203424Y307686D01*
X203612Y308267D01*
X203727Y308584D01*
X206950Y317141D01*
X209096Y317141D01*
X209096Y304800D01*
X207589Y304800D01*
X207589Y313033D01*
X207609Y314373D01*
X207668Y315661D01*
X207261Y314264D01*
X207074Y313693D01*
X206897Y313208D01*
X203709Y304800D01*
X202535Y304800D01*
X199304Y313208D01*
X198813Y314697D01*
X198524Y315661D01*
X198550Y314688D01*
X198585Y313033D01*
X198585Y304800D01*
G37*
G36*
X185425Y304800D02*
X183691Y304800D01*
X188727Y317141D01*
X190628Y317141D01*
X195585Y304800D01*
X193877Y304800D01*
X192467Y308409D01*
X186844Y308409D01*
X185425Y304800D01*
G37*
%LPC*%
G36*
X191968Y309714D02*
X190383Y313786D01*
X190138Y314430D01*
X189892Y315153D01*
X189656Y315880D01*
X189577Y315634D01*
X189306Y314804D01*
X188929Y313769D01*
X187352Y309714D01*
X191968Y309714D01*
G37*
%LPD*%
G36*
X164793Y304625D02*
X164244Y304637D01*
X163725Y304674D01*
X163235Y304735D01*
X162775Y304821D01*
X162345Y304931D01*
X161944Y305066D01*
X161572Y305225D01*
X161231Y305409D01*
X160919Y305617D01*
X160637Y305850D01*
X160384Y306107D01*
X160161Y306389D01*
X159967Y306695D01*
X159803Y307025D01*
X159669Y307381D01*
X159565Y307760D01*
X161185Y308084D01*
X161265Y307816D01*
X161364Y307565D01*
X161484Y307333D01*
X161623Y307120D01*
X161782Y306925D01*
X161960Y306749D01*
X162158Y306591D01*
X162376Y306451D01*
X162614Y306329D01*
X162873Y306223D01*
X163152Y306133D01*
X163451Y306060D01*
X163771Y306003D01*
X164112Y305962D01*
X164473Y305938D01*
X164855Y305930D01*
X165248Y305939D01*
X165619Y305965D01*
X165966Y306008D01*
X166290Y306069D01*
X166591Y306147D01*
X166869Y306243D01*
X167124Y306356D01*
X167355Y306486D01*
X167562Y306633D01*
X167740Y306797D01*
X167892Y306976D01*
X168015Y307172D01*
X168112Y307385D01*
X168180Y307613D01*
X168222Y307858D01*
X168236Y308119D01*
X168218Y308407D01*
X168167Y308667D01*
X168080Y308898D01*
X167960Y309100D01*
X167808Y309281D01*
X167628Y309444D01*
X167420Y309591D01*
X167184Y309722D01*
X166923Y309840D01*
X166637Y309948D01*
X166327Y310046D01*
X165993Y310134D01*
X164461Y310493D01*
X163773Y310655D01*
X163174Y310817D01*
X162663Y310979D01*
X162240Y311141D01*
X161881Y311308D01*
X161563Y311484D01*
X161284Y311669D01*
X161045Y311864D01*
X160839Y312072D01*
X160658Y312296D01*
X160504Y312538D01*
X160375Y312797D01*
X160273Y313074D01*
X160201Y313370D01*
X160157Y313687D01*
X160143Y314023D01*
X160162Y314408D01*
X160218Y314770D01*
X160313Y315109D01*
X160446Y315426D01*
X160616Y315720D01*
X160825Y315992D01*
X161071Y316240D01*
X161356Y316466D01*
X161675Y316668D01*
X162028Y316842D01*
X162413Y316989D01*
X162830Y317110D01*
X163281Y317204D01*
X163764Y317271D01*
X164280Y317311D01*
X164828Y317325D01*
X165338Y317315D01*
X165818Y317284D01*
X166266Y317234D01*
X166683Y317164D01*
X167069Y317073D01*
X167425Y316963D01*
X167749Y316832D01*
X168043Y316681D01*
X168310Y316506D01*
X168557Y316302D01*
X168783Y316071D01*
X168989Y315811D01*
X169173Y315522D01*
X169337Y315205D01*
X169480Y314860D01*
X169602Y314487D01*
X167955Y314198D01*
X167880Y314435D01*
X167789Y314655D01*
X167683Y314858D01*
X167561Y315044D01*
X167424Y315214D01*
X167272Y315366D01*
X167105Y315502D01*
X166922Y315621D01*
X166722Y315725D01*
X166504Y315815D01*
X166268Y315891D01*
X166013Y315953D01*
X165740Y316001D01*
X165449Y316036D01*
X165139Y316057D01*
X164811Y316063D01*
X164452Y316056D01*
X164115Y316033D01*
X163799Y315995D01*
X163506Y315941D01*
X163234Y315872D01*
X162985Y315788D01*
X162757Y315688D01*
X162551Y315573D01*
X162369Y315443D01*
X162210Y315298D01*
X162076Y315137D01*
X161967Y314962D01*
X161881Y314772D01*
X161820Y314566D01*
X161784Y314346D01*
X161772Y314110D01*
X161791Y313838D01*
X161847Y313590D01*
X161942Y313367D01*
X162074Y313169D01*
X162242Y312990D01*
X162443Y312825D01*
X162677Y312674D01*
X162945Y312538D01*
X163301Y312402D01*
X163797Y312250D01*
X164435Y312084D01*
X165214Y311903D01*
X166348Y311636D01*
X166901Y311487D01*
X167430Y311312D01*
X167930Y311107D01*
X168398Y310870D01*
X168616Y310736D01*
X168819Y310587D01*
X169008Y310425D01*
X169181Y310248D01*
X169339Y310056D01*
X169478Y309847D01*
X169599Y309622D01*
X169703Y309381D01*
X169785Y309120D01*
X169844Y308838D01*
X169879Y308533D01*
X169891Y308207D01*
X169870Y307792D01*
X169807Y307401D01*
X169703Y307035D01*
X169557Y306692D01*
X169369Y306373D01*
X169140Y306079D01*
X168868Y305808D01*
X168555Y305562D01*
X168204Y305342D01*
X167819Y305152D01*
X167400Y304991D01*
X166947Y304859D01*
X166460Y304757D01*
X165938Y304683D01*
X165383Y304640D01*
X164793Y304625D01*
G37*
G36*
X887663Y301029D02*
X883047Y301029D01*
X883047Y313370D01*
X887128Y313370D01*
X887515Y313364D01*
X887890Y313346D01*
X888254Y313315D01*
X888607Y313272D01*
X888948Y313217D01*
X889279Y313149D01*
X889598Y313069D01*
X889906Y312977D01*
X890203Y312873D01*
X890489Y312756D01*
X890763Y312627D01*
X891026Y312486D01*
X891278Y312332D01*
X891519Y312166D01*
X891749Y311988D01*
X891968Y311798D01*
X892174Y311596D01*
X892367Y311384D01*
X892547Y311162D01*
X892713Y310929D01*
X892866Y310686D01*
X893006Y310432D01*
X893132Y310168D01*
X893245Y309894D01*
X893345Y309609D01*
X893432Y309314D01*
X893505Y309009D01*
X893565Y308693D01*
X893611Y308367D01*
X893644Y308031D01*
X893664Y307684D01*
X893671Y307327D01*
X893659Y306857D01*
X893625Y306402D01*
X893566Y305962D01*
X893485Y305537D01*
X893380Y305126D01*
X893252Y304731D01*
X893101Y304351D01*
X892927Y303985D01*
X892731Y303638D01*
X892516Y303311D01*
X892281Y303005D01*
X892027Y302721D01*
X891753Y302457D01*
X891460Y302214D01*
X891148Y301992D01*
X890816Y301791D01*
X890468Y301613D01*
X890106Y301458D01*
X889732Y301327D01*
X889344Y301220D01*
X888944Y301136D01*
X888530Y301077D01*
X888103Y301041D01*
X887663Y301029D01*
G37*
%LPC*%
G36*
X887470Y302369D02*
X887804Y302379D01*
X888128Y302407D01*
X888442Y302453D01*
X888746Y302518D01*
X889039Y302602D01*
X889322Y302704D01*
X889594Y302825D01*
X889857Y302965D01*
X890107Y303122D01*
X890341Y303296D01*
X890561Y303486D01*
X890767Y303692D01*
X890957Y303915D01*
X891132Y304154D01*
X891292Y304410D01*
X891438Y304682D01*
X891567Y304968D01*
X891679Y305267D01*
X891774Y305579D01*
X891852Y305903D01*
X891912Y306240D01*
X891955Y306590D01*
X891981Y306952D01*
X891989Y307327D01*
X891970Y307883D01*
X891911Y308406D01*
X891813Y308894D01*
X891675Y309349D01*
X891499Y309769D01*
X891282Y310155D01*
X891027Y310508D01*
X890733Y310826D01*
X890401Y311108D01*
X890034Y311353D01*
X889632Y311560D01*
X889194Y311729D01*
X888722Y311861D01*
X888214Y311955D01*
X887671Y312011D01*
X887093Y312030D01*
X884720Y312030D01*
X884720Y302369D01*
X887470Y302369D01*
G37*
%LPD*%
G36*
X915442Y301029D02*
X913953Y301029D01*
X913953Y313370D01*
X916152Y313370D01*
X919436Y304813D01*
X919608Y304278D01*
X919773Y303705D01*
X919988Y302851D01*
X920096Y303292D01*
X920281Y303915D01*
X920469Y304497D01*
X920583Y304813D01*
X923807Y313370D01*
X925952Y313370D01*
X925952Y301029D01*
X924446Y301029D01*
X924446Y309262D01*
X924466Y310602D01*
X924525Y311890D01*
X924118Y310493D01*
X923930Y309922D01*
X923754Y309437D01*
X920566Y301029D01*
X919392Y301029D01*
X916160Y309437D01*
X915670Y310926D01*
X915381Y311890D01*
X915407Y310918D01*
X915442Y309262D01*
X915442Y301029D01*
G37*
G36*
X931045Y300854D02*
X930700Y300866D01*
X930376Y300901D01*
X930074Y300960D01*
X929795Y301042D01*
X929538Y301148D01*
X929303Y301278D01*
X929090Y301431D01*
X928900Y301607D01*
X928731Y301804D01*
X928585Y302019D01*
X928462Y302251D01*
X928361Y302501D01*
X928282Y302768D01*
X928226Y303053D01*
X928193Y303355D01*
X928181Y303674D01*
X928196Y304032D01*
X928242Y304367D01*
X928317Y304682D01*
X928423Y304975D01*
X928559Y305247D01*
X928726Y305497D01*
X928922Y305726D01*
X929149Y305934D01*
X929410Y306120D01*
X929707Y306282D01*
X930042Y306422D01*
X930414Y306538D01*
X930822Y306632D01*
X931268Y306703D01*
X931751Y306750D01*
X932272Y306775D01*
X934400Y306810D01*
X934400Y307327D01*
X934392Y307605D01*
X934369Y307864D01*
X934331Y308101D01*
X934277Y308319D01*
X934208Y308515D01*
X934124Y308691D01*
X934024Y308847D01*
X933909Y308982D01*
X933778Y309099D01*
X933629Y309200D01*
X933463Y309286D01*
X933279Y309356D01*
X933077Y309411D01*
X932858Y309450D01*
X932622Y309473D01*
X932368Y309481D01*
X931874Y309459D01*
X931654Y309431D01*
X931453Y309392D01*
X931269Y309341D01*
X931103Y309279D01*
X930956Y309206D01*
X930826Y309122D01*
X930712Y309026D01*
X930610Y308916D01*
X930519Y308792D01*
X930441Y308656D01*
X930375Y308506D01*
X930321Y308342D01*
X930278Y308165D01*
X930248Y307975D01*
X928602Y308124D01*
X928664Y308433D01*
X928749Y308723D01*
X928858Y308993D01*
X928990Y309243D01*
X929146Y309472D01*
X929325Y309682D01*
X929528Y309872D01*
X929753Y310042D01*
X930003Y310192D01*
X930275Y310322D01*
X930571Y310431D01*
X930891Y310521D01*
X931234Y310591D01*
X931600Y310641D01*
X931990Y310671D01*
X932403Y310681D01*
X932836Y310668D01*
X933241Y310630D01*
X933619Y310566D01*
X933969Y310476D01*
X934291Y310361D01*
X934585Y310221D01*
X934852Y310054D01*
X935092Y309862D01*
X935303Y309646D01*
X935486Y309407D01*
X935642Y309145D01*
X935768Y308861D01*
X935867Y308553D01*
X935938Y308223D01*
X935980Y307869D01*
X935994Y307493D01*
X935994Y303412D01*
X936005Y303083D01*
X936040Y302797D01*
X936097Y302555D01*
X936178Y302356D01*
X936291Y302201D01*
X936445Y302090D01*
X936641Y302024D01*
X936879Y302001D01*
X937122Y302017D01*
X937395Y302063D01*
X937395Y301082D01*
X937096Y301021D01*
X936793Y300977D01*
X936487Y300950D01*
X936178Y300942D01*
X935966Y300949D01*
X935770Y300970D01*
X935588Y301006D01*
X935421Y301057D01*
X935270Y301121D01*
X935133Y301200D01*
X935011Y301294D01*
X934903Y301402D01*
X934809Y301525D01*
X934726Y301664D01*
X934653Y301820D01*
X934591Y301992D01*
X934540Y302180D01*
X934500Y302384D01*
X934452Y302842D01*
X934400Y302842D01*
X934085Y302339D01*
X933919Y302117D01*
X933746Y301915D01*
X933567Y301733D01*
X933383Y301570D01*
X933191Y301428D01*
X932994Y301305D01*
X932788Y301199D01*
X932572Y301108D01*
X932344Y301030D01*
X932106Y300967D01*
X931857Y300918D01*
X931597Y300882D01*
X931327Y300861D01*
X931045Y300854D01*
G37*
%LPC*%
G36*
X931404Y302037D02*
X931618Y302043D01*
X931826Y302061D01*
X932223Y302135D01*
X932597Y302258D01*
X932946Y302431D01*
X933265Y302646D01*
X933549Y302898D01*
X933797Y303187D01*
X934010Y303512D01*
X934181Y303859D01*
X934302Y304210D01*
X934376Y304566D01*
X934400Y304927D01*
X934400Y305706D01*
X932674Y305671D01*
X932152Y305651D01*
X931697Y305606D01*
X931309Y305537D01*
X930988Y305444D01*
X930718Y305324D01*
X930482Y305176D01*
X930278Y305000D01*
X930108Y304795D01*
X929974Y304560D01*
X929878Y304290D01*
X929821Y303986D01*
X929802Y303648D01*
X929808Y303461D01*
X929828Y303285D01*
X929860Y303119D01*
X929906Y302965D01*
X929964Y302821D01*
X930036Y302689D01*
X930120Y302568D01*
X930218Y302457D01*
X930327Y302358D01*
X930448Y302273D01*
X930580Y302201D01*
X930722Y302142D01*
X930876Y302096D01*
X931041Y302063D01*
X931217Y302043D01*
X931404Y302037D01*
G37*
%LPD*%
G36*
X862386Y301029D02*
X860897Y301029D01*
X860897Y303823D01*
X855081Y303823D01*
X855081Y305049D01*
X860730Y313370D01*
X862386Y313370D01*
X862386Y305067D01*
X864120Y305067D01*
X864120Y303823D01*
X862386Y303823D01*
X862386Y301029D01*
G37*
%LPC*%
G36*
X860897Y305067D02*
X860897Y311592D01*
X860651Y311128D01*
X860310Y310550D01*
X857148Y305890D01*
X856675Y305242D01*
X856535Y305067D01*
X860897Y305067D01*
G37*
%LPD*%
G36*
X901472Y300854D02*
X901014Y300866D01*
X900571Y300903D01*
X900144Y300963D01*
X899733Y301048D01*
X899337Y301157D01*
X898957Y301290D01*
X898593Y301448D01*
X898245Y301629D01*
X897914Y301833D01*
X897604Y302058D01*
X897314Y302304D01*
X897045Y302571D01*
X896796Y302858D01*
X896566Y303166D01*
X896358Y303495D01*
X896169Y303845D01*
X896002Y304214D01*
X895857Y304599D01*
X895734Y305000D01*
X895634Y305418D01*
X895556Y305853D01*
X895500Y306304D01*
X895466Y306772D01*
X895455Y307257D01*
X895461Y307621D01*
X895480Y307975D01*
X895511Y308319D01*
X895555Y308652D01*
X895611Y308976D01*
X895679Y309291D01*
X895760Y309595D01*
X895854Y309889D01*
X895960Y310173D01*
X896078Y310447D01*
X896352Y310965D01*
X896676Y311443D01*
X897049Y311881D01*
X897467Y312273D01*
X897923Y312613D01*
X898165Y312763D01*
X898417Y312901D01*
X898679Y313025D01*
X898950Y313136D01*
X899231Y313234D01*
X899521Y313319D01*
X899821Y313391D01*
X900130Y313449D01*
X900449Y313495D01*
X900778Y313528D01*
X901116Y313547D01*
X901464Y313554D01*
X901946Y313542D01*
X902408Y313506D01*
X902850Y313446D01*
X903272Y313361D01*
X903674Y313253D01*
X904055Y313120D01*
X904416Y312964D01*
X904757Y312783D01*
X905076Y312579D01*
X905374Y312351D01*
X905650Y312100D01*
X905904Y311826D01*
X906136Y311529D01*
X906346Y311208D01*
X906535Y310864D01*
X906701Y310497D01*
X905116Y309972D01*
X905000Y310233D01*
X904869Y310479D01*
X904721Y310708D01*
X904556Y310922D01*
X904376Y311120D01*
X904179Y311302D01*
X903966Y311468D01*
X903736Y311618D01*
X903493Y311752D01*
X903239Y311867D01*
X902974Y311965D01*
X902697Y312045D01*
X902410Y312108D01*
X902111Y312152D01*
X901802Y312179D01*
X901481Y312188D01*
X900983Y312167D01*
X900513Y312105D01*
X900072Y312002D01*
X899659Y311858D01*
X899275Y311673D01*
X898919Y311446D01*
X898592Y311178D01*
X898293Y310870D01*
X898026Y310525D01*
X897795Y310149D01*
X897599Y309744D01*
X897439Y309307D01*
X897314Y308840D01*
X897226Y308343D01*
X897172Y307815D01*
X897154Y307257D01*
X897173Y306703D01*
X897229Y306178D01*
X897321Y305680D01*
X897451Y305210D01*
X897618Y304768D01*
X897822Y304354D01*
X898063Y303967D01*
X898341Y303609D01*
X898651Y303285D01*
X898987Y303005D01*
X899349Y302768D01*
X899737Y302574D01*
X900151Y302423D01*
X900592Y302315D01*
X901058Y302251D01*
X901551Y302229D01*
X901870Y302239D01*
X902179Y302269D01*
X902478Y302319D01*
X902767Y302390D01*
X903046Y302480D01*
X903314Y302590D01*
X903573Y302720D01*
X903822Y302871D01*
X904060Y303041D01*
X904289Y303232D01*
X904507Y303442D01*
X904716Y303673D01*
X904914Y303923D01*
X905102Y304194D01*
X905281Y304485D01*
X905449Y304795D01*
X906815Y304112D01*
X906615Y303726D01*
X906395Y303363D01*
X906157Y303024D01*
X905899Y302709D01*
X905621Y302417D01*
X905325Y302150D01*
X905009Y301906D01*
X904674Y301686D01*
X904322Y301491D01*
X903956Y301322D01*
X903577Y301179D01*
X903184Y301062D01*
X902776Y300971D01*
X902356Y300906D01*
X901921Y300867D01*
X901472Y300854D01*
G37*
G36*
X871487Y301029D02*
X869753Y301029D01*
X864717Y313370D01*
X866477Y313370D01*
X869893Y304682D01*
X870629Y302501D01*
X871365Y304682D01*
X874763Y313370D01*
X876523Y313370D01*
X871487Y301029D01*
G37*
G36*
X853774Y301029D02*
X845603Y301029D01*
X845603Y302142D01*
X845838Y302639D01*
X846099Y303106D01*
X846384Y303543D01*
X846693Y303950D01*
X847019Y304333D01*
X847353Y304697D01*
X847696Y305042D01*
X848046Y305369D01*
X848752Y305981D01*
X849452Y306547D01*
X850114Y307090D01*
X850709Y307633D01*
X850976Y307908D01*
X851216Y308189D01*
X851429Y308477D01*
X851615Y308772D01*
X851767Y309079D01*
X851875Y309407D01*
X851940Y309754D01*
X851961Y310121D01*
X851952Y310368D01*
X851924Y310600D01*
X851878Y310819D01*
X851813Y311023D01*
X851729Y311213D01*
X851626Y311388D01*
X851505Y311550D01*
X851366Y311697D01*
X851210Y311829D01*
X851039Y311942D01*
X850854Y312039D01*
X850654Y312118D01*
X850440Y312179D01*
X850211Y312223D01*
X849968Y312249D01*
X849710Y312258D01*
X849464Y312249D01*
X849229Y312224D01*
X849005Y312181D01*
X848792Y312121D01*
X848590Y312044D01*
X848399Y311950D01*
X848219Y311839D01*
X848051Y311710D01*
X847896Y311567D01*
X847758Y311409D01*
X847637Y311238D01*
X847533Y311052D01*
X847445Y310853D01*
X847375Y310640D01*
X847321Y310414D01*
X847284Y310173D01*
X845673Y310322D01*
X845731Y310683D01*
X845817Y311024D01*
X845932Y311347D01*
X846075Y311651D01*
X846246Y311936D01*
X846445Y312202D01*
X846673Y312450D01*
X846930Y312678D01*
X847210Y312883D01*
X847509Y313061D01*
X847828Y313212D01*
X848166Y313335D01*
X848523Y313431D01*
X848899Y313499D01*
X849295Y313540D01*
X849710Y313554D01*
X850163Y313540D01*
X850589Y313499D01*
X850988Y313430D01*
X851360Y313334D01*
X851705Y313210D01*
X852024Y313059D01*
X852315Y312880D01*
X852579Y312674D01*
X852814Y312442D01*
X853018Y312187D01*
X853190Y311910D01*
X853331Y311609D01*
X853441Y311284D01*
X853519Y310937D01*
X853566Y310567D01*
X853582Y310173D01*
X853561Y309815D01*
X853500Y309457D01*
X853397Y309101D01*
X853253Y308746D01*
X853069Y308391D01*
X852845Y308036D01*
X852581Y307681D01*
X852277Y307327D01*
X851879Y306923D01*
X851333Y306422D01*
X850639Y305824D01*
X849798Y305128D01*
X849320Y304727D01*
X848894Y304345D01*
X848519Y303984D01*
X848195Y303644D01*
X847918Y303316D01*
X847683Y302994D01*
X847489Y302679D01*
X847337Y302369D01*
X853774Y302369D01*
X853774Y301029D01*
G37*
G36*
X939289Y301029D02*
X937590Y301029D01*
X940962Y305899D01*
X937747Y310506D01*
X939490Y310506D01*
X941855Y306819D01*
X944202Y310506D01*
X945963Y310506D01*
X942748Y305917D01*
X946164Y301029D01*
X944404Y301029D01*
X941855Y304918D01*
X939289Y301029D01*
G37*
G36*
X797558Y421624D02*
X796488Y421624D01*
X796488Y429515D01*
X799809Y429515D01*
X800132Y429505D01*
X800435Y429476D01*
X800720Y429427D01*
X800987Y429359D01*
X801234Y429272D01*
X801463Y429165D01*
X801673Y429039D01*
X801864Y428893D01*
X802035Y428730D01*
X802183Y428550D01*
X802308Y428355D01*
X802410Y428144D01*
X802490Y427917D01*
X802547Y427674D01*
X802581Y427415D01*
X802592Y427140D01*
X802581Y426867D01*
X802547Y426609D01*
X802490Y426365D01*
X802410Y426135D01*
X802307Y425920D01*
X802181Y425719D01*
X802033Y425532D01*
X801862Y425359D01*
X801671Y425205D01*
X801463Y425070D01*
X801240Y424957D01*
X801000Y424864D01*
X800744Y424792D01*
X800471Y424740D01*
X800182Y424709D01*
X799876Y424699D01*
X797558Y424699D01*
X797558Y421624D01*
G37*
%LPC*%
G36*
X799725Y425544D02*
X799942Y425550D01*
X800145Y425569D01*
X800334Y425600D01*
X800509Y425643D01*
X800670Y425699D01*
X800817Y425767D01*
X800950Y425848D01*
X801069Y425940D01*
X801174Y426046D01*
X801265Y426163D01*
X801342Y426293D01*
X801405Y426436D01*
X801454Y426590D01*
X801489Y426758D01*
X801510Y426937D01*
X801517Y427129D01*
X801510Y427314D01*
X801488Y427487D01*
X801453Y427649D01*
X801402Y427798D01*
X801338Y427935D01*
X801259Y428061D01*
X801166Y428174D01*
X801058Y428276D01*
X800936Y428365D01*
X800800Y428443D01*
X800649Y428508D01*
X800484Y428562D01*
X800305Y428604D01*
X800111Y428634D01*
X799903Y428652D01*
X799680Y428658D01*
X797558Y428658D01*
X797558Y425544D01*
X799725Y425544D01*
G37*
%LPD*%
G36*
X792580Y421624D02*
X791516Y421624D01*
X791516Y428641D01*
X788805Y428641D01*
X788805Y429515D01*
X795290Y429515D01*
X795290Y428641D01*
X792580Y428641D01*
X792580Y421624D01*
G37*
G36*
X808991Y421624D02*
X804046Y421624D01*
X804046Y422481D01*
X806057Y422481D01*
X806057Y428551D01*
X804276Y427280D01*
X804276Y428232D01*
X806141Y429515D01*
X807070Y429515D01*
X807070Y422481D01*
X808991Y422481D01*
X808991Y421624D01*
G37*
G36*
X585926Y491323D02*
X584857Y491323D01*
X584857Y499214D01*
X588178Y499214D01*
X588500Y499204D01*
X588804Y499175D01*
X589089Y499126D01*
X589355Y499058D01*
X589603Y498971D01*
X589831Y498864D01*
X590041Y498738D01*
X590233Y498592D01*
X590403Y498429D01*
X590551Y498250D01*
X590676Y498054D01*
X590779Y497843D01*
X590858Y497616D01*
X590915Y497373D01*
X590949Y497114D01*
X590961Y496839D01*
X590949Y496567D01*
X590915Y496308D01*
X590858Y496064D01*
X590778Y495834D01*
X590675Y495619D01*
X590550Y495418D01*
X590401Y495231D01*
X590230Y495059D01*
X590039Y494904D01*
X589832Y494770D01*
X589608Y494656D01*
X589368Y494563D01*
X589112Y494491D01*
X588839Y494439D01*
X588550Y494408D01*
X588245Y494398D01*
X585926Y494398D01*
X585926Y491323D01*
G37*
%LPC*%
G36*
X588094Y495243D02*
X588311Y495250D01*
X588514Y495268D01*
X588703Y495299D01*
X588878Y495342D01*
X589039Y495398D01*
X589186Y495466D01*
X589319Y495547D01*
X589438Y495640D01*
X589543Y495745D01*
X589634Y495862D01*
X589711Y495992D01*
X589774Y496135D01*
X589823Y496290D01*
X589858Y496457D01*
X589879Y496636D01*
X589886Y496828D01*
X589878Y497013D01*
X589857Y497187D01*
X589821Y497348D01*
X589771Y497497D01*
X589706Y497634D01*
X589627Y497760D01*
X589534Y497873D01*
X589426Y497975D01*
X589304Y498064D01*
X589168Y498142D01*
X589017Y498208D01*
X588852Y498261D01*
X588673Y498303D01*
X588479Y498333D01*
X588271Y498351D01*
X588049Y498357D01*
X585926Y498357D01*
X585926Y495243D01*
X588094Y495243D01*
G37*
%LPD*%
G36*
X597343Y491323D02*
X592118Y491323D01*
X592118Y492035D01*
X592268Y492353D01*
X592435Y492651D01*
X592617Y492931D01*
X592815Y493191D01*
X593237Y493668D01*
X593680Y494098D01*
X594132Y494490D01*
X594579Y494851D01*
X595002Y495199D01*
X595383Y495546D01*
X595707Y495901D01*
X595843Y496086D01*
X595962Y496274D01*
X596059Y496471D01*
X596128Y496680D01*
X596170Y496902D01*
X596183Y497136D01*
X596160Y497443D01*
X596088Y497713D01*
X595969Y497947D01*
X595803Y498144D01*
X595594Y498301D01*
X595348Y498413D01*
X595064Y498480D01*
X594744Y498503D01*
X594436Y498481D01*
X594157Y498415D01*
X593906Y498306D01*
X593683Y498153D01*
X593496Y497960D01*
X593352Y497732D01*
X593251Y497469D01*
X593193Y497170D01*
X592163Y497265D01*
X592200Y497496D01*
X592255Y497714D01*
X592328Y497920D01*
X592419Y498115D01*
X592529Y498297D01*
X592657Y498467D01*
X592802Y498625D01*
X592966Y498771D01*
X593145Y498903D01*
X593337Y499016D01*
X593540Y499113D01*
X593756Y499191D01*
X593985Y499253D01*
X594226Y499296D01*
X594479Y499323D01*
X594744Y499331D01*
X595034Y499323D01*
X595306Y499296D01*
X595561Y499252D01*
X595799Y499191D01*
X596020Y499112D01*
X596223Y499015D01*
X596409Y498901D01*
X596578Y498769D01*
X596728Y498621D01*
X596859Y498458D01*
X596969Y498280D01*
X597059Y498088D01*
X597129Y497880D01*
X597179Y497658D01*
X597209Y497421D01*
X597219Y497170D01*
X597206Y496941D01*
X597167Y496712D01*
X597101Y496484D01*
X597009Y496257D01*
X596892Y496030D01*
X596748Y495803D01*
X596579Y495577D01*
X596385Y495350D01*
X596131Y495092D01*
X595782Y494772D01*
X594800Y493944D01*
X594222Y493444D01*
X593775Y492995D01*
X593598Y492786D01*
X593448Y492580D01*
X593324Y492378D01*
X593227Y492180D01*
X597343Y492180D01*
X597343Y491323D01*
G37*
G36*
X580948Y491323D02*
X579884Y491323D01*
X579884Y498340D01*
X577174Y498340D01*
X577174Y499214D01*
X583658Y499214D01*
X583658Y498340D01*
X580948Y498340D01*
X580948Y491323D01*
G37*
G36*
X589233Y551995D02*
X587744Y551995D01*
X587744Y564336D01*
X589943Y564336D01*
X593227Y555779D01*
X593399Y555244D01*
X593564Y554671D01*
X593779Y553817D01*
X593887Y554258D01*
X594072Y554881D01*
X594259Y555463D01*
X594374Y555779D01*
X597597Y564336D01*
X599743Y564336D01*
X599743Y551995D01*
X598237Y551995D01*
X598237Y560228D01*
X598257Y561568D01*
X598316Y562856D01*
X597908Y561459D01*
X597721Y560889D01*
X597545Y560404D01*
X594357Y551995D01*
X593183Y551995D01*
X589951Y560404D01*
X589461Y561893D01*
X589172Y562856D01*
X589198Y561884D01*
X589233Y560228D01*
X589233Y551995D01*
G37*
G36*
X620550Y551820D02*
X620177Y551829D01*
X619817Y551855D01*
X619468Y551898D01*
X619131Y551958D01*
X618807Y552036D01*
X618494Y552131D01*
X618194Y552243D01*
X617905Y552372D01*
X617631Y552518D01*
X617372Y552679D01*
X617129Y552856D01*
X616902Y553049D01*
X616691Y553257D01*
X616496Y553481D01*
X616317Y553720D01*
X616153Y553975D01*
X616008Y554244D01*
X615881Y554526D01*
X615774Y554820D01*
X615687Y555127D01*
X615619Y555446D01*
X615570Y555778D01*
X615541Y556123D01*
X615532Y556480D01*
X615532Y564336D01*
X617204Y564336D01*
X617204Y556620D01*
X617218Y556210D01*
X617258Y555826D01*
X617325Y555467D01*
X617419Y555133D01*
X617540Y554825D01*
X617687Y554543D01*
X617862Y554285D01*
X618063Y554054D01*
X618289Y553848D01*
X618540Y553670D01*
X618814Y553520D01*
X619112Y553397D01*
X619433Y553301D01*
X619779Y553233D01*
X620148Y553191D01*
X620541Y553178D01*
X620946Y553192D01*
X621327Y553234D01*
X621685Y553305D01*
X622021Y553404D01*
X622332Y553532D01*
X622621Y553688D01*
X622887Y553872D01*
X623130Y554084D01*
X623346Y554324D01*
X623534Y554590D01*
X623693Y554882D01*
X623823Y555200D01*
X623924Y555544D01*
X623996Y555915D01*
X624039Y556311D01*
X624054Y556734D01*
X624054Y564336D01*
X625718Y564336D01*
X625718Y556637D01*
X625708Y556269D01*
X625678Y555914D01*
X625628Y555572D01*
X625559Y555243D01*
X625470Y554926D01*
X625361Y554622D01*
X625232Y554332D01*
X625083Y554054D01*
X624916Y553790D01*
X624732Y553543D01*
X624533Y553311D01*
X624316Y553096D01*
X624084Y552896D01*
X623835Y552713D01*
X623569Y552545D01*
X623287Y552394D01*
X622991Y552259D01*
X622681Y552143D01*
X622358Y552044D01*
X622023Y551964D01*
X621674Y551901D01*
X621312Y551856D01*
X620938Y551829D01*
X620550Y551820D01*
G37*
G36*
X608138Y551820D02*
X607680Y551832D01*
X607237Y551869D01*
X606810Y551929D01*
X606399Y552014D01*
X606003Y552123D01*
X605623Y552256D01*
X605259Y552414D01*
X604911Y552595D01*
X604580Y552800D01*
X604270Y553025D01*
X603980Y553270D01*
X603711Y553537D01*
X603461Y553824D01*
X603232Y554132D01*
X603023Y554461D01*
X602835Y554811D01*
X602668Y555180D01*
X602523Y555565D01*
X602400Y555966D01*
X602300Y556385D01*
X602221Y556819D01*
X602166Y557271D01*
X602132Y557738D01*
X602121Y558223D01*
X602127Y558587D01*
X602146Y558941D01*
X602177Y559285D01*
X602221Y559619D01*
X602277Y559943D01*
X602345Y560257D01*
X602426Y560561D01*
X602520Y560855D01*
X602625Y561139D01*
X602744Y561413D01*
X603018Y561931D01*
X603342Y562409D01*
X603715Y562847D01*
X604133Y563239D01*
X604589Y563579D01*
X604831Y563729D01*
X605083Y563867D01*
X605345Y563991D01*
X605616Y564102D01*
X605896Y564200D01*
X606187Y564285D01*
X606487Y564357D01*
X606796Y564416D01*
X607115Y564461D01*
X607444Y564494D01*
X607782Y564514D01*
X608129Y564520D01*
X608612Y564508D01*
X609074Y564472D01*
X609516Y564412D01*
X609938Y564327D01*
X610340Y564219D01*
X610721Y564087D01*
X611082Y563930D01*
X611423Y563749D01*
X611742Y563545D01*
X612040Y563317D01*
X612316Y563067D01*
X612570Y562793D01*
X612802Y562495D01*
X613012Y562174D01*
X613201Y561831D01*
X613367Y561463D01*
X611782Y560938D01*
X611666Y561199D01*
X611535Y561445D01*
X611387Y561674D01*
X611222Y561888D01*
X611042Y562086D01*
X610845Y562268D01*
X610632Y562434D01*
X610402Y562584D01*
X610159Y562718D01*
X609905Y562834D01*
X609640Y562931D01*
X609363Y563011D01*
X609076Y563074D01*
X608777Y563118D01*
X608468Y563145D01*
X608147Y563154D01*
X607649Y563133D01*
X607179Y563071D01*
X606738Y562968D01*
X606325Y562824D01*
X605941Y562639D01*
X605585Y562412D01*
X605258Y562145D01*
X604959Y561836D01*
X604692Y561491D01*
X604461Y561116D01*
X604265Y560710D01*
X604105Y560273D01*
X603980Y559806D01*
X603891Y559309D01*
X603838Y558781D01*
X603820Y558223D01*
X603839Y557670D01*
X603894Y557144D01*
X603987Y556646D01*
X604117Y556177D01*
X604284Y555734D01*
X604488Y555320D01*
X604729Y554934D01*
X605007Y554575D01*
X605317Y554251D01*
X605653Y553971D01*
X606015Y553734D01*
X606403Y553540D01*
X606817Y553389D01*
X607258Y553282D01*
X607724Y553217D01*
X608217Y553195D01*
X608536Y553205D01*
X608845Y553235D01*
X609144Y553286D01*
X609433Y553356D01*
X609712Y553446D01*
X609980Y553556D01*
X610239Y553687D01*
X610488Y553837D01*
X610726Y554007D01*
X610955Y554198D01*
X611173Y554408D01*
X611382Y554639D01*
X611580Y554889D01*
X611768Y555160D01*
X611946Y555451D01*
X612115Y555762D01*
X613481Y555078D01*
X613281Y554692D01*
X613061Y554329D01*
X612823Y553990D01*
X612565Y553675D01*
X612287Y553383D01*
X611991Y553116D01*
X611675Y552872D01*
X611339Y552652D01*
X610988Y552457D01*
X610622Y552288D01*
X610243Y552145D01*
X609849Y552028D01*
X609442Y551937D01*
X609021Y551872D01*
X608587Y551833D01*
X608138Y551820D01*
G37*
G36*
X865274Y465878D02*
X865005Y465885D01*
X864749Y465908D01*
X864506Y465945D01*
X864277Y465998D01*
X864061Y466066D01*
X863859Y466148D01*
X863669Y466246D01*
X863493Y466359D01*
X863332Y466486D01*
X863186Y466627D01*
X863055Y466781D01*
X862940Y466949D01*
X862841Y467130D01*
X862757Y467324D01*
X862689Y467532D01*
X862636Y467754D01*
X863656Y467871D01*
X863751Y467597D01*
X863878Y467359D01*
X864036Y467158D01*
X864225Y466993D01*
X864446Y466865D01*
X864698Y466774D01*
X864982Y466719D01*
X865296Y466701D01*
X865494Y466708D01*
X865680Y466731D01*
X865856Y466770D01*
X866020Y466823D01*
X866174Y466892D01*
X866316Y466976D01*
X866447Y467076D01*
X866568Y467191D01*
X866675Y467319D01*
X866768Y467459D01*
X866847Y467610D01*
X866912Y467772D01*
X866962Y467947D01*
X866998Y468132D01*
X867020Y468329D01*
X867027Y468538D01*
X867020Y468719D01*
X866998Y468892D01*
X866962Y469056D01*
X866911Y469211D01*
X866846Y469357D01*
X866767Y469494D01*
X866673Y469622D01*
X866565Y469742D01*
X866444Y469849D01*
X866314Y469942D01*
X866173Y470021D01*
X866022Y470086D01*
X865861Y470136D01*
X865691Y470172D01*
X865510Y470194D01*
X865319Y470201D01*
X865118Y470193D01*
X864924Y470169D01*
X864737Y470128D01*
X864557Y470072D01*
X864381Y469996D01*
X864204Y469898D01*
X864028Y469778D01*
X863852Y469635D01*
X862866Y469635D01*
X863129Y473880D01*
X867615Y473880D01*
X867615Y473023D01*
X864048Y473023D01*
X863896Y470520D01*
X864065Y470638D01*
X864244Y470740D01*
X864433Y470827D01*
X864631Y470898D01*
X864840Y470953D01*
X865059Y470992D01*
X865287Y471016D01*
X865526Y471024D01*
X865810Y471013D01*
X866079Y470981D01*
X866333Y470928D01*
X866572Y470853D01*
X866797Y470757D01*
X867007Y470640D01*
X867202Y470501D01*
X867382Y470341D01*
X867544Y470163D01*
X867685Y469973D01*
X867804Y469770D01*
X867901Y469554D01*
X867977Y469325D01*
X868031Y469083D01*
X868063Y468828D01*
X868074Y468560D01*
X868062Y468256D01*
X868028Y467969D01*
X867970Y467698D01*
X867888Y467444D01*
X867784Y467207D01*
X867657Y466986D01*
X867506Y466782D01*
X867332Y466594D01*
X867137Y466426D01*
X866925Y466281D01*
X866695Y466158D01*
X866446Y466057D01*
X866180Y465978D01*
X865896Y465922D01*
X865594Y465889D01*
X865274Y465878D01*
G37*
G36*
X859018Y465878D02*
X858773Y465886D01*
X858542Y465910D01*
X858323Y465950D01*
X858117Y466007D01*
X857924Y466080D01*
X857743Y466169D01*
X857575Y466274D01*
X857420Y466396D01*
X857278Y466533D01*
X857148Y466687D01*
X857031Y466857D01*
X856927Y467043D01*
X856836Y467245D01*
X856757Y467464D01*
X856691Y467699D01*
X856638Y467950D01*
X857685Y468123D01*
X857751Y467816D01*
X857849Y467545D01*
X857978Y467309D01*
X858138Y467110D01*
X858326Y466950D01*
X858536Y466837D01*
X858768Y466768D01*
X859023Y466746D01*
X859165Y466752D01*
X859299Y466771D01*
X859544Y466846D01*
X859758Y466971D01*
X859942Y467146D01*
X860089Y467369D01*
X860194Y467639D01*
X860257Y467956D01*
X860278Y468319D01*
X860278Y473006D01*
X858760Y473006D01*
X858760Y473880D01*
X861342Y473880D01*
X861342Y468342D01*
X861332Y468062D01*
X861303Y467798D01*
X861254Y467549D01*
X861186Y467316D01*
X861099Y467098D01*
X860992Y466895D01*
X860866Y466708D01*
X860720Y466536D01*
X860557Y466381D01*
X860380Y466248D01*
X860189Y466135D01*
X859984Y466042D01*
X859764Y465970D01*
X859529Y465919D01*
X859281Y465888D01*
X859018Y465878D01*
G37*
G36*
X850611Y283916D02*
X850288Y283931D01*
X849984Y283978D01*
X849700Y284055D01*
X849435Y284164D01*
X849190Y284303D01*
X848965Y284474D01*
X848759Y284675D01*
X848573Y284907D01*
X848408Y285169D01*
X848264Y285459D01*
X848143Y285777D01*
X848044Y286124D01*
X847967Y286498D01*
X847911Y286901D01*
X847878Y287332D01*
X847867Y287791D01*
X847879Y288289D01*
X847913Y288756D01*
X847970Y289194D01*
X848051Y289603D01*
X848154Y289981D01*
X848280Y290330D01*
X848429Y290649D01*
X848601Y290938D01*
X848794Y291196D01*
X849007Y291419D01*
X849239Y291607D01*
X849490Y291762D01*
X849761Y291882D01*
X850051Y291967D01*
X850361Y292019D01*
X850690Y292036D01*
X850908Y292030D01*
X851116Y292011D01*
X851313Y291979D01*
X851500Y291935D01*
X851677Y291879D01*
X851844Y291810D01*
X852000Y291728D01*
X852146Y291634D01*
X852406Y291408D01*
X852626Y291132D01*
X852804Y290805D01*
X852941Y290429D01*
X851978Y290255D01*
X851892Y290481D01*
X851785Y290677D01*
X851656Y290842D01*
X851504Y290978D01*
X851331Y291083D01*
X851136Y291158D01*
X850918Y291203D01*
X850678Y291218D01*
X850469Y291206D01*
X850272Y291168D01*
X850086Y291105D01*
X849913Y291017D01*
X849753Y290904D01*
X849604Y290766D01*
X849467Y290603D01*
X849343Y290415D01*
X849232Y290203D01*
X849136Y289968D01*
X849055Y289711D01*
X848988Y289431D01*
X848936Y289129D01*
X848899Y288805D01*
X848877Y288458D01*
X848870Y288088D01*
X849021Y288328D01*
X849200Y288537D01*
X849407Y288715D01*
X849642Y288864D01*
X849901Y288980D01*
X850177Y289063D01*
X850472Y289113D01*
X850785Y289130D01*
X851051Y289119D01*
X851303Y289087D01*
X851540Y289033D01*
X851764Y288959D01*
X851974Y288863D01*
X852169Y288745D01*
X852351Y288606D01*
X852518Y288446D01*
X852668Y288268D01*
X852799Y288075D01*
X852909Y287868D01*
X852999Y287646D01*
X853069Y287409D01*
X853119Y287157D01*
X853149Y286891D01*
X853159Y286610D01*
X853149Y286306D01*
X853117Y286018D01*
X853064Y285747D01*
X852990Y285492D01*
X852895Y285254D01*
X852778Y285032D01*
X852640Y284827D01*
X852482Y284638D01*
X852304Y284469D01*
X852111Y284322D01*
X851901Y284198D01*
X851675Y284097D01*
X851433Y284018D01*
X851175Y283961D01*
X850901Y283927D01*
X850611Y283916D01*
G37*
%LPC*%
G36*
X850578Y284728D02*
X850755Y284736D01*
X850922Y284759D01*
X851080Y284797D01*
X851227Y284850D01*
X851365Y284919D01*
X851493Y285004D01*
X851612Y285103D01*
X851720Y285218D01*
X851817Y285346D01*
X851901Y285486D01*
X851973Y285637D01*
X852031Y285800D01*
X852076Y285974D01*
X852109Y286159D01*
X852128Y286356D01*
X852134Y286565D01*
X852128Y286773D01*
X852108Y286969D01*
X852075Y287152D01*
X852029Y287324D01*
X851970Y287483D01*
X851898Y287629D01*
X851813Y287764D01*
X851714Y287886D01*
X851604Y287995D01*
X851484Y288090D01*
X851353Y288170D01*
X851212Y288235D01*
X851060Y288286D01*
X850899Y288322D01*
X850727Y288344D01*
X850544Y288351D01*
X850372Y288345D01*
X850208Y288325D01*
X850053Y288293D01*
X849906Y288248D01*
X849638Y288120D01*
X849404Y287940D01*
X849303Y287832D01*
X849215Y287714D01*
X849140Y287587D01*
X849079Y287450D01*
X849032Y287304D01*
X848998Y287147D01*
X848977Y286981D01*
X848970Y286806D01*
X848978Y286583D01*
X848999Y286370D01*
X849034Y286167D01*
X849083Y285975D01*
X849147Y285794D01*
X849224Y285622D01*
X849316Y285461D01*
X849421Y285310D01*
X849538Y285174D01*
X849663Y285056D01*
X849795Y284955D01*
X849936Y284874D01*
X850084Y284810D01*
X850241Y284764D01*
X850405Y284737D01*
X850578Y284728D01*
G37*
%LPD*%
G36*
X844125Y283916D02*
X843881Y283924D01*
X843650Y283948D01*
X843431Y283989D01*
X843225Y284045D01*
X843031Y284118D01*
X842851Y284207D01*
X842683Y284313D01*
X842528Y284434D01*
X842386Y284572D01*
X842256Y284725D01*
X842139Y284895D01*
X842035Y285081D01*
X841943Y285284D01*
X841865Y285502D01*
X841799Y285737D01*
X841745Y285988D01*
X842793Y286162D01*
X842859Y285855D01*
X842956Y285583D01*
X843085Y285348D01*
X843246Y285148D01*
X843434Y284989D01*
X843644Y284875D01*
X843876Y284807D01*
X844131Y284784D01*
X844273Y284790D01*
X844407Y284809D01*
X844652Y284884D01*
X844866Y285009D01*
X845049Y285184D01*
X845196Y285408D01*
X845301Y285678D01*
X845364Y285994D01*
X845385Y286358D01*
X845385Y291045D01*
X843868Y291045D01*
X843868Y291918D01*
X846449Y291918D01*
X846449Y286380D01*
X846440Y286101D01*
X846410Y285837D01*
X846362Y285588D01*
X846294Y285354D01*
X846207Y285136D01*
X846100Y284934D01*
X845973Y284746D01*
X845828Y284574D01*
X845665Y284420D01*
X845488Y284286D01*
X845297Y284173D01*
X845091Y284080D01*
X844871Y284009D01*
X844637Y283957D01*
X844388Y283926D01*
X844125Y283916D01*
G37*
G36*
X796473Y552358D02*
X796006Y552370D01*
X795555Y552406D01*
X795121Y552467D01*
X794703Y552551D01*
X794301Y552659D01*
X793915Y552792D01*
X793546Y552948D01*
X793193Y553129D01*
X792858Y553332D01*
X792544Y553557D01*
X792250Y553804D01*
X791976Y554072D01*
X791723Y554361D01*
X791491Y554672D01*
X791278Y555004D01*
X791086Y555358D01*
X790916Y555730D01*
X790768Y556118D01*
X790643Y556520D01*
X790541Y556938D01*
X790462Y557371D01*
X790405Y557819D01*
X790371Y558282D01*
X790359Y558761D01*
X790366Y559126D01*
X790385Y559481D01*
X790416Y559825D01*
X790461Y560160D01*
X790518Y560485D01*
X790587Y560799D01*
X790670Y561104D01*
X790765Y561398D01*
X790872Y561682D01*
X790992Y561957D01*
X791125Y562221D01*
X791271Y562475D01*
X791600Y562952D01*
X791980Y563390D01*
X792405Y563781D01*
X792632Y563957D01*
X792869Y564120D01*
X793116Y564270D01*
X793374Y564406D01*
X793641Y564530D01*
X793918Y564641D01*
X794204Y564739D01*
X794501Y564824D01*
X794808Y564895D01*
X795125Y564954D01*
X795451Y564999D01*
X795788Y565032D01*
X796134Y565052D01*
X796490Y565058D01*
X796953Y565046D01*
X797401Y565011D01*
X797833Y564953D01*
X798249Y564871D01*
X798649Y564766D01*
X799034Y564637D01*
X799404Y564485D01*
X799757Y564309D01*
X800093Y564111D01*
X800408Y563892D01*
X800703Y563652D01*
X800978Y563391D01*
X801232Y563108D01*
X801466Y562804D01*
X801679Y562479D01*
X801873Y562133D01*
X802044Y561768D01*
X802192Y561387D01*
X802318Y560989D01*
X802421Y560576D01*
X802501Y560146D01*
X802558Y559701D01*
X802592Y559239D01*
X802604Y558761D01*
X802592Y558284D01*
X802558Y557823D01*
X802500Y557377D01*
X802419Y556946D01*
X802315Y556529D01*
X802188Y556128D01*
X802037Y555742D01*
X801864Y555371D01*
X801669Y555018D01*
X801453Y554686D01*
X801218Y554376D01*
X800963Y554086D01*
X800687Y553817D01*
X800392Y553570D01*
X800076Y553343D01*
X799740Y553138D01*
X799386Y552955D01*
X799017Y552797D01*
X798632Y552663D01*
X798231Y552553D01*
X797815Y552468D01*
X797383Y552407D01*
X796936Y552370D01*
X796473Y552358D01*
G37*
%LPC*%
G36*
X796473Y553716D02*
X796992Y553736D01*
X797479Y553798D01*
X797936Y553901D01*
X798361Y554045D01*
X798756Y554231D01*
X799119Y554457D01*
X799452Y554725D01*
X799753Y555034D01*
X800021Y555381D01*
X800253Y555761D01*
X800449Y556176D01*
X800610Y556625D01*
X800735Y557108D01*
X800825Y557625D01*
X800878Y558176D01*
X800896Y558761D01*
X800878Y559321D01*
X800824Y559851D01*
X800734Y560349D01*
X800608Y560817D01*
X800446Y561254D01*
X800248Y561659D01*
X800014Y562034D01*
X799744Y562378D01*
X799441Y562686D01*
X799109Y562953D01*
X798747Y563179D01*
X798355Y563363D01*
X797933Y563507D01*
X797482Y563610D01*
X797001Y563671D01*
X796490Y563692D01*
X795976Y563672D01*
X795491Y563611D01*
X795036Y563510D01*
X794612Y563368D01*
X794217Y563185D01*
X793853Y562963D01*
X793519Y562699D01*
X793215Y562396D01*
X792944Y562055D01*
X792709Y561682D01*
X792510Y561277D01*
X792348Y560839D01*
X792221Y560368D01*
X792131Y559865D01*
X792077Y559329D01*
X792059Y558761D01*
X792077Y558195D01*
X792132Y557660D01*
X792223Y557155D01*
X792351Y556680D01*
X792515Y556234D01*
X792716Y555819D01*
X792954Y555433D01*
X793228Y555078D01*
X793534Y554759D01*
X793869Y554482D01*
X794232Y554248D01*
X794624Y554056D01*
X795044Y553907D01*
X795492Y553801D01*
X795968Y553737D01*
X796473Y553716D01*
G37*
%LPD*%
G36*
X809491Y552358D02*
X808942Y552371D01*
X808422Y552407D01*
X807933Y552469D01*
X807472Y552554D01*
X807042Y552664D01*
X806641Y552799D01*
X806270Y552958D01*
X805928Y553142D01*
X805616Y553350D01*
X805334Y553583D01*
X805081Y553840D01*
X804858Y554122D01*
X804665Y554428D01*
X804501Y554759D01*
X804366Y555114D01*
X804262Y555494D01*
X805882Y555818D01*
X805962Y555549D01*
X806062Y555299D01*
X806181Y555067D01*
X806320Y554853D01*
X806479Y554658D01*
X806657Y554482D01*
X806856Y554324D01*
X807073Y554184D01*
X807311Y554062D01*
X807570Y553956D01*
X807849Y553867D01*
X808148Y553794D01*
X808469Y553737D01*
X808809Y553696D01*
X809170Y553671D01*
X809552Y553663D01*
X809946Y553672D01*
X810316Y553698D01*
X810663Y553742D01*
X810987Y553802D01*
X811288Y553881D01*
X811566Y553976D01*
X811821Y554089D01*
X812053Y554219D01*
X812259Y554367D01*
X812438Y554530D01*
X812589Y554710D01*
X812713Y554906D01*
X812809Y555118D01*
X812878Y555347D01*
X812919Y555592D01*
X812933Y555853D01*
X812916Y556141D01*
X812864Y556400D01*
X812778Y556631D01*
X812657Y556834D01*
X812505Y557014D01*
X812325Y557178D01*
X812117Y557325D01*
X811882Y557456D01*
X811620Y557573D01*
X811334Y557681D01*
X811025Y557779D01*
X810691Y557867D01*
X809158Y558226D01*
X808471Y558389D01*
X807872Y558551D01*
X807360Y558713D01*
X806938Y558875D01*
X806579Y559041D01*
X806260Y559217D01*
X805981Y559403D01*
X805742Y559597D01*
X805536Y559805D01*
X805356Y560030D01*
X805201Y560271D01*
X805072Y560530D01*
X804971Y560807D01*
X804898Y561104D01*
X804854Y561420D01*
X804840Y561756D01*
X804859Y562141D01*
X804916Y562503D01*
X805011Y562843D01*
X805143Y563160D01*
X805314Y563454D01*
X805522Y563725D01*
X805769Y563974D01*
X806053Y564200D01*
X806373Y564401D01*
X806725Y564575D01*
X807110Y564723D01*
X807528Y564844D01*
X807978Y564937D01*
X808461Y565005D01*
X808977Y565045D01*
X809526Y565058D01*
X810036Y565048D01*
X810515Y565018D01*
X810963Y564968D01*
X811380Y564897D01*
X811767Y564807D01*
X812122Y564696D01*
X812447Y564565D01*
X812740Y564414D01*
X813008Y564239D01*
X813255Y564036D01*
X813481Y563804D01*
X813686Y563544D01*
X813871Y563256D01*
X814034Y562939D01*
X814177Y562594D01*
X814299Y562220D01*
X812653Y561931D01*
X812577Y562168D01*
X812486Y562388D01*
X812380Y562591D01*
X812258Y562778D01*
X812122Y562947D01*
X811969Y563100D01*
X811802Y563236D01*
X811619Y563355D01*
X811419Y563458D01*
X811201Y563548D01*
X810965Y563624D01*
X810710Y563686D01*
X810437Y563735D01*
X810146Y563769D01*
X809836Y563790D01*
X809508Y563797D01*
X809149Y563789D01*
X808812Y563766D01*
X808497Y563728D01*
X808203Y563674D01*
X807932Y563605D01*
X807682Y563521D01*
X807454Y563421D01*
X807249Y563306D01*
X807066Y563176D01*
X806908Y563031D01*
X806774Y562871D01*
X806664Y562696D01*
X806579Y562505D01*
X806518Y562300D01*
X806481Y562079D01*
X806469Y561844D01*
X806488Y561571D01*
X806545Y561324D01*
X806639Y561101D01*
X806771Y560902D01*
X806939Y560723D01*
X807140Y560558D01*
X807375Y560408D01*
X807643Y560272D01*
X807998Y560135D01*
X808494Y559984D01*
X809132Y559818D01*
X809911Y559637D01*
X811045Y559369D01*
X811598Y559221D01*
X812127Y559045D01*
X812627Y558841D01*
X813095Y558603D01*
X813313Y558469D01*
X813516Y558321D01*
X813705Y558158D01*
X813879Y557981D01*
X814036Y557789D01*
X814175Y557581D01*
X814297Y557356D01*
X814400Y557114D01*
X814482Y556854D01*
X814541Y556571D01*
X814576Y556267D01*
X814588Y555941D01*
X814567Y555526D01*
X814505Y555135D01*
X814400Y554768D01*
X814254Y554425D01*
X814066Y554107D01*
X813837Y553812D01*
X813566Y553542D01*
X813253Y553295D01*
X812902Y553076D01*
X812517Y552885D01*
X812097Y552724D01*
X811644Y552593D01*
X811157Y552490D01*
X810636Y552417D01*
X810080Y552373D01*
X809491Y552358D01*
G37*
G36*
X822344Y552358D02*
X821886Y552370D01*
X821443Y552407D01*
X821016Y552467D01*
X820604Y552552D01*
X820209Y552661D01*
X819829Y552794D01*
X819465Y552952D01*
X819117Y553133D01*
X818786Y553338D01*
X818476Y553563D01*
X818186Y553808D01*
X817917Y554075D01*
X817667Y554362D01*
X817438Y554671D01*
X817229Y555000D01*
X817041Y555349D01*
X816874Y555718D01*
X816729Y556103D01*
X816606Y556504D01*
X816505Y556923D01*
X816427Y557357D01*
X816372Y557809D01*
X816338Y558276D01*
X816327Y558761D01*
X816333Y559125D01*
X816352Y559479D01*
X816383Y559823D01*
X816427Y560157D01*
X816483Y560481D01*
X816551Y560795D01*
X816632Y561099D01*
X816725Y561393D01*
X816831Y561677D01*
X816950Y561951D01*
X817224Y562469D01*
X817547Y562947D01*
X817921Y563385D01*
X818339Y563777D01*
X818795Y564117D01*
X819037Y564267D01*
X819289Y564405D01*
X819551Y564529D01*
X819822Y564640D01*
X820102Y564738D01*
X820393Y564823D01*
X820692Y564895D01*
X821002Y564954D01*
X821321Y564999D01*
X821649Y565032D01*
X821988Y565052D01*
X822335Y565058D01*
X822818Y565046D01*
X823280Y565010D01*
X823722Y564950D01*
X824144Y564865D01*
X824546Y564757D01*
X824927Y564625D01*
X825288Y564468D01*
X825629Y564287D01*
X825948Y564083D01*
X826246Y563855D01*
X826522Y563605D01*
X826776Y563331D01*
X827008Y563033D01*
X827218Y562713D01*
X827407Y562369D01*
X827573Y562001D01*
X825988Y561476D01*
X825872Y561737D01*
X825741Y561983D01*
X825592Y562212D01*
X825428Y562426D01*
X825248Y562624D01*
X825051Y562806D01*
X824838Y562972D01*
X824608Y563123D01*
X824365Y563256D01*
X824111Y563372D01*
X823846Y563469D01*
X823569Y563549D01*
X823282Y563612D01*
X822983Y563656D01*
X822674Y563683D01*
X822353Y563692D01*
X821855Y563671D01*
X821385Y563609D01*
X820944Y563506D01*
X820531Y563362D01*
X820147Y563177D01*
X819791Y562950D01*
X819464Y562683D01*
X819165Y562374D01*
X818898Y562029D01*
X818667Y561654D01*
X818471Y561248D01*
X818311Y560811D01*
X818186Y560344D01*
X818097Y559847D01*
X818044Y559319D01*
X818026Y558761D01*
X818045Y558208D01*
X818100Y557682D01*
X818193Y557184D01*
X818323Y556715D01*
X818490Y556272D01*
X818694Y555858D01*
X818935Y555472D01*
X819213Y555113D01*
X819523Y554790D01*
X819859Y554509D01*
X820221Y554272D01*
X820609Y554078D01*
X821023Y553927D01*
X821464Y553820D01*
X821930Y553755D01*
X822423Y553733D01*
X822742Y553743D01*
X823051Y553773D01*
X823350Y553824D01*
X823639Y553894D01*
X823918Y553984D01*
X824186Y554094D01*
X824445Y554225D01*
X824694Y554375D01*
X824932Y554545D01*
X825161Y554736D01*
X825379Y554946D01*
X825588Y555177D01*
X825786Y555427D01*
X825974Y555698D01*
X826152Y555989D01*
X826320Y556300D01*
X827687Y555616D01*
X827487Y555230D01*
X827267Y554867D01*
X827028Y554528D01*
X826770Y554213D01*
X826493Y553922D01*
X826196Y553654D01*
X825881Y553410D01*
X825545Y553190D01*
X825194Y552995D01*
X824828Y552826D01*
X824449Y552683D01*
X824055Y552566D01*
X823648Y552475D01*
X823227Y552410D01*
X822793Y552371D01*
X822344Y552358D01*
G37*
G36*
X837427Y552533D02*
X829256Y552533D01*
X829256Y553646D01*
X829491Y554143D01*
X829752Y554610D01*
X830037Y555047D01*
X830346Y555454D01*
X830672Y555837D01*
X831006Y556201D01*
X831349Y556546D01*
X831699Y556873D01*
X832406Y557485D01*
X833105Y558051D01*
X833767Y558594D01*
X834362Y559137D01*
X834629Y559412D01*
X834869Y559694D01*
X835082Y559981D01*
X835268Y560276D01*
X835420Y560584D01*
X835528Y560911D01*
X835593Y561258D01*
X835614Y561625D01*
X835605Y561872D01*
X835577Y562104D01*
X835531Y562323D01*
X835466Y562527D01*
X835382Y562717D01*
X835279Y562893D01*
X835158Y563054D01*
X835019Y563201D01*
X834863Y563333D01*
X834692Y563447D01*
X834507Y563543D01*
X834307Y563622D01*
X834093Y563683D01*
X833864Y563727D01*
X833621Y563753D01*
X833363Y563762D01*
X833117Y563753D01*
X832882Y563728D01*
X832658Y563685D01*
X832445Y563625D01*
X832243Y563548D01*
X832052Y563454D01*
X831872Y563343D01*
X831704Y563214D01*
X831549Y563071D01*
X831411Y562913D01*
X831290Y562742D01*
X831186Y562556D01*
X831099Y562357D01*
X831028Y562145D01*
X830974Y561918D01*
X830937Y561677D01*
X829326Y561826D01*
X829384Y562187D01*
X829470Y562529D01*
X829585Y562851D01*
X829728Y563155D01*
X829899Y563440D01*
X830098Y563707D01*
X830326Y563954D01*
X830583Y564182D01*
X830863Y564388D01*
X831162Y564565D01*
X831481Y564716D01*
X831819Y564839D01*
X832176Y564935D01*
X832552Y565003D01*
X832948Y565044D01*
X833363Y565058D01*
X833816Y565044D01*
X834242Y565003D01*
X834641Y564934D01*
X835013Y564838D01*
X835358Y564714D01*
X835677Y564563D01*
X835968Y564384D01*
X836232Y564178D01*
X836467Y563946D01*
X836671Y563692D01*
X836843Y563414D01*
X836984Y563113D01*
X837094Y562789D01*
X837172Y562441D01*
X837219Y562071D01*
X837235Y561677D01*
X837214Y561319D01*
X837153Y560961D01*
X837050Y560605D01*
X836906Y560250D01*
X836722Y559895D01*
X836498Y559540D01*
X836234Y559186D01*
X835930Y558831D01*
X835532Y558427D01*
X834986Y557927D01*
X834292Y557328D01*
X833451Y556632D01*
X832973Y556231D01*
X832547Y555850D01*
X832172Y555489D01*
X831848Y555148D01*
X831571Y554820D01*
X831336Y554499D01*
X831142Y554183D01*
X830990Y553873D01*
X837427Y553873D01*
X837427Y552533D01*
G37*
G36*
X795344Y393350D02*
X794877Y393362D01*
X794426Y393398D01*
X793992Y393459D01*
X793574Y393543D01*
X793172Y393651D01*
X792786Y393784D01*
X792417Y393940D01*
X792064Y394121D01*
X791729Y394324D01*
X791415Y394549D01*
X791121Y394796D01*
X790847Y395064D01*
X790594Y395353D01*
X790362Y395664D01*
X790149Y395996D01*
X789957Y396350D01*
X789787Y396722D01*
X789639Y397110D01*
X789514Y397512D01*
X789412Y397930D01*
X789333Y398363D01*
X789276Y398811D01*
X789242Y399274D01*
X789230Y399753D01*
X789237Y400118D01*
X789256Y400473D01*
X789287Y400817D01*
X789332Y401152D01*
X789389Y401477D01*
X789458Y401791D01*
X789541Y402096D01*
X789635Y402390D01*
X789743Y402674D01*
X789863Y402949D01*
X789996Y403213D01*
X790142Y403467D01*
X790471Y403944D01*
X790851Y404382D01*
X791276Y404773D01*
X791503Y404949D01*
X791740Y405112D01*
X791987Y405261D01*
X792245Y405398D01*
X792512Y405522D01*
X792789Y405633D01*
X793075Y405731D01*
X793372Y405815D01*
X793679Y405887D01*
X793996Y405946D01*
X794322Y405991D01*
X794659Y406024D01*
X795005Y406044D01*
X795361Y406050D01*
X795824Y406038D01*
X796272Y406003D01*
X796703Y405945D01*
X797120Y405863D01*
X797520Y405758D01*
X797905Y405629D01*
X798275Y405477D01*
X798628Y405301D01*
X798964Y405103D01*
X799279Y404884D01*
X799574Y404644D01*
X799849Y404383D01*
X800103Y404100D01*
X800337Y403796D01*
X800550Y403471D01*
X800743Y403125D01*
X800915Y402760D01*
X801063Y402379D01*
X801189Y401981D01*
X801292Y401568D01*
X801372Y401138D01*
X801429Y400693D01*
X801463Y400231D01*
X801475Y399753D01*
X801463Y399276D01*
X801429Y398815D01*
X801371Y398369D01*
X801290Y397937D01*
X801186Y397521D01*
X801059Y397120D01*
X800908Y396734D01*
X800735Y396363D01*
X800540Y396010D01*
X800324Y395678D01*
X800089Y395368D01*
X799834Y395078D01*
X799558Y394809D01*
X799262Y394562D01*
X798947Y394335D01*
X798611Y394130D01*
X798257Y393947D01*
X797888Y393789D01*
X797503Y393655D01*
X797102Y393545D01*
X796686Y393460D01*
X796254Y393399D01*
X795807Y393362D01*
X795344Y393350D01*
G37*
%LPC*%
G36*
X795344Y394708D02*
X795863Y394728D01*
X796350Y394790D01*
X796807Y394893D01*
X797232Y395037D01*
X797627Y395223D01*
X797990Y395449D01*
X798323Y395717D01*
X798624Y396026D01*
X798892Y396372D01*
X799124Y396753D01*
X799320Y397168D01*
X799481Y397617D01*
X799606Y398100D01*
X799695Y398617D01*
X799749Y399168D01*
X799767Y399753D01*
X799749Y400313D01*
X799695Y400843D01*
X799605Y401341D01*
X799479Y401809D01*
X799317Y402245D01*
X799119Y402651D01*
X798885Y403026D01*
X798615Y403370D01*
X798312Y403678D01*
X797980Y403945D01*
X797618Y404171D01*
X797226Y404355D01*
X796804Y404499D01*
X796353Y404602D01*
X795872Y404663D01*
X795361Y404684D01*
X794847Y404663D01*
X794362Y404603D01*
X793907Y404501D01*
X793483Y404360D01*
X793088Y404177D01*
X792724Y403955D01*
X792390Y403691D01*
X792086Y403387D01*
X791815Y403047D01*
X791580Y402674D01*
X791381Y402269D01*
X791219Y401831D01*
X791092Y401360D01*
X791002Y400857D01*
X790948Y400321D01*
X790930Y399753D01*
X790948Y399187D01*
X791003Y398652D01*
X791094Y398147D01*
X791222Y397671D01*
X791386Y397226D01*
X791587Y396811D01*
X791825Y396425D01*
X792099Y396070D01*
X792405Y395750D01*
X792740Y395474D01*
X793103Y395240D01*
X793495Y395048D01*
X793914Y394899D01*
X794363Y394793D01*
X794839Y394729D01*
X795344Y394708D01*
G37*
%LPD*%
G36*
X808362Y393350D02*
X807813Y393362D01*
X807293Y393399D01*
X806804Y393460D01*
X806343Y393546D01*
X805913Y393656D01*
X805512Y393791D01*
X805141Y393950D01*
X804799Y394134D01*
X804487Y394342D01*
X804205Y394575D01*
X803952Y394832D01*
X803729Y395114D01*
X803535Y395420D01*
X803372Y395751D01*
X803237Y396106D01*
X803133Y396486D01*
X804753Y396810D01*
X804833Y396541D01*
X804933Y396291D01*
X805052Y396059D01*
X805191Y395845D01*
X805350Y395650D01*
X805528Y395474D01*
X805726Y395316D01*
X805944Y395176D01*
X806182Y395054D01*
X806441Y394948D01*
X806720Y394859D01*
X807019Y394785D01*
X807340Y394728D01*
X807680Y394688D01*
X808041Y394663D01*
X808423Y394655D01*
X808817Y394664D01*
X809187Y394690D01*
X809534Y394733D01*
X809858Y394794D01*
X810159Y394872D01*
X810437Y394968D01*
X810692Y395081D01*
X810924Y395211D01*
X811130Y395359D01*
X811309Y395522D01*
X811460Y395702D01*
X811584Y395898D01*
X811680Y396110D01*
X811749Y396339D01*
X811790Y396584D01*
X811804Y396845D01*
X811787Y397133D01*
X811735Y397392D01*
X811649Y397623D01*
X811528Y397826D01*
X811376Y398006D01*
X811196Y398170D01*
X810988Y398317D01*
X810753Y398448D01*
X810491Y398565D01*
X810205Y398673D01*
X809896Y398771D01*
X809562Y398859D01*
X808029Y399218D01*
X807342Y399380D01*
X806742Y399542D01*
X806231Y399704D01*
X805809Y399867D01*
X805450Y400033D01*
X805131Y400209D01*
X804852Y400395D01*
X804613Y400589D01*
X804407Y400797D01*
X804227Y401022D01*
X804072Y401263D01*
X803943Y401522D01*
X803841Y401799D01*
X803769Y402096D01*
X803725Y402412D01*
X803711Y402748D01*
X803730Y403133D01*
X803787Y403495D01*
X803881Y403835D01*
X804014Y404152D01*
X804185Y404446D01*
X804393Y404717D01*
X804640Y404966D01*
X804924Y405192D01*
X805244Y405393D01*
X805596Y405567D01*
X805981Y405715D01*
X806399Y405835D01*
X806849Y405929D01*
X807332Y405996D01*
X807848Y406037D01*
X808397Y406050D01*
X808907Y406040D01*
X809386Y406010D01*
X809834Y405960D01*
X810251Y405889D01*
X810638Y405799D01*
X810993Y405688D01*
X811318Y405557D01*
X811611Y405406D01*
X811879Y405231D01*
X812126Y405028D01*
X812352Y404796D01*
X812557Y404536D01*
X812741Y404248D01*
X812905Y403931D01*
X813048Y403586D01*
X813170Y403212D01*
X811524Y402923D01*
X811448Y403160D01*
X811357Y403380D01*
X811251Y403583D01*
X811129Y403770D01*
X810993Y403939D01*
X810840Y404092D01*
X810673Y404228D01*
X810490Y404347D01*
X810290Y404450D01*
X810072Y404540D01*
X809836Y404616D01*
X809581Y404678D01*
X809308Y404727D01*
X809017Y404761D01*
X808707Y404782D01*
X808379Y404789D01*
X808020Y404781D01*
X807683Y404758D01*
X807368Y404720D01*
X807074Y404666D01*
X806803Y404597D01*
X806553Y404513D01*
X806325Y404413D01*
X806119Y404298D01*
X805937Y404168D01*
X805778Y404023D01*
X805644Y403863D01*
X805535Y403687D01*
X805450Y403497D01*
X805389Y403292D01*
X805352Y403071D01*
X805340Y402836D01*
X805359Y402563D01*
X805416Y402316D01*
X805510Y402093D01*
X805642Y401894D01*
X805810Y401715D01*
X806011Y401550D01*
X806246Y401400D01*
X806514Y401264D01*
X806869Y401127D01*
X807365Y400976D01*
X808003Y400809D01*
X808782Y400629D01*
X809916Y400361D01*
X810469Y400212D01*
X810998Y400037D01*
X811498Y399833D01*
X811966Y399595D01*
X812184Y399461D01*
X812387Y399313D01*
X812576Y399150D01*
X812750Y398973D01*
X812907Y398781D01*
X813046Y398572D01*
X813168Y398347D01*
X813271Y398106D01*
X813353Y397845D01*
X813412Y397563D01*
X813447Y397259D01*
X813459Y396932D01*
X813438Y396517D01*
X813376Y396127D01*
X813271Y395760D01*
X813125Y395417D01*
X812937Y395099D01*
X812708Y394804D01*
X812437Y394534D01*
X812123Y394287D01*
X811773Y394068D01*
X811387Y393877D01*
X810968Y393716D01*
X810515Y393584D01*
X810028Y393482D01*
X809507Y393409D01*
X808951Y393365D01*
X808362Y393350D01*
G37*
G36*
X821215Y393350D02*
X820757Y393362D01*
X820314Y393399D01*
X819887Y393459D01*
X819475Y393544D01*
X819080Y393653D01*
X818700Y393786D01*
X818336Y393944D01*
X817988Y394125D01*
X817657Y394329D01*
X817347Y394554D01*
X817057Y394800D01*
X816788Y395067D01*
X816538Y395354D01*
X816309Y395662D01*
X816100Y395991D01*
X815912Y396341D01*
X815744Y396710D01*
X815599Y397095D01*
X815477Y397496D01*
X815376Y397914D01*
X815298Y398349D01*
X815243Y398800D01*
X815209Y399268D01*
X815198Y399753D01*
X815204Y400117D01*
X815223Y400471D01*
X815254Y400815D01*
X815298Y401149D01*
X815354Y401473D01*
X815422Y401787D01*
X815503Y402091D01*
X815596Y402385D01*
X815702Y402669D01*
X815821Y402943D01*
X816095Y403461D01*
X816418Y403939D01*
X816792Y404377D01*
X817210Y404769D01*
X817666Y405109D01*
X817908Y405259D01*
X818160Y405397D01*
X818421Y405521D01*
X818693Y405632D01*
X818973Y405730D01*
X819264Y405815D01*
X819563Y405887D01*
X819873Y405946D01*
X820192Y405991D01*
X820520Y406024D01*
X820859Y406044D01*
X821206Y406050D01*
X821689Y406038D01*
X822151Y406002D01*
X822593Y405942D01*
X823015Y405857D01*
X823416Y405749D01*
X823798Y405617D01*
X824159Y405460D01*
X824499Y405279D01*
X824819Y405075D01*
X825117Y404847D01*
X825393Y404597D01*
X825647Y404322D01*
X825879Y404025D01*
X826089Y403704D01*
X826277Y403361D01*
X826444Y402993D01*
X824859Y402468D01*
X824743Y402729D01*
X824611Y402975D01*
X824463Y403204D01*
X824299Y403418D01*
X824119Y403616D01*
X823922Y403798D01*
X823709Y403964D01*
X823479Y404114D01*
X823236Y404248D01*
X822982Y404363D01*
X822717Y404461D01*
X822440Y404541D01*
X822153Y404604D01*
X821854Y404648D01*
X821545Y404675D01*
X821224Y404684D01*
X820726Y404663D01*
X820256Y404601D01*
X819815Y404498D01*
X819402Y404354D01*
X819018Y404169D01*
X818662Y403942D01*
X818335Y403675D01*
X818036Y403366D01*
X817769Y403021D01*
X817538Y402645D01*
X817342Y402240D01*
X817182Y401803D01*
X817057Y401336D01*
X816968Y400839D01*
X816915Y400311D01*
X816897Y399753D01*
X816916Y399199D01*
X816971Y398674D01*
X817064Y398176D01*
X817194Y397706D01*
X817361Y397264D01*
X817565Y396850D01*
X817806Y396463D01*
X818084Y396105D01*
X818394Y395781D01*
X818730Y395501D01*
X819092Y395264D01*
X819480Y395070D01*
X819894Y394919D01*
X820335Y394811D01*
X820801Y394747D01*
X821294Y394725D01*
X821613Y394735D01*
X821922Y394765D01*
X822221Y394815D01*
X822510Y394886D01*
X822788Y394976D01*
X823057Y395086D01*
X823316Y395216D01*
X823565Y395367D01*
X823803Y395537D01*
X824032Y395728D01*
X824250Y395938D01*
X824458Y396169D01*
X824657Y396419D01*
X824845Y396690D01*
X825023Y396981D01*
X825191Y397292D01*
X826558Y396608D01*
X826358Y396222D01*
X826138Y395859D01*
X825899Y395520D01*
X825641Y395205D01*
X825364Y394913D01*
X825067Y394646D01*
X824752Y394402D01*
X824416Y394182D01*
X824065Y393987D01*
X823699Y393818D01*
X823319Y393675D01*
X822926Y393558D01*
X822519Y393467D01*
X822098Y393402D01*
X821664Y393363D01*
X821215Y393350D01*
G37*
G36*
X836325Y393525D02*
X828591Y393525D01*
X828591Y394865D01*
X831735Y394865D01*
X831735Y404360D01*
X828950Y402371D01*
X828950Y403860D01*
X831867Y405866D01*
X833320Y405866D01*
X833320Y394865D01*
X836325Y394865D01*
X836325Y393525D01*
G37*
G36*
X792253Y230942D02*
X791357Y230942D01*
X791357Y233742D01*
X792253Y233742D01*
X792253Y230942D01*
G37*
G36*
X726168Y228992D02*
X725351Y228992D01*
X725351Y231366D01*
X722954Y231366D01*
X722954Y232190D01*
X725351Y232190D01*
X725351Y234564D01*
X726168Y234564D01*
X726168Y232190D01*
X728565Y232190D01*
X728565Y231366D01*
X726168Y231366D01*
X726168Y228992D01*
G37*
D10*
X491193Y141548D02*
X491841Y141548D01*
X479141Y141548D01*
X485491Y135198D01*
X491841Y141548D01*
X490326Y141548D01*
X485491Y136714D01*
X485087Y136714D01*
X481130Y140670D01*
X488436Y140670D01*
X485416Y137650D01*
X485087Y137650D01*
X483109Y139628D01*
X483109Y139885D01*
X486308Y139885D01*
X486564Y139628D01*
X485855Y138918D01*
X484708Y138918D01*
X106341Y532036D02*
X106341Y544371D01*
X106341Y532036D02*
X106209Y532036D01*
X108860Y532036D02*
X108860Y544504D01*
X108860Y532036D02*
X108993Y532036D01*
X806745Y149097D02*
X810697Y149097D01*
X832756Y149138D02*
X837489Y149138D01*
X726945Y218839D02*
X726945Y223207D01*
X727120Y196124D02*
X727120Y191581D01*
X761557Y323653D02*
X771824Y333920D01*
X770381Y334322D02*
X751592Y334525D01*
X751290Y334223D01*
X761256Y324257D01*
X761557Y324257D01*
X761624Y325565D01*
X770381Y334322D01*
X761557Y328183D02*
X759745Y326371D01*
X761557Y328183D02*
X763671Y328183D01*
X767898Y332411D01*
X767898Y333619D01*
X754914Y333619D01*
X753404Y333619D01*
X753102Y333317D01*
X758538Y327881D01*
X760651Y327881D01*
X760651Y328788D01*
X764878Y333015D01*
X764274Y332411D01*
X756121Y332411D01*
X756121Y331505D01*
X759141Y328485D01*
X761859Y331203D01*
X762161Y331203D01*
X757933Y331203D01*
X757329Y331807D01*
X759443Y329693D01*
X759745Y329693D01*
X757027Y332411D01*
X754914Y332411D01*
X765883Y332411D01*
X769106Y332411D01*
X770012Y333317D01*
X755216Y333317D01*
X754914Y333619D01*
X762614Y327516D02*
X760651Y325553D01*
X762614Y327516D02*
X762614Y327855D01*
D11*
X762107Y328636D02*
X765883Y332411D01*
X762107Y328636D02*
X762010Y328636D01*
D10*
X770372Y334312D02*
X772087Y334312D01*
X772134Y334265D01*
X628465Y411820D02*
X619467Y411820D01*
X741895Y411820D02*
X741895Y420818D01*
X741895Y534248D02*
X732897Y534248D01*
X619467Y420818D02*
X619467Y411820D01*
X732897Y411820D02*
X741895Y411820D01*
X741895Y525250D02*
X741895Y534248D01*
D12*
X648533Y399643D02*
X648533Y392051D01*
X668579Y392010D02*
X668579Y399601D01*
X688763Y399791D02*
X688763Y392199D01*
X708659Y391998D02*
X708659Y399589D01*
X652688Y546496D02*
X652688Y554088D01*
X672673Y553925D02*
X672673Y546333D01*
X692631Y546847D02*
X692631Y554438D01*
X712647Y554351D02*
X712647Y546759D01*
X755357Y441079D02*
X762850Y441079D01*
X762850Y460883D02*
X755357Y460883D01*
X755357Y480882D02*
X762850Y480882D01*
X762850Y501064D02*
X755357Y501064D01*
X606385Y444874D02*
X599056Y444874D01*
X599219Y464859D02*
X606385Y464859D01*
X606385Y484817D02*
X598705Y484817D01*
X598793Y504833D02*
X606385Y504833D01*
D13*
X619467Y525250D02*
X628465Y534248D01*
X880000Y463756D02*
X880000Y449996D01*
X880000Y513236D02*
X880000Y526996D01*
X917220Y526996D01*
X947780Y526996D02*
X972000Y526996D01*
X917220Y449996D02*
X880000Y449996D01*
X947780Y449996D02*
X972000Y449996D01*
X972000Y526996D01*
X697071Y168886D02*
X697071Y147386D01*
X717553Y147386D02*
X717553Y168886D01*
X815438Y212410D02*
X826438Y212410D01*
X826438Y225130D02*
X815438Y225130D01*
X611964Y158457D02*
X611964Y147457D01*
X624684Y147457D02*
X624684Y158457D01*
X658839Y236411D02*
X669839Y236411D01*
X669839Y223691D02*
X658839Y223691D01*
X632712Y27547D02*
X640490Y19769D01*
X649484Y28763D02*
X641706Y36541D01*
X852066Y27009D02*
X863066Y27009D01*
X863066Y39729D02*
X852066Y39729D01*
X826331Y238552D02*
X815331Y238552D01*
X815331Y225832D02*
X826331Y225832D01*
X869789Y44556D02*
X869789Y33556D01*
X882509Y33556D02*
X882509Y44556D01*
X764894Y41063D02*
X753894Y41063D01*
X753894Y28343D02*
X764894Y28343D01*
D10*
X635850Y222606D02*
X629046Y222606D01*
X629046Y237592D02*
X635850Y237592D01*
X660374Y151885D02*
X660374Y142995D01*
X660374Y172967D02*
X669772Y172967D01*
X660374Y172967D02*
X660374Y164077D01*
X660374Y142995D02*
X664438Y142995D01*
X669772Y142995D01*
D13*
X988812Y185903D02*
X988812Y275903D01*
X988812Y185903D02*
X844812Y185903D01*
X844812Y275903D02*
X863312Y275903D01*
X844812Y215403D02*
X844812Y185903D01*
X899312Y275903D02*
X988812Y275903D01*
X844812Y275903D02*
X844812Y245403D01*
D10*
X837941Y201788D02*
X837941Y143348D01*
X837941Y201788D02*
X833548Y201788D01*
X806201Y201788D02*
X806201Y143348D01*
X810594Y143348D01*
X833548Y143348D02*
X837941Y143348D01*
X810594Y201788D02*
X806201Y201788D01*
D13*
X629769Y158743D02*
X629769Y147743D01*
X642341Y147743D02*
X642341Y158743D01*
D10*
X802208Y82216D02*
X814072Y82216D01*
X814072Y102790D02*
X802208Y102790D01*
X773551Y129083D02*
X761687Y129083D01*
X761687Y108509D02*
X773551Y108509D01*
X773793Y103034D02*
X761929Y103034D01*
X761929Y82460D02*
X773793Y82460D01*
D14*
X688339Y18610D02*
X688341Y18673D01*
X688347Y18735D01*
X688357Y18797D01*
X688370Y18859D01*
X688388Y18919D01*
X688409Y18978D01*
X688434Y19036D01*
X688463Y19092D01*
X688495Y19146D01*
X688530Y19198D01*
X688568Y19247D01*
X688610Y19295D01*
X688654Y19339D01*
X688702Y19381D01*
X688751Y19419D01*
X688803Y19454D01*
X688857Y19486D01*
X688913Y19515D01*
X688971Y19540D01*
X689030Y19561D01*
X689090Y19579D01*
X689152Y19592D01*
X689214Y19602D01*
X689276Y19608D01*
X689339Y19610D01*
X689402Y19608D01*
X689464Y19602D01*
X689526Y19592D01*
X689588Y19579D01*
X689648Y19561D01*
X689707Y19540D01*
X689765Y19515D01*
X689821Y19486D01*
X689875Y19454D01*
X689927Y19419D01*
X689976Y19381D01*
X690024Y19339D01*
X690068Y19295D01*
X690110Y19247D01*
X690148Y19198D01*
X690183Y19146D01*
X690215Y19092D01*
X690244Y19036D01*
X690269Y18978D01*
X690290Y18919D01*
X690308Y18859D01*
X690321Y18797D01*
X690331Y18735D01*
X690337Y18673D01*
X690339Y18610D01*
X690337Y18547D01*
X690331Y18485D01*
X690321Y18423D01*
X690308Y18361D01*
X690290Y18301D01*
X690269Y18242D01*
X690244Y18184D01*
X690215Y18128D01*
X690183Y18074D01*
X690148Y18022D01*
X690110Y17973D01*
X690068Y17925D01*
X690024Y17881D01*
X689976Y17839D01*
X689927Y17801D01*
X689875Y17766D01*
X689821Y17734D01*
X689765Y17705D01*
X689707Y17680D01*
X689648Y17659D01*
X689588Y17641D01*
X689526Y17628D01*
X689464Y17618D01*
X689402Y17612D01*
X689339Y17610D01*
X689276Y17612D01*
X689214Y17618D01*
X689152Y17628D01*
X689090Y17641D01*
X689030Y17659D01*
X688971Y17680D01*
X688913Y17705D01*
X688857Y17734D01*
X688803Y17766D01*
X688751Y17801D01*
X688702Y17839D01*
X688654Y17881D01*
X688610Y17925D01*
X688568Y17973D01*
X688530Y18022D01*
X688495Y18074D01*
X688463Y18128D01*
X688434Y18184D01*
X688409Y18242D01*
X688388Y18301D01*
X688370Y18361D01*
X688357Y18423D01*
X688347Y18485D01*
X688341Y18547D01*
X688339Y18610D01*
D13*
X638339Y99110D02*
X665339Y126110D01*
X711339Y126110D02*
X738339Y99110D01*
X738339Y58110D01*
X711339Y31110D01*
X665339Y31110D02*
X638339Y58110D01*
X638339Y99110D01*
D10*
X348836Y293280D02*
X348836Y297598D01*
X212946Y297598D02*
X208628Y297598D01*
X208628Y161708D02*
X208628Y157390D01*
X344518Y297598D02*
X348836Y297598D01*
X208628Y297598D02*
X208628Y293280D01*
X208628Y157390D02*
X212946Y157390D01*
D13*
X336390Y157390D02*
X348836Y169836D01*
X336390Y157390D02*
X336136Y157390D01*
D10*
X625179Y131583D02*
X625179Y106183D01*
D13*
X625179Y131583D02*
X599779Y131583D01*
X472779Y131583D01*
X472779Y106183D01*
X485479Y106183D01*
X510879Y106183D01*
X536279Y106183D01*
X561679Y106183D01*
X587079Y106183D01*
X625179Y106183D01*
X625179Y2283D01*
X625079Y2283D01*
X472779Y2283D02*
X472779Y104883D01*
X472779Y2283D02*
X599779Y2283D01*
X625079Y2283D01*
X599779Y118366D02*
X599779Y131583D01*
X599779Y108366D02*
X599779Y95150D01*
X599779Y85150D02*
X599779Y71933D01*
X599779Y61933D02*
X599779Y48716D01*
X599779Y38716D02*
X599779Y25500D01*
X599779Y15500D02*
X599779Y2283D01*
X604231Y118883D02*
X604233Y119085D01*
X604241Y119288D01*
X604253Y119490D01*
X604271Y119691D01*
X604293Y119893D01*
X604320Y120093D01*
X604352Y120293D01*
X604389Y120492D01*
X604431Y120690D01*
X604478Y120887D01*
X604530Y121083D01*
X604586Y121277D01*
X604647Y121470D01*
X604713Y121662D01*
X604784Y121851D01*
X604859Y122039D01*
X604939Y122225D01*
X605023Y122409D01*
X605112Y122591D01*
X605205Y122771D01*
X605303Y122948D01*
X605404Y123123D01*
X605511Y123296D01*
X605621Y123465D01*
X605736Y123632D01*
X605854Y123796D01*
X605977Y123957D01*
X606103Y124115D01*
X606234Y124270D01*
X606368Y124422D01*
X606505Y124570D01*
X606647Y124715D01*
X606792Y124857D01*
X606940Y124994D01*
X607092Y125128D01*
X607247Y125259D01*
X607405Y125385D01*
X607566Y125508D01*
X607730Y125626D01*
X607897Y125741D01*
X608066Y125851D01*
X608239Y125958D01*
X608414Y126059D01*
X608591Y126157D01*
X608771Y126250D01*
X608953Y126339D01*
X609137Y126423D01*
X609323Y126503D01*
X609511Y126578D01*
X609700Y126649D01*
X609892Y126715D01*
X610085Y126776D01*
X610279Y126832D01*
X610475Y126884D01*
X610672Y126931D01*
X610870Y126973D01*
X611069Y127010D01*
X611269Y127042D01*
X611469Y127069D01*
X611671Y127091D01*
X611872Y127109D01*
X612074Y127121D01*
X612277Y127129D01*
X612479Y127131D01*
X612681Y127129D01*
X612884Y127121D01*
X613086Y127109D01*
X613287Y127091D01*
X613489Y127069D01*
X613689Y127042D01*
X613889Y127010D01*
X614088Y126973D01*
X614286Y126931D01*
X614483Y126884D01*
X614679Y126832D01*
X614873Y126776D01*
X615066Y126715D01*
X615258Y126649D01*
X615447Y126578D01*
X615635Y126503D01*
X615821Y126423D01*
X616005Y126339D01*
X616187Y126250D01*
X616367Y126157D01*
X616544Y126059D01*
X616719Y125958D01*
X616892Y125851D01*
X617061Y125741D01*
X617228Y125626D01*
X617392Y125508D01*
X617553Y125385D01*
X617711Y125259D01*
X617866Y125128D01*
X618018Y124994D01*
X618166Y124857D01*
X618311Y124715D01*
X618453Y124570D01*
X618590Y124422D01*
X618724Y124270D01*
X618855Y124115D01*
X618981Y123957D01*
X619104Y123796D01*
X619222Y123632D01*
X619337Y123465D01*
X619447Y123296D01*
X619554Y123123D01*
X619655Y122948D01*
X619753Y122771D01*
X619846Y122591D01*
X619935Y122409D01*
X620019Y122225D01*
X620099Y122039D01*
X620174Y121851D01*
X620245Y121662D01*
X620311Y121470D01*
X620372Y121277D01*
X620428Y121083D01*
X620480Y120887D01*
X620527Y120690D01*
X620569Y120492D01*
X620606Y120293D01*
X620638Y120093D01*
X620665Y119893D01*
X620687Y119691D01*
X620705Y119490D01*
X620717Y119288D01*
X620725Y119085D01*
X620727Y118883D01*
X620725Y118681D01*
X620717Y118478D01*
X620705Y118276D01*
X620687Y118075D01*
X620665Y117873D01*
X620638Y117673D01*
X620606Y117473D01*
X620569Y117274D01*
X620527Y117076D01*
X620480Y116879D01*
X620428Y116683D01*
X620372Y116489D01*
X620311Y116296D01*
X620245Y116104D01*
X620174Y115915D01*
X620099Y115727D01*
X620019Y115541D01*
X619935Y115357D01*
X619846Y115175D01*
X619753Y114995D01*
X619655Y114818D01*
X619554Y114643D01*
X619447Y114470D01*
X619337Y114301D01*
X619222Y114134D01*
X619104Y113970D01*
X618981Y113809D01*
X618855Y113651D01*
X618724Y113496D01*
X618590Y113344D01*
X618453Y113196D01*
X618311Y113051D01*
X618166Y112909D01*
X618018Y112772D01*
X617866Y112638D01*
X617711Y112507D01*
X617553Y112381D01*
X617392Y112258D01*
X617228Y112140D01*
X617061Y112025D01*
X616892Y111915D01*
X616719Y111808D01*
X616544Y111707D01*
X616367Y111609D01*
X616187Y111516D01*
X616005Y111427D01*
X615821Y111343D01*
X615635Y111263D01*
X615447Y111188D01*
X615258Y111117D01*
X615066Y111051D01*
X614873Y110990D01*
X614679Y110934D01*
X614483Y110882D01*
X614286Y110835D01*
X614088Y110793D01*
X613889Y110756D01*
X613689Y110724D01*
X613489Y110697D01*
X613287Y110675D01*
X613086Y110657D01*
X612884Y110645D01*
X612681Y110637D01*
X612479Y110635D01*
X612277Y110637D01*
X612074Y110645D01*
X611872Y110657D01*
X611671Y110675D01*
X611469Y110697D01*
X611269Y110724D01*
X611069Y110756D01*
X610870Y110793D01*
X610672Y110835D01*
X610475Y110882D01*
X610279Y110934D01*
X610085Y110990D01*
X609892Y111051D01*
X609700Y111117D01*
X609511Y111188D01*
X609323Y111263D01*
X609137Y111343D01*
X608953Y111427D01*
X608771Y111516D01*
X608591Y111609D01*
X608414Y111707D01*
X608239Y111808D01*
X608066Y111915D01*
X607897Y112025D01*
X607730Y112140D01*
X607566Y112258D01*
X607405Y112381D01*
X607247Y112507D01*
X607092Y112638D01*
X606940Y112772D01*
X606792Y112909D01*
X606647Y113051D01*
X606505Y113196D01*
X606368Y113344D01*
X606234Y113496D01*
X606103Y113651D01*
X605977Y113809D01*
X605854Y113970D01*
X605736Y114134D01*
X605621Y114301D01*
X605511Y114470D01*
X605404Y114643D01*
X605303Y114818D01*
X605205Y114995D01*
X605112Y115175D01*
X605023Y115357D01*
X604939Y115541D01*
X604859Y115727D01*
X604784Y115915D01*
X604713Y116104D01*
X604647Y116296D01*
X604586Y116489D01*
X604530Y116683D01*
X604478Y116879D01*
X604431Y117076D01*
X604389Y117274D01*
X604352Y117473D01*
X604320Y117673D01*
X604293Y117873D01*
X604271Y118075D01*
X604253Y118276D01*
X604241Y118478D01*
X604233Y118681D01*
X604231Y118883D01*
D10*
X463069Y99777D02*
X437669Y99777D01*
X437669Y74377D01*
X463069Y74377D01*
X463069Y99777D01*
X437669Y99777D02*
X412269Y99777D01*
X412269Y74377D01*
X437669Y74377D01*
D15*
X450369Y71837D03*
X424969Y71837D03*
D16*
X450369Y104857D03*
X424969Y104857D03*
D14*
X780251Y570408D02*
X780253Y570471D01*
X780259Y570533D01*
X780269Y570595D01*
X780282Y570657D01*
X780300Y570717D01*
X780321Y570776D01*
X780346Y570834D01*
X780375Y570890D01*
X780407Y570944D01*
X780442Y570996D01*
X780480Y571045D01*
X780522Y571093D01*
X780566Y571137D01*
X780614Y571179D01*
X780663Y571217D01*
X780715Y571252D01*
X780769Y571284D01*
X780825Y571313D01*
X780883Y571338D01*
X780942Y571359D01*
X781002Y571377D01*
X781064Y571390D01*
X781126Y571400D01*
X781188Y571406D01*
X781251Y571408D01*
X781314Y571406D01*
X781376Y571400D01*
X781438Y571390D01*
X781500Y571377D01*
X781560Y571359D01*
X781619Y571338D01*
X781677Y571313D01*
X781733Y571284D01*
X781787Y571252D01*
X781839Y571217D01*
X781888Y571179D01*
X781936Y571137D01*
X781980Y571093D01*
X782022Y571045D01*
X782060Y570996D01*
X782095Y570944D01*
X782127Y570890D01*
X782156Y570834D01*
X782181Y570776D01*
X782202Y570717D01*
X782220Y570657D01*
X782233Y570595D01*
X782243Y570533D01*
X782249Y570471D01*
X782251Y570408D01*
X782249Y570345D01*
X782243Y570283D01*
X782233Y570221D01*
X782220Y570159D01*
X782202Y570099D01*
X782181Y570040D01*
X782156Y569982D01*
X782127Y569926D01*
X782095Y569872D01*
X782060Y569820D01*
X782022Y569771D01*
X781980Y569723D01*
X781936Y569679D01*
X781888Y569637D01*
X781839Y569599D01*
X781787Y569564D01*
X781733Y569532D01*
X781677Y569503D01*
X781619Y569478D01*
X781560Y569457D01*
X781500Y569439D01*
X781438Y569426D01*
X781376Y569416D01*
X781314Y569410D01*
X781251Y569408D01*
X781188Y569410D01*
X781126Y569416D01*
X781064Y569426D01*
X781002Y569439D01*
X780942Y569457D01*
X780883Y569478D01*
X780825Y569503D01*
X780769Y569532D01*
X780715Y569564D01*
X780663Y569599D01*
X780614Y569637D01*
X780566Y569679D01*
X780522Y569723D01*
X780480Y569771D01*
X780442Y569820D01*
X780407Y569872D01*
X780375Y569926D01*
X780346Y569982D01*
X780321Y570040D01*
X780300Y570099D01*
X780282Y570159D01*
X780269Y570221D01*
X780259Y570283D01*
X780253Y570345D01*
X780251Y570408D01*
D13*
X766471Y562908D02*
X764871Y562908D01*
X764871Y537908D02*
X766471Y537908D01*
D14*
X774051Y411542D02*
X774053Y411605D01*
X774059Y411667D01*
X774069Y411729D01*
X774082Y411791D01*
X774100Y411851D01*
X774121Y411910D01*
X774146Y411968D01*
X774175Y412024D01*
X774207Y412078D01*
X774242Y412130D01*
X774280Y412179D01*
X774322Y412227D01*
X774366Y412271D01*
X774414Y412313D01*
X774463Y412351D01*
X774515Y412386D01*
X774569Y412418D01*
X774625Y412447D01*
X774683Y412472D01*
X774742Y412493D01*
X774802Y412511D01*
X774864Y412524D01*
X774926Y412534D01*
X774988Y412540D01*
X775051Y412542D01*
X775114Y412540D01*
X775176Y412534D01*
X775238Y412524D01*
X775300Y412511D01*
X775360Y412493D01*
X775419Y412472D01*
X775477Y412447D01*
X775533Y412418D01*
X775587Y412386D01*
X775639Y412351D01*
X775688Y412313D01*
X775736Y412271D01*
X775780Y412227D01*
X775822Y412179D01*
X775860Y412130D01*
X775895Y412078D01*
X775927Y412024D01*
X775956Y411968D01*
X775981Y411910D01*
X776002Y411851D01*
X776020Y411791D01*
X776033Y411729D01*
X776043Y411667D01*
X776049Y411605D01*
X776051Y411542D01*
X776049Y411479D01*
X776043Y411417D01*
X776033Y411355D01*
X776020Y411293D01*
X776002Y411233D01*
X775981Y411174D01*
X775956Y411116D01*
X775927Y411060D01*
X775895Y411006D01*
X775860Y410954D01*
X775822Y410905D01*
X775780Y410857D01*
X775736Y410813D01*
X775688Y410771D01*
X775639Y410733D01*
X775587Y410698D01*
X775533Y410666D01*
X775477Y410637D01*
X775419Y410612D01*
X775360Y410591D01*
X775300Y410573D01*
X775238Y410560D01*
X775176Y410550D01*
X775114Y410544D01*
X775051Y410542D01*
X774988Y410544D01*
X774926Y410550D01*
X774864Y410560D01*
X774802Y410573D01*
X774742Y410591D01*
X774683Y410612D01*
X774625Y410637D01*
X774569Y410666D01*
X774515Y410698D01*
X774463Y410733D01*
X774414Y410771D01*
X774366Y410813D01*
X774322Y410857D01*
X774280Y410905D01*
X774242Y410954D01*
X774207Y411006D01*
X774175Y411060D01*
X774146Y411116D01*
X774121Y411174D01*
X774100Y411233D01*
X774082Y411293D01*
X774069Y411355D01*
X774059Y411417D01*
X774053Y411479D01*
X774051Y411542D01*
D13*
X760271Y404042D02*
X758671Y404042D01*
X758671Y379042D02*
X760271Y379042D01*
X723823Y294582D02*
X723823Y260582D01*
X798823Y260582D02*
X798823Y294582D01*
X778323Y315082D02*
X744323Y315082D01*
X744323Y240082D02*
X778323Y240082D01*
X692920Y254019D02*
X681920Y254019D01*
X681920Y266739D02*
X692920Y266739D01*
D10*
X720332Y191461D02*
X778772Y191461D01*
X778772Y195854D01*
X778772Y223201D02*
X720332Y223201D01*
X720332Y218808D01*
X720332Y195854D02*
X720332Y191461D01*
X778772Y218808D02*
X778772Y223201D01*
X535948Y411419D02*
X535948Y417669D01*
X535948Y431064D02*
X519408Y431064D01*
X519408Y420919D01*
X519408Y398024D02*
X535948Y398024D01*
X519408Y398024D02*
X519408Y408169D01*
D13*
X791861Y458076D02*
X791861Y469076D01*
X804581Y469076D02*
X804581Y458076D01*
X565957Y425041D02*
X565957Y414041D01*
X578677Y414041D02*
X578677Y425041D01*
D10*
X788481Y27421D02*
X828359Y27421D01*
X828359Y77459D01*
X788481Y77459D01*
X788481Y27421D01*
X805372Y77459D02*
X805374Y77350D01*
X805380Y77242D01*
X805389Y77133D01*
X805403Y77025D01*
X805420Y76918D01*
X805442Y76811D01*
X805467Y76705D01*
X805495Y76600D01*
X805528Y76496D01*
X805564Y76394D01*
X805604Y76293D01*
X805647Y76193D01*
X805694Y76095D01*
X805745Y75998D01*
X805799Y75904D01*
X805856Y75811D01*
X805916Y75721D01*
X805980Y75632D01*
X806047Y75546D01*
X806116Y75463D01*
X806189Y75382D01*
X806265Y75304D01*
X806343Y75228D01*
X806424Y75155D01*
X806507Y75086D01*
X806593Y75019D01*
X806682Y74955D01*
X806772Y74895D01*
X806865Y74838D01*
X806959Y74784D01*
X807056Y74733D01*
X807154Y74686D01*
X807254Y74643D01*
X807355Y74603D01*
X807457Y74567D01*
X807561Y74534D01*
X807666Y74506D01*
X807772Y74481D01*
X807879Y74459D01*
X807986Y74442D01*
X808094Y74428D01*
X808203Y74419D01*
X808311Y74413D01*
X808420Y74411D01*
X808529Y74413D01*
X808637Y74419D01*
X808746Y74428D01*
X808854Y74442D01*
X808961Y74459D01*
X809068Y74481D01*
X809174Y74506D01*
X809279Y74534D01*
X809383Y74567D01*
X809485Y74603D01*
X809586Y74643D01*
X809686Y74686D01*
X809784Y74733D01*
X809881Y74784D01*
X809975Y74838D01*
X810068Y74895D01*
X810158Y74955D01*
X810247Y75019D01*
X810333Y75086D01*
X810416Y75155D01*
X810497Y75228D01*
X810575Y75304D01*
X810651Y75382D01*
X810724Y75463D01*
X810793Y75546D01*
X810860Y75632D01*
X810924Y75721D01*
X810984Y75811D01*
X811041Y75904D01*
X811095Y75998D01*
X811146Y76095D01*
X811193Y76193D01*
X811236Y76293D01*
X811276Y76394D01*
X811312Y76496D01*
X811345Y76600D01*
X811373Y76705D01*
X811398Y76811D01*
X811420Y76918D01*
X811437Y77025D01*
X811451Y77133D01*
X811460Y77242D01*
X811466Y77350D01*
X811468Y77459D01*
D13*
X851987Y52380D02*
X862987Y52380D01*
X862987Y65100D02*
X851987Y65100D01*
D10*
X814072Y108644D02*
X802208Y108644D01*
X802208Y129218D02*
X814072Y129218D01*
D13*
X220918Y453374D02*
X220918Y464374D01*
X208198Y464374D02*
X208198Y453374D01*
D10*
X268300Y530217D02*
X449900Y530217D01*
X449900Y613783D02*
X268300Y613783D01*
D13*
X257426Y620260D02*
X257428Y620384D01*
X257434Y620509D01*
X257444Y620633D01*
X257458Y620757D01*
X257476Y620880D01*
X257498Y621002D01*
X257523Y621124D01*
X257553Y621245D01*
X257587Y621365D01*
X257624Y621484D01*
X257665Y621601D01*
X257710Y621718D01*
X257758Y621832D01*
X257811Y621945D01*
X257866Y622056D01*
X257926Y622166D01*
X257989Y622273D01*
X258055Y622379D01*
X258124Y622482D01*
X258197Y622583D01*
X258273Y622682D01*
X258353Y622778D01*
X258435Y622871D01*
X258520Y622962D01*
X258608Y623050D01*
X258699Y623135D01*
X258792Y623217D01*
X258888Y623297D01*
X258987Y623373D01*
X259088Y623446D01*
X259191Y623515D01*
X259297Y623581D01*
X259404Y623644D01*
X259514Y623704D01*
X259625Y623759D01*
X259738Y623812D01*
X259852Y623860D01*
X259969Y623905D01*
X260086Y623946D01*
X260205Y623983D01*
X260325Y624017D01*
X260446Y624047D01*
X260568Y624072D01*
X260690Y624094D01*
X260813Y624112D01*
X260937Y624126D01*
X261061Y624136D01*
X261186Y624142D01*
X261310Y624144D01*
X261434Y624142D01*
X261559Y624136D01*
X261683Y624126D01*
X261807Y624112D01*
X261930Y624094D01*
X262052Y624072D01*
X262174Y624047D01*
X262295Y624017D01*
X262415Y623983D01*
X262534Y623946D01*
X262651Y623905D01*
X262768Y623860D01*
X262882Y623812D01*
X262995Y623759D01*
X263106Y623704D01*
X263216Y623644D01*
X263323Y623581D01*
X263429Y623515D01*
X263532Y623446D01*
X263633Y623373D01*
X263732Y623297D01*
X263828Y623217D01*
X263921Y623135D01*
X264012Y623050D01*
X264100Y622962D01*
X264185Y622871D01*
X264267Y622778D01*
X264347Y622682D01*
X264423Y622583D01*
X264496Y622482D01*
X264565Y622379D01*
X264631Y622273D01*
X264694Y622166D01*
X264754Y622056D01*
X264809Y621945D01*
X264862Y621832D01*
X264910Y621718D01*
X264955Y621601D01*
X264996Y621484D01*
X265033Y621365D01*
X265067Y621245D01*
X265097Y621124D01*
X265122Y621002D01*
X265144Y620880D01*
X265162Y620757D01*
X265176Y620633D01*
X265186Y620509D01*
X265192Y620384D01*
X265194Y620260D01*
X265192Y620136D01*
X265186Y620011D01*
X265176Y619887D01*
X265162Y619763D01*
X265144Y619640D01*
X265122Y619518D01*
X265097Y619396D01*
X265067Y619275D01*
X265033Y619155D01*
X264996Y619036D01*
X264955Y618919D01*
X264910Y618802D01*
X264862Y618688D01*
X264809Y618575D01*
X264754Y618464D01*
X264694Y618354D01*
X264631Y618247D01*
X264565Y618141D01*
X264496Y618038D01*
X264423Y617937D01*
X264347Y617838D01*
X264267Y617742D01*
X264185Y617649D01*
X264100Y617558D01*
X264012Y617470D01*
X263921Y617385D01*
X263828Y617303D01*
X263732Y617223D01*
X263633Y617147D01*
X263532Y617074D01*
X263429Y617005D01*
X263323Y616939D01*
X263216Y616876D01*
X263106Y616816D01*
X262995Y616761D01*
X262882Y616708D01*
X262768Y616660D01*
X262651Y616615D01*
X262534Y616574D01*
X262415Y616537D01*
X262295Y616503D01*
X262174Y616473D01*
X262052Y616448D01*
X261930Y616426D01*
X261807Y616408D01*
X261683Y616394D01*
X261559Y616384D01*
X261434Y616378D01*
X261310Y616376D01*
X261186Y616378D01*
X261061Y616384D01*
X260937Y616394D01*
X260813Y616408D01*
X260690Y616426D01*
X260568Y616448D01*
X260446Y616473D01*
X260325Y616503D01*
X260205Y616537D01*
X260086Y616574D01*
X259969Y616615D01*
X259852Y616660D01*
X259738Y616708D01*
X259625Y616761D01*
X259514Y616816D01*
X259404Y616876D01*
X259297Y616939D01*
X259191Y617005D01*
X259088Y617074D01*
X258987Y617147D01*
X258888Y617223D01*
X258792Y617303D01*
X258699Y617385D01*
X258608Y617470D01*
X258520Y617558D01*
X258435Y617649D01*
X258353Y617742D01*
X258273Y617838D01*
X258197Y617937D01*
X258124Y618038D01*
X258055Y618141D01*
X257989Y618247D01*
X257926Y618354D01*
X257866Y618464D01*
X257811Y618575D01*
X257758Y618688D01*
X257710Y618802D01*
X257665Y618919D01*
X257624Y619036D01*
X257587Y619155D01*
X257553Y619275D01*
X257523Y619396D01*
X257498Y619518D01*
X257476Y619640D01*
X257458Y619763D01*
X257444Y619887D01*
X257434Y620011D01*
X257428Y620136D01*
X257426Y620260D01*
X127010Y553119D02*
X127010Y542119D01*
X114290Y542119D02*
X114290Y553119D01*
X885513Y151928D02*
X903113Y151928D01*
X920513Y151928D02*
X920513Y99928D01*
X903113Y99928D02*
X885513Y99928D01*
X868113Y99928D02*
X868113Y151928D01*
D14*
X875803Y168978D02*
X875805Y169041D01*
X875811Y169103D01*
X875821Y169165D01*
X875834Y169227D01*
X875852Y169287D01*
X875873Y169346D01*
X875898Y169404D01*
X875927Y169460D01*
X875959Y169514D01*
X875994Y169566D01*
X876032Y169615D01*
X876074Y169663D01*
X876118Y169707D01*
X876166Y169749D01*
X876215Y169787D01*
X876267Y169822D01*
X876321Y169854D01*
X876377Y169883D01*
X876435Y169908D01*
X876494Y169929D01*
X876554Y169947D01*
X876616Y169960D01*
X876678Y169970D01*
X876740Y169976D01*
X876803Y169978D01*
X876866Y169976D01*
X876928Y169970D01*
X876990Y169960D01*
X877052Y169947D01*
X877112Y169929D01*
X877171Y169908D01*
X877229Y169883D01*
X877285Y169854D01*
X877339Y169822D01*
X877391Y169787D01*
X877440Y169749D01*
X877488Y169707D01*
X877532Y169663D01*
X877574Y169615D01*
X877612Y169566D01*
X877647Y169514D01*
X877679Y169460D01*
X877708Y169404D01*
X877733Y169346D01*
X877754Y169287D01*
X877772Y169227D01*
X877785Y169165D01*
X877795Y169103D01*
X877801Y169041D01*
X877803Y168978D01*
X877801Y168915D01*
X877795Y168853D01*
X877785Y168791D01*
X877772Y168729D01*
X877754Y168669D01*
X877733Y168610D01*
X877708Y168552D01*
X877679Y168496D01*
X877647Y168442D01*
X877612Y168390D01*
X877574Y168341D01*
X877532Y168293D01*
X877488Y168249D01*
X877440Y168207D01*
X877391Y168169D01*
X877339Y168134D01*
X877285Y168102D01*
X877229Y168073D01*
X877171Y168048D01*
X877112Y168027D01*
X877052Y168009D01*
X876990Y167996D01*
X876928Y167986D01*
X876866Y167980D01*
X876803Y167978D01*
X876740Y167980D01*
X876678Y167986D01*
X876616Y167996D01*
X876554Y168009D01*
X876494Y168027D01*
X876435Y168048D01*
X876377Y168073D01*
X876321Y168102D01*
X876267Y168134D01*
X876215Y168169D01*
X876166Y168207D01*
X876118Y168249D01*
X876074Y168293D01*
X876032Y168341D01*
X875994Y168390D01*
X875959Y168442D01*
X875927Y168496D01*
X875898Y168552D01*
X875873Y168610D01*
X875852Y168669D01*
X875834Y168729D01*
X875821Y168791D01*
X875811Y168853D01*
X875805Y168915D01*
X875803Y168978D01*
D13*
X736075Y31959D02*
X736075Y20959D01*
X748795Y20959D02*
X748795Y31959D01*
D10*
X137866Y538723D02*
X137866Y550587D01*
X158440Y550587D02*
X158440Y538723D01*
M02*
