G04 EAGLE Gerber RS-274X export*
G75*
%MOMM*%
%FSLAX34Y34*%
%LPD*%
%INSolderpaste Bottom*%
%IPPOS*%
%AMOC8*
5,1,8,0,0,1.08239X$1,22.5*%
G01*
G04 Define Apertures*
%ADD10R,1.397000X0.330200*%
%ADD11R,2.311400X1.803400*%
%ADD12R,1.300000X0.300000*%
%ADD13R,2.200000X1.900000*%
%ADD14R,1.320800X0.609600*%
%ADD15R,0.508000X0.558800*%
%ADD16R,0.711200X1.244600*%
%ADD17R,0.535100X0.644000*%
%ADD18R,0.644000X0.535100*%
D10*
X486939Y194200D03*
X486939Y199200D03*
X486939Y204200D03*
X486939Y209200D03*
X486939Y214200D03*
X486939Y219200D03*
X486939Y224200D03*
X486939Y229200D03*
X486939Y234200D03*
X486939Y239200D03*
X486939Y244200D03*
X486939Y249200D03*
X486939Y254200D03*
X486939Y259200D03*
X486939Y264200D03*
X486939Y269200D03*
X486939Y274200D03*
X486939Y279200D03*
X486939Y284200D03*
X486939Y289200D03*
X486939Y294200D03*
X486939Y299200D03*
X486939Y304200D03*
X486939Y309200D03*
X486939Y314200D03*
X486939Y319200D03*
X486939Y324200D03*
X486939Y329200D03*
X486939Y334200D03*
X486939Y339200D03*
X486939Y344200D03*
X486939Y349200D03*
X486939Y354200D03*
X486939Y359200D03*
X486939Y364200D03*
X486939Y369200D03*
X486939Y374200D03*
X486939Y379200D03*
X486939Y384200D03*
X486939Y389200D03*
X486939Y394200D03*
X486939Y399200D03*
X486939Y404200D03*
X486939Y409200D03*
X486939Y414200D03*
X486939Y419200D03*
X486939Y424200D03*
X486939Y429200D03*
X486939Y434200D03*
X486939Y439200D03*
D11*
X518399Y175200D03*
X518399Y458200D03*
D12*
X345074Y538678D03*
X345074Y533678D03*
X345074Y528678D03*
X345074Y523678D03*
X345074Y518678D03*
X345074Y513678D03*
X345074Y508678D03*
X345074Y503678D03*
D13*
X377574Y558178D03*
X377574Y484178D03*
D14*
X510908Y57860D03*
X510908Y76860D03*
X531212Y67360D03*
D15*
X494185Y76923D03*
X484787Y76923D03*
X459366Y214107D03*
X468764Y214107D03*
D16*
X951484Y424603D03*
X931418Y424603D03*
X951484Y300282D03*
X931418Y300282D03*
X951484Y318042D03*
X931418Y318042D03*
X951484Y335803D03*
X931418Y335803D03*
X951484Y353563D03*
X931418Y353563D03*
X951484Y371323D03*
X931418Y371323D03*
X951484Y389083D03*
X931418Y389083D03*
X951484Y406843D03*
X931418Y406843D03*
D17*
X905199Y424347D03*
X915349Y424347D03*
X905716Y406843D03*
X915866Y406843D03*
X905473Y389083D03*
X915623Y389083D03*
X905550Y371323D03*
X915700Y371323D03*
X905708Y353563D03*
X915858Y353563D03*
X905107Y335803D03*
X915257Y335803D03*
X904844Y318042D03*
X914994Y318042D03*
X904976Y300282D03*
X915126Y300282D03*
D18*
X330059Y523660D03*
X330059Y513510D03*
M02*
